<?xml version="1.0" standalone="no"?>
<!DOCTYPE svg PUBLIC "-//W3C//DTD SVG 1.1//EN" "http://www.w3.org/Graphics/SVG/1.1/DTD/svg11.dtd" >
<svg>
<metadata>
Created by FontForge 20090622 at Tue Aug 30 15:57:06 2016
 By deploy user
&#194;&#169; 2008 Microsoft Corporation. All Rights Reserved.
</metadata>
<defs>
<font id="Corbel" horiz-adv-x="1050" >
  <font-face 
    font-family="Corbel"
    font-weight="400"
    font-stretch="normal"
    units-per-em="2048"
    panose-1="2 11 5 3 2 2 4 2 2 4"
    ascent="1523"
    descent="-525"
    x-height="950"
    cap-height="1338"
    bbox="-1059 -490 2273 1949"
    underline-thickness="120"
    underline-position="-130"
    unicode-range="U+000D-U+FB04"
  />
<missing-glyph horiz-adv-x="948" 
d="M948 1338v-1338h-948v1338h948zM855 91v1156h-762v-1156h762zM363 224v125h122v-125h-122zM715 896q0 -35 -9.5 -62t-25 -49.5t-35.5 -41t-42 -35.5l-48 -38.5t-43 -42t-31 -51t-12 -65.5v-11h-88q-1 7 -1.5 15t-0.5 13q0 50 15 85.5t37.5 62t50.5 47.5l53 41
q32 25 54 54t22 73q0 57 -44.5 88.5t-117.5 31.5q-50 0 -96 -12t-82 -28v84q35 19 84 30.5t98 11.5q61 0 109.5 -14.5t82.5 -41t52 -63.5t18 -82z" />
    <glyph glyph-name="f_b.liga" unicode="fb" horiz-adv-x="1720" 
d="M938 861h3q51 54 119 84t155 30q41 0 87 -9t91.5 -31t87.5 -58t74 -89.5t51 -127t19 -169.5q0 -133 -36 -230t-95 -160.5t-135 -94.5t-157 -31q-61 0 -107.5 15.5t-79.5 37t-52 43.5t-27 35h-3l-33 -106h-117v1322q-32 8 -64 12t-65 4q-147 0 -224.5 -69t-77.5 -211v-108
h283v-133h-283v-817h-155v817h-167v133h167v111q0 112 37.5 190t99 127.5t141.5 72t165 22.5q44 0 86 -4t81 -10t72.5 -14t58.5 -16v-568zM1463 479q0 113 -27 183.5t-68 110.5t-89.5 54.5t-92.5 14.5q-72 0 -135.5 -30t-112.5 -78v-497q14 -19 36.5 -41.5t53.5 -42
t69.5 -33t84.5 -13.5q69 0 121.5 27t88 76.5t53.5 118t18 150.5z" />
    <glyph glyph-name="f_f_b.liga" unicode="ffb" horiz-adv-x="2306" 
d="M352 817v-817h-155v817h-167v133h167v149q0 99 27.5 169.5t74.5 116t110.5 67t136.5 21.5q35 0 69.5 -4t56.5 -9v-131q-31 5 -57.5 7t-46.5 2q-51 0 -91.5 -13t-68 -41.5t-42 -75t-14.5 -112.5v-146h431v111q0 112 37.5 190t99 127.5t141.5 72t165 22.5q44 0 86 -4
t81 -10t72.5 -14t58.5 -16v-568h3q51 54 119 84t155 30q40 0 86.5 -9t92 -31t87.5 -58t74 -89.5t51 -127t19 -169.5q0 -133 -36 -230t-95 -160.5t-135 -94.5t-157 -31q-61 0 -107.5 15.5t-79.5 37.5t-52 43.5t-27 34.5h-3l-33 -106h-117v1322q-32 8 -64 12t-63 4
q-149 0 -226.5 -69t-77.5 -211v-108h283v-133h-283v-817h-155v817h-431zM2049 479q0 113 -27 183.5t-68 110.5t-89.5 54.5t-92.5 14.5q-72 0 -135.5 -30t-112.5 -78v-497q14 -19 36.5 -41.5t53.5 -42t69.5 -33t84.5 -13.5q69 0 121.5 27t88 76.5t53.5 118t18 150.5z" />
    <glyph glyph-name="uniFB00" unicode="ff" horiz-adv-x="1237" 
d="M546 1473q35 0 69.5 -4t56.5 -9v-131q-32 5 -58 7t-46 2q-51 0 -91.5 -13t-68 -41.5t-42 -75t-14.5 -112.5v-146h431v149q0 99 27.5 169.5t75.5 116t113 67t140 21.5q48 0 88.5 -5t59.5 -11v-131q-30 6 -66 9t-62 3q-52 0 -93.5 -13t-69.5 -41.5t-43 -75t-15 -112.5v-146
h283v-133h-283v-817h-155v817h-431v-817h-155v817h-167v133h167v149q0 99 27.5 169.5t74.5 116t110.5 67t136.5 21.5z" />
    <glyph glyph-name="f_h.liga" unicode="fh" horiz-adv-x="1713" 
d="M938 820h3q26 33 58 61.5t71 49t84 32.5t97 12q54 0 107.5 -14t100 -51.5t75.5 -104.5t29 -169v-636h-155v611q0 115 -43.5 173t-142.5 58q-82 0 -156 -44.5t-128 -122.5v-675h-155v1322q-32 8 -64 12t-63 4q-149 0 -226.5 -69.5t-77.5 -213.5v-105h283v-133h-283v-817
h-155v817h-167v133h167v111q0 112 37.5 190t99 127.5t141.5 72t165 22.5q44 0 87 -4t81 -10t71.5 -14t58.5 -16v-609z" />
    <glyph glyph-name="f_f_h.liga" unicode="ffh" horiz-adv-x="2299" 
d="M1524 820h3q26 33 58 61.5t71 49t84 32.5t97 12t107 -14t100.5 -51.5t75 -103.5t29.5 -170v-636h-155v611q0 115 -43.5 173t-142.5 58q-82 0 -156 -44.5t-128 -122.5v-675h-155v1322q-32 8 -64 12t-67 4q-145 0 -222.5 -69t-77.5 -211v-108h283v-133h-283v-817h-155v817
h-431v-817h-155v817h-167v133h167v149q0 99 27.5 169.5t74.5 116t110.5 67t136.5 21.5q35 0 69.5 -4t56.5 -9v-131q-32 5 -58 7t-46 2q-51 0 -91.5 -13t-68 -41.5t-42 -75t-14.5 -112.5v-146h431v111q0 112 37.5 190t99 127.5t141.5 72t165 22.5q44 0 86 -4t80.5 -10
t72.5 -14t59 -16v-609z" />
    <glyph glyph-name="uniFB01" unicode="fi" horiz-adv-x="1098" 
d="M352 817v-817h-155v817h-167v133h167v111q0 113 37.5 191.5t99 127.5t140.5 71t162 22q30 0 62.5 -2.5t64 -7t60.5 -10.5t51 -13v-132q-57 14 -109 22t-111 8q-147 0 -224.5 -69t-77.5 -211v-108h586v-950h-155v817h-431z" />
    <glyph glyph-name="uniFB03" unicode="ffi" horiz-adv-x="1684" 
d="M938 817v-817h-155v817h-431v-817h-155v817h-167v133h167v149q0 99 27.5 169.5t74.5 116t110.5 67t136.5 21.5q35 0 69.5 -4t56.5 -9v-131q-32 5 -58 7t-46 2q-51 0 -91.5 -13t-68 -41.5t-42 -75t-14.5 -112.5v-146h431v111q0 113 37.5 191.5t99 127.5t140.5 71t162 22
q30 0 62.5 -2.5t64 -7t60.5 -10.5t51 -13v-132q-57 14 -109.5 22t-108.5 8q-149 0 -226.5 -69t-77.5 -211v-108h586v-950h-155v817h-431z" />
    <glyph glyph-name="f_j.liga" unicode="fj" horiz-adv-x="1098" 
d="M938 -212q0 -131 -75 -204.5t-238 -73.5q-41 0 -81.5 6.5t-59.5 13.5v132q28 -8 59 -12.5t63 -4.5q95 0 136 39t41 122v1011h-431v-817h-155v817h-167v133h167v111q0 113 37.5 191.5t99 127.5t140.5 71t162 22q30 0 62.5 -2.5t64 -7t60.5 -10.5t51 -13v-132
q-57 14 -110 22t-108 8q-149 0 -226.5 -69t-77.5 -211v-108h586v-1162z" />
    <glyph glyph-name="f_f_j.liga" unicode="ffj" horiz-adv-x="1684" 
d="M1524 -212q0 -131 -75 -204.5t-238 -73.5q-42 0 -82 6.5t-59 13.5v132q30 -8 59.5 -12.5t62.5 -4.5q95 0 136 39t41 122v1011h-431v-817h-155v817h-431v-817h-155v817h-167v133h167v149q0 99 27.5 169.5t74.5 116t110.5 67t136.5 21.5q35 0 69.5 -4t56.5 -9v-131
q-32 5 -58 7t-46 2q-51 0 -91.5 -13t-68 -41.5t-42 -75t-14.5 -112.5v-146h431v111q0 113 37.5 191.5t99 127.5t140.5 71t162 22q30 0 62.5 -2.5t64 -7t60.5 -10.5t51 -13v-132q-57 14 -111 22t-107 8q-149 0 -226.5 -69t-77.5 -211v-108h586v-1162z" />
    <glyph glyph-name="f_k.liga" unicode="fk" horiz-adv-x="1620" 
d="M783 1322q-32 8 -64 12t-63 4q-149 0 -226.5 -69t-77.5 -211v-108h283v-133h-283v-817h-155v817h-167v133h167v111q0 112 37.5 190t99 127.5t141.5 72t165 22.5q44 0 86 -4t81 -10t72.5 -14t58.5 -16v-903h2l448 424h202l-464 -437l463 -513h-193l-456 506h-2v-506h-155
v1322z" />
    <glyph glyph-name="f_f_k.liga" unicode="ffk" horiz-adv-x="2206" 
d="M1369 1322q-32 8 -64 12t-63 4q-149 0 -226.5 -69t-77.5 -211v-108h283v-133h-283v-817h-155v817h-431v-817h-155v817h-167v133h167v149q0 99 27.5 169.5t74.5 116t110.5 67t136.5 21.5q35 0 69.5 -4t56.5 -9v-131q-32 5 -58 7t-46 2q-51 0 -91.5 -13t-68 -41.5t-42 -75
t-14.5 -112.5v-146h431v111q0 112 37.5 190t99 127.5t141.5 72t165 22.5q44 0 86 -4t81 -10t72.5 -14t58.5 -16v-903h2l448 424h202l-464 -437l463 -513h-193l-456 506h-2v-506h-155v1322z" />
    <glyph glyph-name="uniFB02" unicode="fl" horiz-adv-x="1098" 
d="M635 817h-283v-817h-155v817h-167v133h167v111q0 112 37.5 190t99 127.5t141.5 72t165 22.5q44 0 86 -4t81 -10t72.5 -14t58.5 -16v-1429h-155v1322q-32 8 -64 12t-63 4q-149 0 -226.5 -69t-77.5 -211v-108h283v-133z" />
    <glyph glyph-name="uniFB04" unicode="ffl" horiz-adv-x="1684" 
d="M1221 817h-283v-817h-155v817h-431v-817h-155v817h-167v133h167v149q0 99 27.5 169.5t74.5 116t110.5 67t136.5 21.5q35 0 69.5 -4t56.5 -9v-131q-31 5 -57.5 7t-46.5 2q-51 0 -91.5 -13t-68 -41.5t-42 -75t-14.5 -112.5v-146h431v111q0 112 37.5 190t99 127.5t141.5 72
t165 22.5q44 0 86 -4t81 -10t72.5 -14t58.5 -16v-1429h-155v1325q-32 6 -64 9.5t-63 3.5q-149 0 -226.5 -69t-77.5 -211v-108h283v-133z" />
    <glyph glyph-name=".notdef" horiz-adv-x="948" 
d="M948 1338v-1338h-948v1338h948zM855 91v1156h-762v-1156h762zM363 224v125h122v-125h-122zM715 896q0 -35 -9.5 -62t-25 -49.5t-35.5 -41t-42 -35.5l-48 -38.5t-43 -42t-31 -51t-12 -65.5v-11h-88q-1 7 -1.5 15t-0.5 13q0 50 15 85.5t37.5 62t50.5 47.5l53 41
q32 25 54 54t22 73q0 57 -44.5 88.5t-117.5 31.5q-50 0 -96 -12t-82 -28v84q35 19 84 30.5t98 11.5q61 0 109.5 -14.5t82.5 -41t52 -63.5t18 -82z" />
    <glyph glyph-name="glyph1" horiz-adv-x="0" 
 />
    <glyph glyph-name="glyph1" horiz-adv-x="0" 
 />
    <glyph glyph-name="uni000D" unicode="&#xd;" horiz-adv-x="410" 
 />
    <glyph glyph-name="space" unicode=" " horiz-adv-x="410" 
 />
    <glyph glyph-name="space" unicode="&#xa0;" horiz-adv-x="410" 
 />
    <glyph glyph-name="A" unicode="A" horiz-adv-x="1301" 
d="M35 0l545 1338h141l545 -1338h-177l-160 403h-559l-160 -403h-175zM649 1130q-89 -250 -171 -454l-50 -126h443l-50 126q-82 208 -168 454h-4z" />
    <glyph glyph-name="B" unicode="B" horiz-adv-x="1215" 
d="M830 692q62 -9 111.5 -33t85 -61.5t54.5 -89t19 -117.5q0 -47 -14 -98.5t-46.5 -100t-85 -89.5t-130.5 -67q-60 -20 -133 -28t-175 -8h-346v1338h334q46 0 83.5 -1.5t69 -4.5t58.5 -7.5t51 -10.5q63 -17 114.5 -46.5t87.5 -70.5t55.5 -93t19.5 -113q0 -49 -11.5 -94
t-37 -83t-66 -68t-98.5 -50v-4zM581 759q48 0 83 4.5t63 13.5q75 25 109.5 78t34.5 125q0 74 -36 121t-113 70q-38 11 -88 15.5t-118 4.5h-183v-432h248zM333 612v-465h197q70 0 130 6.5t102 20.5q46 15 78 38.5t51.5 52t28 60.5t8.5 65q0 38 -9 71.5t-29.5 60t-54 46.5
t-83.5 31q-30 7 -68.5 10t-95.5 3h-255z" />
    <glyph glyph-name="C" unicode="C" horiz-adv-x="1207" 
d="M820 1218q-111 0 -207.5 -35.5t-167.5 -106t-112 -175t-41 -243.5q0 -138 38 -239.5t108 -168t168.5 -98.5t219.5 -32q33 0 70 3.5t74.5 10t73 15t63.5 18.5v-144q-59 -23 -137 -35.5t-160 -12.5q-167 0 -296 46.5t-216.5 133.5t-132.5 212.5t-45 284.5q0 156 47.5 287
t137 225t217 146.5t286.5 52.5q42 0 83 -3.5t78.5 -10t69.5 -15.5t55 -19v-144q-60 20 -131 33.5t-143 13.5z" />
    <glyph glyph-name="D" unicode="D" horiz-adv-x="1374" 
d="M1254 675q0 -117 -29 -220t-87.5 -185.5t-146 -142.5t-204.5 -93q-67 -19 -145 -26.5t-169 -7.5h-303v1338h306q91 0 169 -7.5t145 -26.5q117 -33 204.5 -92t145 -139.5t86 -181t28.5 -216.5zM1082 675q0 193 -84 313t-241 170q-60 19 -134 26t-167 7h-123v-1044h123
q93 0 167 7t134 26q157 50 241 175t84 320z" />
    <glyph glyph-name="E" unicode="E" horiz-adv-x="1129" 
d="M333 147h686v-147h-849v1338h812v-147h-649v-432h577v-147h-577v-465z" />
    <glyph glyph-name="F" unicode="F" horiz-adv-x="1033" 
d="M333 0h-163v1338h798v-147h-635v-432h563v-147h-563v-612z" />
    <glyph glyph-name="G" unicode="G" horiz-adv-x="1368" 
d="M1045 541h-305v147h468v-647q-21 -11 -61.5 -22.5t-92.5 -21.5t-111.5 -16t-117.5 -6q-172 0 -303.5 47t-220.5 133t-135 209t-46 274q0 164 53.5 298t151 229t233 146.5t298.5 51.5q44 0 88 -3.5t84 -10t74 -15.5t57 -19v-144q-60 20 -138 33.5t-156 13.5
q-114 0 -217.5 -34.5t-182.5 -104.5t-126 -175.5t-47 -247.5q0 -139 38.5 -240t109 -167t171 -97.5t223.5 -31.5q57 0 112.5 6t98.5 17v398z" />
    <glyph glyph-name="H" unicode="H" horiz-adv-x="1367" 
d="M333 759h701v579h163v-1338h-163v612h-701v-612h-163v1338h163v-579z" />
    <glyph glyph-name="I" unicode="I" horiz-adv-x="503" 
d="M170 0v1338h163v-1338h-163z" />
    <glyph glyph-name="J" unicode="J" horiz-adv-x="767" 
d="M439 1338h163v-1031q0 -83 -25 -145t-71.5 -103.5t-111.5 -62.5t-146 -21q-69 1 -116.5 11.5t-71.5 21.5v144q37 -15 80.5 -23.5t93.5 -8.5q45 0 83 10t65 34t42 64t15 99v1011z" />
    <glyph glyph-name="K" unicode="K" horiz-adv-x="1239" 
d="M170 0v1338h163v-661h2l615 661h201l-624 -666l672 -672h-212l-652 655h-2v-655h-163z" />
    <glyph glyph-name="L" unicode="L" horiz-adv-x="1066" 
d="M333 1338v-1191h653v-147h-816v1338h163z" />
    <glyph glyph-name="M" unicode="M" horiz-adv-x="1683" 
d="M879 0h-75l-337 799q-70 165 -140 359h-8q14 -279 14 -511v-647h-163v1338h235l315 -757q54 -130 119 -313h5q72 203 119 313l315 757h235v-1338h-163v647q0 227 14 511h-8q-74 -205 -140 -359z" />
    <glyph glyph-name="N" unicode="N" horiz-adv-x="1426" 
d="M857 592l243 -364h6q-13 195 -13 398v712h163v-1338h-162l-525 746q-136 195 -243 364h-6q13 -183 13 -427v-683h-163v1338h162z" />
    <glyph glyph-name="O" unicode="O" horiz-adv-x="1496" 
d="M1204 668q0 135 -35 238t-96.5 172t-145 104.5t-179.5 35.5t-179.5 -35.5t-145 -104.5t-96.5 -172t-35 -238t35.5 -237.5t97 -171.5t145 -104t180.5 -35q96 0 178.5 35t144 104t96.5 171.5t35 237.5zM1376 668q0 -152 -44 -279t-126 -219t-197.5 -143.5t-258.5 -51.5
q-148 0 -265 51.5t-198 143.5t-124 219t-43 279q0 153 44.5 280.5t126 219.5t197.5 143.5t260 51.5q147 0 263.5 -51.5t197.5 -143.5t124 -219.5t43 -280.5z" />
    <glyph glyph-name="P" unicode="P" horiz-adv-x="1168" 
d="M333 0h-163v1338h371q83 0 153.5 -10t129.5 -31q120 -43 182 -128.5t62 -210.5q0 -102 -40.5 -179.5t-117.5 -129.5t-187.5 -78.5t-250.5 -26.5q-67 0 -139 6v-550zM333 699q33 -4 69 -6t68 -2q115 0 196 18t132 52.5t74 84t23 112.5q0 78 -37.5 128t-106.5 76
q-43 16 -99 22.5t-130 6.5h-189v-492z" />
    <glyph glyph-name="Q" unicode="Q" horiz-adv-x="1514" 
d="M1204 668q0 135 -35 238t-96.5 172t-145 104.5t-179.5 35.5t-179.5 -35.5t-145 -104.5t-96.5 -172t-35 -238t35.5 -237.5t97 -171.5t145 -104t180.5 -35q96 0 178.5 35t144 104t96.5 171.5t35 237.5zM1376 682q0 -96 -20 -182t-57 -158.5t-88.5 -129.5t-113.5 -96v-4
q83 13 157 20t150 5v-147l-102 6.5t-127 3.5q-54 0 -109 -3t-109 -7t-106 -7t-99 -3q-149 0 -266.5 50t-198.5 140.5t-124 217.5t-43 280t44.5 280.5t126 219.5t197.5 143.5t260 51.5q147 0 263.5 -51.5t197.5 -142.5t124 -216t43 -271z" />
    <glyph glyph-name="R" unicode="R" horiz-adv-x="1212" 
d="M333 554v-554h-163v1338h347q88 0 149.5 -6.5t112.5 -20.5q140 -38 214 -129.5t74 -228.5q0 -81 -26 -145t-73 -111t-112.5 -77t-145.5 -44v-4l437 -572h-205l-412 554h-197zM333 1191v-490h161q75 0 128 5t95 18q85 26 131 83t46 149q-1 86 -44 138.5t-119 75.5
q-36 11 -86 16t-127 5h-185z" />
    <glyph glyph-name="S" unicode="S" horiz-adv-x="1130" 
d="M294 984q0 -59 24 -97.5t64.5 -63.5t94 -41t111.5 -30q78 -19 153.5 -42t134.5 -63.5t95.5 -105.5t36.5 -167q0 -104 -38.5 -179.5t-107 -124t-163.5 -72t-208 -23.5q-52 0 -106.5 6.5t-104 17.5t-89.5 25t-63 28v149q36 -18 81 -33t93 -25.5t97 -16.5t92 -6
q70 0 133.5 12t111.5 40t76 76.5t28 121.5q0 60 -24.5 99t-65.5 64.5t-94.5 41.5t-112.5 30q-78 18 -152.5 40.5t-133 62.5t-94 103t-35.5 161q0 102 36 175.5t98 121.5t145 71t177 23q107 0 199.5 -20.5t169.5 -53.5v-151q-83 35 -171.5 57t-189.5 23q-76 0 -132 -16.5
t-93 -47t-55 -74t-18 -96.5z" />
    <glyph glyph-name="T" unicode="T" horiz-adv-x="1137" 
d="M650 0h-163v1191h-447v147h1057v-147h-447v-1191z" />
    <glyph glyph-name="U" unicode="U" horiz-adv-x="1374" 
d="M687 120q73 0 129.5 17t98.5 48t70 74.5t43 96.5q10 33 14 73.5t4 78.5v830h163v-826q0 -47 -5 -98t-16 -95q-19 -74 -57 -137t-99 -109t-146.5 -72t-200.5 -26q-110 0 -193 24t-142.5 66.5t-97.5 101t-59 127.5q-15 50 -21.5 107t-6.5 111v826h163v-830q0 -45 6.5 -92.5
t20.5 -86.5q35 -97 116.5 -153t215.5 -56z" />
    <glyph glyph-name="V" unicode="V" horiz-adv-x="1243" 
d="M624 208q72 219 155 442l255 688h169l-510 -1338h-143l-510 1338h169l255 -688q84 -223 156 -442h4z" />
    <glyph glyph-name="W" unicode="W" horiz-adv-x="1806" 
d="M901 1117q-16 -92 -75 -322l-208 -795h-166l-412 1338h171l226 -785q54 -189 92 -340h4q20 93 43.5 181l41.5 157l204 787h162l204 -787q75 -284 85 -338h4q34 140 92 340l226 785h171l-412 -1338h-166l-208 795q-57 222 -75 322h-4z" />
    <glyph glyph-name="X" unicode="X" horiz-adv-x="1196" 
d="M604 796l370 542h181l-454 -659l475 -679h-183l-392 567h-4l-392 -567h-185l479 683l-450 655h179l372 -542h4z" />
    <glyph glyph-name="Y" unicode="Y" horiz-adv-x="1217" 
d="M690 538v-538h-163v538l-487 800h178l388 -650h5l388 650h178z" />
    <glyph glyph-name="Z" unicode="Z" horiz-adv-x="1199" 
d="M1090 1338v-102l-776 -1089h785v-147h-999v102l778 1089h-760v147h972z" />
    <glyph glyph-name="Agrave" unicode="&#xc0;" horiz-adv-x="1301" 
d="M35 0l545 1338h141l545 -1338h-177l-160 403h-559l-160 -403h-175zM649 1130q-89 -250 -171 -454l-50 -126h443l-50 126q-82 208 -168 454h-4zM569 1656l146 -247h-139l-181 247h174zM244 1338z" />
    <glyph glyph-name="Aacute" unicode="&#xc1;" horiz-adv-x="1301" 
d="M35 0l545 1338h141l545 -1338h-177l-160 403h-559l-160 -403h-175zM649 1130q-89 -250 -171 -454l-50 -126h443l-50 126q-82 208 -168 454h-4zM911 1656l-181 -247h-139l146 247h174zM441 1338z" />
    <glyph glyph-name="Acircumflex" unicode="&#xc2;" horiz-adv-x="1301" 
d="M35 0l545 1338h141l545 -1338h-177l-160 403h-559l-160 -403h-175zM649 1130q-89 -250 -171 -454l-50 -126h443l-50 126q-82 208 -168 454h-4zM731 1656l216 -247h-158l-137 151h-4l-136 -151h-158l216 247h161zM301 1338z" />
    <glyph glyph-name="Atilde" unicode="&#xc3;" horiz-adv-x="1301" 
d="M35 0l545 1338h141l545 -1338h-177l-160 403h-559l-160 -403h-175zM649 1130q-89 -250 -171 -454l-50 -126h443l-50 126q-82 208 -168 454h-4zM505 1641q41 0 80 -14.5t72 -32l62.5 -32t55.5 -14.5q34 0 47.5 23t13.5 62h125v-22q0 -33 -7 -66.5t-27.5 -62t-54 -45
t-81.5 -16.5q-41 0 -80 14.5t-72 32l-62.5 32t-55.5 14.5q-34 0 -47.5 -23t-13.5 -62h-125v14q-1 35 6.5 72t28 65.5t54 44.5t81.5 16zM298 1338z" />
    <glyph glyph-name="Adieresis" unicode="&#xc4;" horiz-adv-x="1301" 
d="M35 0l545 1338h141l545 -1338h-177l-160 403h-559l-160 -403h-175zM649 1130q-89 -250 -171 -454l-50 -126h443l-50 126q-82 208 -168 454h-4zM379 1448v169h161v-169h-161zM762 1448v169h161v-169h-161zM301 1338z" />
    <glyph glyph-name="Amacron" unicode="&#x100;" horiz-adv-x="1301" 
d="M35 0l545 1338h141l545 -1338h-177l-160 403h-559l-160 -403h-175zM649 1130q-89 -250 -171 -454l-50 -126h443l-50 126q-82 208 -168 454h-4zM379 1581h540v-133h-540v133zM299 1338z" />
    <glyph glyph-name="Abreve" unicode="&#x102;" horiz-adv-x="1301" 
d="M35 0l545 1338h141l545 -1338h-177l-160 403h-559l-160 -403h-175zM649 1130q-89 -250 -171 -454l-50 -126h443l-50 126q-82 208 -168 454h-4zM648 1530q28 0 56.5 7.5t52.5 24.5t41 43.5t23 64.5h133q-7 -64 -33 -112.5t-66.5 -81.5t-93.5 -50t-113 -17t-113 17
t-93.5 50t-66.5 81.5t-33 112.5h133q6 -38 23 -64.5t41 -43.5t52.5 -24.5t56.5 -7.5zM301 1338z" />
    <glyph glyph-name="Aring" unicode="&#xc5;" horiz-adv-x="1301" 
d="M35 0l545 1338h141l545 -1338h-177l-160 403h-559l-160 -403h-175zM649 1130q-89 -250 -171 -454l-50 -126h443l-50 126q-82 208 -168 454h-4zM649 1376q-48 0 -90 12.5t-72.5 36.5t-48.5 59t-18 79t18 79t48.5 59t72.5 36.5t90 12.5t90 -12.5t72.5 -36.5t48.5 -59
t18 -79t-18 -79t-48.5 -59t-72.5 -36.5t-90 -12.5zM649 1652q-45 0 -75.5 -22.5t-30.5 -66.5t30.5 -66.5t75.5 -22.5t75.5 22.5t30.5 66.5t-30.5 66.5t-75.5 22.5zM299 1338z" />
    <glyph glyph-name="Aringacute" unicode="&#x1fa;" horiz-adv-x="1301" 
d="M918 1943l-189 -199h-127l136 199h180zM646 1363q-48 0 -90 11.5t-72.5 34t-48.5 55.5t-18 76t18 76t48.5 55.5t72.5 34t90 11.5t90 -11.5t72.5 -34t48.5 -55.5t18 -76t-18 -76t-48.5 -55.5t-72.5 -34t-90 -11.5zM646 1619q-44 0 -75 -19t-31 -60t31 -60t75 -19t75 19
t31 60t-31 60t-75 19zM35 0l545 1338h141l545 -1338h-177l-160 403h-559l-160 -403h-175zM649 1130q-89 -250 -171 -454l-50 -126h443l-50 126q-82 208 -168 454h-4z" />
    <glyph glyph-name="Aogonek" unicode="&#x104;" horiz-adv-x="1301" 
d="M1266 0q-29 -18 -67 -46.5t-72.5 -63.5t-58 -74.5t-23.5 -83.5q0 -35 23.5 -61t74.5 -26q26 0 56 5.5t67 17.5v-128q-29 -13 -69.5 -21.5t-81.5 -8.5q-53 0 -93 15t-66.5 40t-40 58.5t-13.5 73.5q0 85 51 162.5t136 140.5l-160 403h-559l-160 -403h-175l545 1338h141z
M649 1130q-89 -250 -171 -454l-50 -126h443l-50 126q-82 208 -168 454h-4z" />
    <glyph glyph-name="AE" unicode="&#xc6;" horiz-adv-x="1814" 
d="M1120 147h614v-147h-752l-52 401h-514l-211 -401h-175l708 1338h886v-147h-638l56 -432h520v-147h-501zM493 550h418l-80 641h-4z" />
    <glyph glyph-name="AEacute" unicode="&#x1fc;" horiz-adv-x="1814" 
d="M1120 147h614v-147h-752l-52 401h-514l-211 -401h-175l708 1338h886v-147h-638l56 -432h520v-147h-501zM493 550h418l-80 641h-4zM1387 1656l-181 -247h-139l146 247h174zM917 1338z" />
    <glyph glyph-name="Cacute" unicode="&#x106;" horiz-adv-x="1207" 
d="M820 1218q-111 0 -207.5 -35.5t-167.5 -106t-112 -175t-41 -243.5q0 -138 38 -239.5t108 -168t168.5 -98.5t219.5 -32q33 0 70 3.5t74.5 10t73 15t63.5 18.5v-144q-59 -23 -137 -35.5t-160 -12.5q-167 0 -296 46.5t-216.5 133.5t-132.5 212.5t-45 284.5q0 156 47.5 287
t137 225t217 146.5t286.5 52.5q42 0 83 -3.5t78.5 -10t69.5 -15.5t55 -19v-144q-60 20 -131 33.5t-143 13.5zM1056 1656l-181 -247h-139l146 247h174zM586 1338z" />
    <glyph glyph-name="Ccircumflex" unicode="&#x108;" horiz-adv-x="1207" 
d="M820 1218q-111 0 -207.5 -35.5t-167.5 -106t-112 -175t-41 -243.5q0 -138 38 -239.5t108 -168t168.5 -98.5t219.5 -32q33 0 70 3.5t74.5 10t73 15t63.5 18.5v-144q-59 -23 -137 -35.5t-160 -12.5q-167 0 -296 46.5t-216.5 133.5t-132.5 212.5t-45 284.5q0 156 47.5 287
t137 225t217 146.5t286.5 52.5q42 0 83 -3.5t78.5 -10t69.5 -15.5t55 -19v-144q-60 20 -131 33.5t-143 13.5zM849 1656l216 -247h-158l-137 151h-4l-136 -151h-158l216 247h161zM419 1338z" />
    <glyph glyph-name="Ccaron" unicode="&#x10c;" horiz-adv-x="1207" 
d="M820 1218q-111 0 -207.5 -35.5t-167.5 -106t-112 -175t-41 -243.5q0 -138 38 -239.5t108 -168t168.5 -98.5t219.5 -32q33 0 70 3.5t74.5 10t73 15t63.5 18.5v-144q-59 -23 -137 -35.5t-160 -12.5q-167 0 -296 46.5t-216.5 133.5t-132.5 212.5t-45 284.5q0 156 47.5 287
t137 225t217 146.5t286.5 52.5q42 0 83 -3.5t78.5 -10t69.5 -15.5t55 -19v-144q-60 20 -131 33.5t-143 13.5zM698 1410l-216 247h154l138 -153h4l139 153h154l-216 -247h-157zM427 1338z" />
    <glyph glyph-name="Cdotaccent" unicode="&#x10a;" horiz-adv-x="1207" 
d="M820 1218q-111 0 -207.5 -35.5t-167.5 -106t-112 -175t-41 -243.5q0 -138 38 -239.5t108 -168t168.5 -98.5t219.5 -32q33 0 70 3.5t74.5 10t73 15t63.5 18.5v-144q-59 -23 -137 -35.5t-160 -12.5q-167 0 -296 46.5t-216.5 133.5t-132.5 212.5t-45 284.5q0 156 47.5 287
t137 225t217 146.5t286.5 52.5q42 0 83 -3.5t78.5 -10t69.5 -15.5t55 -19v-144q-60 20 -131 33.5t-143 13.5zM659 1448v173h163v-173h-163zM391 1338z" />
    <glyph glyph-name="Ccedilla" unicode="&#xc7;" horiz-adv-x="1207" 
d="M638 -11q-126 22 -223 77t-162.5 139.5t-99 197t-33.5 249.5q0 156 47.5 287t137 225t217 146.5t286.5 52.5q42 0 83 -3.5t78.5 -10t69.5 -15.5t55 -19v-144q-60 20 -131 33.5t-143 13.5q-111 0 -207.5 -35.5t-167.5 -106t-112 -175t-41 -243.5q0 -138 38 -239.5
t108 -168t168.5 -98.5t219.5 -32q33 0 70 3.5t74.5 10t73 15t63.5 18.5v-144q-59 -23 -137 -35.5t-160 -12.5q-14 0 -27 0.5t-27 1.5l-28 -103q40 -6 73.5 -18.5t57.5 -32.5t37 -48.5t13 -65.5q0 -52 -23 -89.5t-61.5 -62t-88.5 -36t-104 -11.5q-43 0 -77.5 5.5t-55.5 13.5
v113q12 -4 27.5 -7t32 -5.5t32 -3.5t27.5 -1q29 0 56.5 3.5t49.5 13t35.5 25t13.5 39.5q0 21 -14 35.5t-39.5 23.5t-62 13.5t-81.5 6.5z" />
    <glyph glyph-name="Dcaron" unicode="&#x10e;" horiz-adv-x="1374" 
d="M1254 675q0 -117 -29 -220t-87.5 -185.5t-146 -142.5t-204.5 -93q-67 -19 -145 -26.5t-169 -7.5h-303v1338h306q91 0 169 -7.5t145 -26.5q117 -33 204.5 -92t145 -139.5t86 -181t28.5 -216.5zM1082 675q0 193 -84 313t-241 170q-60 19 -134 26t-167 7h-123v-1044h123
q93 0 167 7t134 26q157 50 241 175t84 320zM595 1410l-216 247h154l138 -153h4l139 153h154l-216 -247h-157zM324 1338z" />
    <glyph glyph-name="Dcroat" unicode="&#x110;" horiz-adv-x="1404" 
d="M60 759h140v579h306q91 0 169 -7.5t145 -26.5q117 -33 204.5 -92t145 -139.5t86 -181t28.5 -216.5q0 -117 -29 -220t-87.5 -185.5t-146 -142.5t-204.5 -93q-67 -19 -145 -26.5t-169 -7.5h-303v612h-140v147zM1112 675q0 193 -84 313t-241 170q-60 19 -134 26t-167 7h-123
v-432h344v-147h-344v-465h123q93 0 167 7t134 26q157 50 241 175t84 320z" />
    <glyph glyph-name="Egrave" unicode="&#xc8;" horiz-adv-x="1129" 
d="M333 147h686v-147h-849v1338h812v-147h-649v-432h577v-147h-577v-465zM527 1656l146 -247h-139l-181 247h174zM202 1338z" />
    <glyph glyph-name="Eacute" unicode="&#xc9;" horiz-adv-x="1129" 
d="M333 147h686v-147h-849v1338h812v-147h-649v-432h577v-147h-577v-465zM823 1656l-181 -247h-139l146 247h174zM353 1338z" />
    <glyph glyph-name="Ecircumflex" unicode="&#xca;" horiz-adv-x="1129" 
d="M333 147h686v-147h-849v1338h812v-147h-649v-432h577v-147h-577v-465zM657 1656l216 -247h-158l-137 151h-4l-136 -151h-158l216 247h161zM227 1338z" />
    <glyph glyph-name="Ecaron" unicode="&#x11a;" horiz-adv-x="1129" 
d="M333 147h686v-147h-849v1338h812v-147h-649v-432h577v-147h-577v-465zM500 1410l-216 247h154l138 -153h4l139 153h154l-216 -247h-157zM229 1338z" />
    <glyph glyph-name="Edieresis" unicode="&#xcb;" horiz-adv-x="1129" 
d="M333 147h686v-147h-849v1338h812v-147h-649v-432h577v-147h-577v-465zM302 1448v169h161v-169h-161zM685 1448v169h161v-169h-161zM224 1338z" />
    <glyph glyph-name="Emacron" unicode="&#x112;" horiz-adv-x="1129" 
d="M333 147h686v-147h-849v1338h812v-147h-649v-432h577v-147h-577v-465zM309 1581h540v-133h-540v133zM229 1338z" />
    <glyph glyph-name="Ebreve" unicode="&#x114;" horiz-adv-x="1129" 
d="M333 147h686v-147h-849v1338h812v-147h-649v-432h577v-147h-577v-465zM575 1530q28 0 56.5 7.5t52.5 24.5t41 43.5t23 64.5h133q-7 -64 -33 -112.5t-66.5 -81.5t-93.5 -50t-113 -17t-113 17t-93.5 50t-66.5 81.5t-33 112.5h133q6 -38 23 -64.5t41 -43.5t52.5 -24.5
t56.5 -7.5zM228 1338z" />
    <glyph glyph-name="Edotaccent" unicode="&#x116;" horiz-adv-x="1129" 
d="M333 147h686v-147h-849v1338h812v-147h-649v-432h577v-147h-577v-465zM500 1448v173h163v-173h-163zM232 1338z" />
    <glyph glyph-name="Eogonek" unicode="&#x118;" horiz-adv-x="1129" 
d="M654 -313q0 50 18 94.5t48 83t67.5 71.5t76.5 60v4h-694v1338h812v-147h-649v-432h577v-147h-577v-465h686v-147q-37 -27 -76 -59.5t-71.5 -68.5t-53.5 -73t-21 -72q0 -82 91 -82q30 0 62 5.5t69 17.5v-128q-29 -13 -70 -21.5t-90 -8.5q-98 0 -151.5 48t-53.5 129z" />
    <glyph glyph-name="Gcircumflex" unicode="&#x11c;" horiz-adv-x="1368" 
d="M1045 541h-305v147h468v-647q-21 -11 -61.5 -22.5t-92.5 -21.5t-111.5 -16t-117.5 -6q-172 0 -303.5 47t-220.5 133t-135 209t-46 274q0 164 53.5 298t151 229t233 146.5t298.5 51.5q44 0 88 -3.5t84 -10t74 -15.5t57 -19v-144q-60 20 -138 33.5t-156 13.5
q-114 0 -217.5 -34.5t-182.5 -104.5t-126 -175.5t-47 -247.5q0 -139 38.5 -240t109 -167t171 -97.5t223.5 -31.5q57 0 112.5 6t98.5 17v398zM878 1656l216 -247h-158l-137 151h-4l-136 -151h-158l216 247h161zM448 1338z" />
    <glyph glyph-name="Gbreve" unicode="&#x11e;" horiz-adv-x="1368" 
d="M1045 541h-305v147h468v-647q-21 -11 -61.5 -22.5t-92.5 -21.5t-111.5 -16t-117.5 -6q-172 0 -303.5 47t-220.5 133t-135 209t-46 274q0 164 53.5 298t151 229t233 146.5t298.5 51.5q44 0 88 -3.5t84 -10t74 -15.5t57 -19v-144q-60 20 -138 33.5t-156 13.5
q-114 0 -217.5 -34.5t-182.5 -104.5t-126 -175.5t-47 -247.5q0 -139 38.5 -240t109 -167t171 -97.5t223.5 -31.5q57 0 112.5 6t98.5 17v398zM738 1530q28 0 56.5 7.5t52.5 24.5t41 43.5t23 64.5h133q-7 -64 -33 -112.5t-66.5 -81.5t-93.5 -50t-113 -17t-113 17t-93.5 50
t-66.5 81.5t-33 112.5h133q6 -38 23 -64.5t41 -43.5t52.5 -24.5t56.5 -7.5zM391 1338z" />
    <glyph glyph-name="Gdotaccent" unicode="&#x120;" horiz-adv-x="1368" 
d="M1045 541h-305v147h468v-647q-21 -11 -61.5 -22.5t-92.5 -21.5t-111.5 -16t-117.5 -6q-172 0 -303.5 47t-220.5 133t-135 209t-46 274q0 164 53.5 298t151 229t233 146.5t298.5 51.5q44 0 88 -3.5t84 -10t74 -15.5t57 -19v-144q-60 20 -138 33.5t-156 13.5
q-114 0 -217.5 -34.5t-182.5 -104.5t-126 -175.5t-47 -247.5q0 -139 38.5 -240t109 -167t171 -97.5t223.5 -31.5q57 0 112.5 6t98.5 17v398zM693 1448v173h163v-173h-163zM425 1338z" />
    <glyph glyph-name="Gcommaaccent" unicode="&#x122;" horiz-adv-x="1368" 
d="M1045 541h-305v147h468v-647q-21 -11 -61.5 -22.5t-92.5 -21.5t-111.5 -16t-117.5 -6q-172 0 -303.5 47t-220.5 133t-135 209t-46 274q0 164 53.5 298t151 229t233 146.5t298.5 51.5q44 0 88 -3.5t84 -10t74 -15.5t57 -19v-144q-60 20 -138 33.5t-156 13.5
q-114 0 -217.5 -34.5t-182.5 -104.5t-126 -175.5t-47 -247.5q0 -139 38.5 -240t109 -167t171 -97.5t223.5 -31.5q57 0 112.5 6t98.5 17v398zM721 -325q0 39 -23.5 56.5t-60.5 17.5v129q15 1 28 1q93 0 147.5 -42.5t54.5 -123.5q0 -50 -19 -99.5t-60 -103.5h-143q34 47 55 89
t21 76z" />
    <glyph glyph-name="Hcircumflex" unicode="&#x124;" horiz-adv-x="1367" 
d="M333 759h701v579h163v-1338h-163v612h-701v-612h-163v1338h163v-579zM766 1656l216 -247h-158l-137 151h-4l-136 -151h-158l216 247h161zM336 1338z" />
    <glyph glyph-name="Hbar" unicode="&#x126;" horiz-adv-x="1367" 
d="M1337 966h-140v-966h-163v612h-701v-612h-163v966h-140v147h140v225h163v-225h701v225h163v-225h140v-147zM1034 759v207h-701v-207h701z" />
    <glyph glyph-name="Igrave" unicode="&#xcc;" horiz-adv-x="503" 
d="M170 0v1338h163v-1338h-163zM199 1656l146 -247h-139l-181 247h174zM-126 1338z" />
    <glyph glyph-name="Iacute" unicode="&#xcd;" horiz-adv-x="503" 
d="M170 0v1338h163v-1338h-163zM491 1656l-181 -247h-139l146 247h174zM21 1338z" />
    <glyph glyph-name="Icircumflex" unicode="&#xce;" horiz-adv-x="503" 
d="M170 0v1338h163v-1338h-163zM338 1656l216 -247h-158l-137 151h-4l-136 -151h-158l216 247h161zM-92 1338z" />
    <glyph glyph-name="Itilde" unicode="&#x128;" horiz-adv-x="503" 
d="M170 0v1338h163v-1338h-163zM117 1641q41 0 80 -14.5t72 -32l62.5 -32t55.5 -14.5q34 0 47.5 23t13.5 62h125v-22q0 -33 -7 -66.5t-27.5 -62t-54 -45t-81.5 -16.5q-41 0 -80 14.5t-72 32l-62.5 32t-55.5 14.5q-34 0 -47.5 -23t-13.5 -62h-125v14q-1 35 6.5 72t28 65.5
t54 44.5t81.5 16zM-90 1338z" />
    <glyph glyph-name="Idieresis" unicode="&#xcf;" horiz-adv-x="503" 
d="M170 0v1338h163v-1338h-163zM-15 1448v169h161v-169h-161zM368 1448v169h161v-169h-161zM-93 1338z" />
    <glyph glyph-name="Imacron" unicode="&#x12a;" horiz-adv-x="503" 
d="M170 0v1338h163v-1338h-163zM-13 1581h540v-133h-540v133zM-93 1338z" />
    <glyph glyph-name="Ibreve" unicode="&#x12c;" horiz-adv-x="503" 
d="M170 0v1338h163v-1338h-163zM257 1530q28 0 56.5 7.5t52.5 24.5t41 43.5t23 64.5h133q-7 -64 -33 -112.5t-66.5 -81.5t-93.5 -50t-113 -17t-113 17t-93.5 50t-66.5 81.5t-33 112.5h133q6 -38 23 -64.5t41 -43.5t52.5 -24.5t56.5 -7.5zM-90 1338z" />
    <glyph glyph-name="Idotaccent" unicode="&#x130;" horiz-adv-x="503" 
d="M170 0v1338h163v-1338h-163zM178 1448v173h163v-173h-163zM-90 1338z" />
    <glyph glyph-name="Iogonek" unicode="&#x12e;" horiz-adv-x="503" 
d="M170 1338h163v-1338l-61 -56.5t-55.5 -62.5t-40.5 -69t-16 -75q0 -40 23.5 -65.5t74.5 -26.5q26 0 56 5.5t67 17.5v-128q-29 -13 -69.5 -21.5t-81.5 -8.5q-53 0 -93 15t-66.5 42t-40 63t-13.5 78t11 80t31.5 74t48.5 70t62 68v1338z" />
    <glyph glyph-name="IJ" unicode="&#x132;" horiz-adv-x="1195" 
d="M170 0v1338h163v-1338h-163zM867 1338h163v-1031q0 -83 -25 -145t-71.5 -103.5t-111.5 -62.5t-146 -21q-69 1 -116.5 11.5t-71.5 21.5v144q37 -15 80.5 -23.5t93.5 -8.5q45 0 83 10t65 34t42 64t15 99v1011z" />
    <glyph glyph-name="Jcircumflex" unicode="&#x134;" horiz-adv-x="767" 
d="M439 1338h163v-1031q0 -83 -25 -145t-71.5 -103.5t-111.5 -62.5t-146 -21q-69 1 -116.5 11.5t-71.5 21.5v144q37 -15 80.5 -23.5t93.5 -8.5q45 0 83 10t65 34t42 64t15 99v1011zM596 1656l216 -247h-158l-137 151h-4l-136 -151h-158l216 247h161zM166 1338z" />
    <glyph glyph-name="Kcommaaccent" unicode="&#x136;" horiz-adv-x="1239" 
d="M170 0v1338h163v-661h2l615 661h201l-624 -666l672 -672h-212l-652 655h-2v-655h-163zM582 -325q0 39 -23.5 56.5t-60.5 17.5v129q15 1 28 1q93 0 147.5 -42.5t54.5 -123.5q0 -50 -19 -99.5t-60 -103.5h-143q34 47 55 89t21 76z" />
    <glyph glyph-name="Lacute" unicode="&#x139;" horiz-adv-x="1066" 
d="M333 1338v-1191h653v-147h-816v1338h163zM496 1656l-181 -247h-139l146 247h174zM26 1338z" />
    <glyph glyph-name="Lcaron" unicode="&#x13d;" horiz-adv-x="1066" 
d="M668 1143q0 39 -23.5 56.5t-60.5 17.5v129q16 1 31 1q90 0 144.5 -43t54.5 -123q0 -51 -19 -100t-60 -103h-143q32 46 54 87t22 78zM333 1338v-1191h653v-147h-816v1338h163z" />
    <glyph glyph-name="Lcommaaccent" unicode="&#x13b;" horiz-adv-x="1066" 
d="M333 1338v-1191h653v-147h-816v1338h163zM546 -325q0 39 -23.5 56.5t-60.5 17.5v129q15 1 28 1q93 0 147.5 -42.5t54.5 -123.5q0 -50 -19 -99.5t-60 -103.5h-143q34 47 55 89t21 76z" />
    <glyph glyph-name="Lslash" unicode="&#x141;" horiz-adv-x="1066" 
d="M709 758l-376 -151v-460h653v-147h-816v543l-145 -58v151l145 58v644h163v-580l376 151v-151z" />
    <glyph glyph-name="Ldot" unicode="&#x13f;" horiz-adv-x="1066" 
d="M333 1338v-1191h653v-147h-816v1338h163zM570 624v173h163v-173h-163z" />
    <glyph glyph-name="Nacute" unicode="&#x143;" horiz-adv-x="1426" 
d="M857 592l243 -364h6q-13 195 -13 398v712h163v-1338h-162l-525 746q-136 195 -243 364h-6q13 -183 13 -427v-683h-163v1338h162zM961 1656l-181 -247h-139l146 247h174zM491 1338z" />
    <glyph glyph-name="Ncaron" unicode="&#x147;" horiz-adv-x="1426" 
d="M857 592l243 -364h6q-13 195 -13 398v712h163v-1338h-162l-525 746q-136 195 -243 364h-6q13 -183 13 -427v-683h-163v1338h162zM639 1410l-216 247h154l138 -153h4l139 153h154l-216 -247h-157zM368 1338z" />
    <glyph glyph-name="Ntilde" unicode="&#xd1;" horiz-adv-x="1426" 
d="M857 592l243 -364h6q-13 195 -13 398v712h163v-1338h-162l-525 746q-136 195 -243 364h-6q13 -183 13 -427v-683h-163v1338h162zM580 1641q41 0 80 -14.5t72 -32l62.5 -32t55.5 -14.5q34 0 47.5 23t13.5 62h125v-22q0 -33 -7 -66.5t-27.5 -62t-54 -45t-81.5 -16.5
q-41 0 -80 14.5t-72 32l-62.5 32t-55.5 14.5q-34 0 -47.5 -23t-13.5 -62h-125v14q-1 35 6.5 72t28 65.5t54 44.5t81.5 16zM373 1338z" />
    <glyph glyph-name="Ncommaaccent" unicode="&#x145;" horiz-adv-x="1426" 
d="M857 592l243 -364h6q-13 195 -13 398v712h163v-1338h-162l-525 746q-136 195 -243 364h-6q13 -183 13 -427v-683h-163v1338h162zM692 -325q0 39 -23.5 56.5t-60.5 17.5v129q15 1 28 1q93 0 147.5 -42.5t54.5 -123.5q0 -50 -19 -99.5t-60 -103.5h-143q34 47 55 89t21 76z
" />
    <glyph glyph-name="Ograve" unicode="&#xd2;" horiz-adv-x="1496" 
d="M1204 668q0 135 -35 238t-96.5 172t-145 104.5t-179.5 35.5t-179.5 -35.5t-145 -104.5t-96.5 -172t-35 -238t35.5 -237.5t97 -171.5t145 -104t180.5 -35q96 0 178.5 35t144 104t96.5 171.5t35 237.5zM1376 668q0 -152 -44 -279t-126 -219t-197.5 -143.5t-258.5 -51.5
q-148 0 -265 51.5t-198 143.5t-124 219t-43 279q0 153 44.5 280.5t126 219.5t197.5 143.5t260 51.5q147 0 263.5 -51.5t197.5 -143.5t124 -219.5t43 -280.5zM683 1656l146 -247h-139l-181 247h174zM358 1338z" />
    <glyph glyph-name="Oacute" unicode="&#xd3;" horiz-adv-x="1496" 
d="M1204 668q0 135 -35 238t-96.5 172t-145 104.5t-179.5 35.5t-179.5 -35.5t-145 -104.5t-96.5 -172t-35 -238t35.5 -237.5t97 -171.5t145 -104t180.5 -35q96 0 178.5 35t144 104t96.5 171.5t35 237.5zM1376 668q0 -152 -44 -279t-126 -219t-197.5 -143.5t-258.5 -51.5
q-148 0 -265 51.5t-198 143.5t-124 219t-43 279q0 153 44.5 280.5t126 219.5t197.5 143.5t260 51.5q147 0 263.5 -51.5t197.5 -143.5t124 -219.5t43 -280.5zM990 1656l-181 -247h-139l146 247h174zM520 1338z" />
    <glyph glyph-name="Ocircumflex" unicode="&#xd4;" horiz-adv-x="1496" 
d="M1204 668q0 135 -35 238t-96.5 172t-145 104.5t-179.5 35.5t-179.5 -35.5t-145 -104.5t-96.5 -172t-35 -238t35.5 -237.5t97 -171.5t145 -104t180.5 -35q96 0 178.5 35t144 104t96.5 171.5t35 237.5zM1376 668q0 -152 -44 -279t-126 -219t-197.5 -143.5t-258.5 -51.5
q-148 0 -265 51.5t-198 143.5t-124 219t-43 279q0 153 44.5 280.5t126 219.5t197.5 143.5t260 51.5q147 0 263.5 -51.5t197.5 -143.5t124 -219.5t43 -280.5zM831 1656l216 -247h-158l-137 151h-4l-136 -151h-158l216 247h161zM401 1338z" />
    <glyph glyph-name="Otilde" unicode="&#xd5;" horiz-adv-x="1496" 
d="M1204 668q0 135 -35 238t-96.5 172t-145 104.5t-179.5 35.5t-179.5 -35.5t-145 -104.5t-96.5 -172t-35 -238t35.5 -237.5t97 -171.5t145 -104t180.5 -35q96 0 178.5 35t144 104t96.5 171.5t35 237.5zM1376 668q0 -152 -44 -279t-126 -219t-197.5 -143.5t-258.5 -51.5
q-148 0 -265 51.5t-198 143.5t-124 219t-43 279q0 153 44.5 280.5t126 219.5t197.5 143.5t260 51.5q147 0 263.5 -51.5t197.5 -143.5t124 -219.5t43 -280.5zM606 1641q41 0 80 -14.5t72 -32l62.5 -32t55.5 -14.5q34 0 47.5 23t13.5 62h125v-22q0 -33 -7 -66.5t-27.5 -62
t-54 -45t-81.5 -16.5q-41 0 -80 14.5t-72 32l-62.5 32t-55.5 14.5q-34 0 -47.5 -23t-13.5 -62h-125v14q-1 35 6.5 72t28 65.5t54 44.5t81.5 16zM399 1338z" />
    <glyph glyph-name="Odieresis" unicode="&#xd6;" horiz-adv-x="1496" 
d="M1204 668q0 135 -35 238t-96.5 172t-145 104.5t-179.5 35.5t-179.5 -35.5t-145 -104.5t-96.5 -172t-35 -238t35.5 -237.5t97 -171.5t145 -104t180.5 -35q96 0 178.5 35t144 104t96.5 171.5t35 237.5zM1376 668q0 -152 -44 -279t-126 -219t-197.5 -143.5t-258.5 -51.5
q-148 0 -265 51.5t-198 143.5t-124 219t-43 279q0 153 44.5 280.5t126 219.5t197.5 143.5t260 51.5q147 0 263.5 -51.5t197.5 -143.5t124 -219.5t43 -280.5zM476 1448v169h161v-169h-161zM859 1448v169h161v-169h-161zM398 1338z" />
    <glyph glyph-name="Omacron" unicode="&#x14c;" horiz-adv-x="1496" 
d="M1204 668q0 135 -35 238t-96.5 172t-145 104.5t-179.5 35.5t-179.5 -35.5t-145 -104.5t-96.5 -172t-35 -238t35.5 -237.5t97 -171.5t145 -104t180.5 -35q96 0 178.5 35t144 104t96.5 171.5t35 237.5zM1376 668q0 -152 -44 -279t-126 -219t-197.5 -143.5t-258.5 -51.5
q-148 0 -265 51.5t-198 143.5t-124 219t-43 279q0 153 44.5 280.5t126 219.5t197.5 143.5t260 51.5q147 0 263.5 -51.5t197.5 -143.5t124 -219.5t43 -280.5zM478 1581h540v-133h-540v133zM398 1338z" />
    <glyph glyph-name="Obreve" unicode="&#x14e;" horiz-adv-x="1496" 
d="M1204 668q0 135 -35 238t-96.5 172t-145 104.5t-179.5 35.5t-179.5 -35.5t-145 -104.5t-96.5 -172t-35 -238t35.5 -237.5t97 -171.5t145 -104t180.5 -35q96 0 178.5 35t144 104t96.5 171.5t35 237.5zM1376 668q0 -152 -44 -279t-126 -219t-197.5 -143.5t-258.5 -51.5
q-148 0 -265 51.5t-198 143.5t-124 219t-43 279q0 153 44.5 280.5t126 219.5t197.5 143.5t260 51.5q147 0 263.5 -51.5t197.5 -143.5t124 -219.5t43 -280.5zM750 1530q28 0 56.5 7.5t52.5 24.5t41 43.5t23 64.5h133q-7 -64 -33 -112.5t-66.5 -81.5t-93.5 -50t-113 -17
t-113 17t-93.5 50t-66.5 81.5t-33 112.5h133q6 -38 23 -64.5t41 -43.5t52.5 -24.5t56.5 -7.5zM403 1338z" />
    <glyph glyph-name="Ohungarumlaut" unicode="&#x150;" horiz-adv-x="1496" 
d="M1204 668q0 135 -35 238t-96.5 172t-145 104.5t-179.5 35.5t-179.5 -35.5t-145 -104.5t-96.5 -172t-35 -238t35.5 -237.5t97 -171.5t145 -104t180.5 -35q96 0 178.5 35t144 104t96.5 171.5t35 237.5zM1376 668q0 -152 -44 -279t-126 -219t-197.5 -143.5t-258.5 -51.5
q-148 0 -265 51.5t-198 143.5t-124 219t-43 279q0 153 44.5 280.5t126 219.5t197.5 143.5t260 51.5q147 0 263.5 -51.5t197.5 -143.5t124 -219.5t43 -280.5zM838 1656l-171 -247h-139l136 247h174zM1145 1656l-191 -247h-139l156 247h174zM477 1338z" />
    <glyph glyph-name="Oslash" unicode="&#xd8;" horiz-adv-x="1496" 
d="M120 71l130 146q-64 89 -97 203t-33 248q0 153 44.5 280.5t126 219.5t197.5 143.5t260 51.5q121 0 221 -35t178 -100l120 135l109 -95l-130 -147q63 -89 96.5 -203.5t33.5 -249.5q0 -152 -44 -279t-126 -219t-197.5 -143.5t-258.5 -51.5q-123 0 -223.5 35t-178.5 100
l-120 -135zM1204 668q0 99 -19 179.5t-54 144.5l-677 -763q60 -54 135 -81.5t161 -27.5q96 0 178.5 35t144 104t96.5 171.5t35 237.5zM292 668q0 -99 18.5 -179t53.5 -144l677 764q-59 54 -133.5 81.5t-159.5 27.5q-96 0 -179.5 -35.5t-145 -104.5t-96.5 -172t-35 -238z" />
    <glyph glyph-name="Oslashacute" unicode="&#x1fe;" horiz-adv-x="1496" 
d="M120 71l130 146q-64 89 -97 203t-33 248q0 153 44.5 280.5t126 219.5t197.5 143.5t260 51.5q121 0 221 -35t178 -100l120 135l109 -95l-130 -147q63 -89 96.5 -203.5t33.5 -249.5q0 -152 -44 -279t-126 -219t-197.5 -143.5t-258.5 -51.5q-123 0 -223.5 35t-178.5 100
l-120 -135zM1204 668q0 99 -19 179.5t-54 144.5l-677 -763q60 -54 135 -81.5t161 -27.5q96 0 178.5 35t144 104t96.5 171.5t35 237.5zM292 668q0 -99 18.5 -179t53.5 -144l677 764q-59 54 -133.5 81.5t-159.5 27.5q-96 0 -179.5 -35.5t-145 -104.5t-96.5 -172t-35 -238z
M1004 1656l-181 -247h-139l146 247h174zM534 1338z" />
    <glyph glyph-name="OE" unicode="&#x152;" horiz-adv-x="2163" 
d="M1367 147h686v-147h-849v205h-4q-73 -107 -186.5 -168.5t-269.5 -61.5q-144 0 -259.5 51.5t-196.5 143.5t-124.5 219t-43.5 279q0 153 44.5 280.5t126 219.5t196 143.5t254.5 51.5q154 0 271 -61t188 -165h4v201h812v-147h-649v-432h577v-147h-577v-465zM1204 668
q0 135 -35 238t-96.5 172t-145 104.5t-179.5 35.5t-179.5 -35.5t-145 -104.5t-96.5 -172t-35 -238t35.5 -237.5t97 -171.5t145 -104t180.5 -35q96 0 178.5 35t144 104t96.5 171.5t35 237.5z" />
    <glyph glyph-name="Racute" unicode="&#x154;" horiz-adv-x="1212" 
d="M333 554v-554h-163v1338h347q88 0 149.5 -6.5t112.5 -20.5q140 -38 214 -129.5t74 -228.5q0 -81 -26 -145t-73 -111t-112.5 -77t-145.5 -44v-4l437 -572h-205l-412 554h-197zM333 1191v-490h161q75 0 128 5t95 18q85 26 131 83t46 149q-1 86 -44 138.5t-119 75.5
q-36 11 -86 16t-127 5h-185zM778 1656l-181 -247h-139l146 247h174zM308 1338z" />
    <glyph glyph-name="Rcaron" unicode="&#x158;" horiz-adv-x="1212" 
d="M333 554v-554h-163v1338h347q88 0 149.5 -6.5t112.5 -20.5q140 -38 214 -129.5t74 -228.5q0 -81 -26 -145t-73 -111t-112.5 -77t-145.5 -44v-4l437 -572h-205l-412 554h-197zM333 1191v-490h161q75 0 128 5t95 18q85 26 131 83t46 149q-1 86 -44 138.5t-119 75.5
q-36 11 -86 16t-127 5h-185zM485 1410l-216 247h154l138 -153h4l139 153h154l-216 -247h-157zM214 1338z" />
    <glyph glyph-name="Rcommaaccent" unicode="&#x156;" horiz-adv-x="1212" 
d="M333 554v-554h-163v1338h347q88 0 149.5 -6.5t112.5 -20.5q140 -38 214 -129.5t74 -228.5q0 -81 -26 -145t-73 -111t-112.5 -77t-145.5 -44v-4l437 -572h-205l-412 554h-197zM333 1191v-490h161q75 0 128 5t95 18q85 26 131 83t46 149q-1 86 -44 138.5t-119 75.5
q-36 11 -86 16t-127 5h-185zM608 -325q0 39 -23.5 56.5t-60.5 17.5v129q15 1 28 1q93 0 147.5 -42.5t54.5 -123.5q0 -50 -19 -99.5t-60 -103.5h-143q34 47 55 89t21 76z" />
    <glyph glyph-name="Sacute" unicode="&#x15a;" horiz-adv-x="1130" 
d="M294 984q0 -59 24 -97.5t64.5 -63.5t94 -41t111.5 -30q78 -19 153.5 -42t134.5 -63.5t95.5 -105.5t36.5 -167q0 -104 -38.5 -179.5t-107 -124t-163.5 -72t-208 -23.5q-52 0 -106.5 6.5t-104 17.5t-89.5 25t-63 28v149q36 -18 81 -33t93 -25.5t97 -16.5t92 -6
q70 0 133.5 12t111.5 40t76 76.5t28 121.5q0 60 -24.5 99t-65.5 64.5t-94.5 41.5t-112.5 30q-78 18 -152.5 40.5t-133 62.5t-94 103t-35.5 161q0 102 36 175.5t98 121.5t145 71t177 23q107 0 199.5 -20.5t169.5 -53.5v-151q-83 35 -171.5 57t-189.5 23q-76 0 -132 -16.5
t-93 -47t-55 -74t-18 -96.5zM839 1656l-181 -247h-139l146 247h174zM369 1338z" />
    <glyph glyph-name="Scircumflex" unicode="&#x15c;" horiz-adv-x="1130" 
d="M294 984q0 -59 24 -97.5t64.5 -63.5t94 -41t111.5 -30q78 -19 153.5 -42t134.5 -63.5t95.5 -105.5t36.5 -167q0 -104 -38.5 -179.5t-107 -124t-163.5 -72t-208 -23.5q-52 0 -106.5 6.5t-104 17.5t-89.5 25t-63 28v149q36 -18 81 -33t93 -25.5t97 -16.5t92 -6
q70 0 133.5 12t111.5 40t76 76.5t28 121.5q0 60 -24.5 99t-65.5 64.5t-94.5 41.5t-112.5 30q-78 18 -152.5 40.5t-133 62.5t-94 103t-35.5 161q0 102 36 175.5t98 121.5t145 71t177 23q107 0 199.5 -20.5t169.5 -53.5v-151q-83 35 -171.5 57t-189.5 23q-76 0 -132 -16.5
t-93 -47t-55 -74t-18 -96.5zM653 1656l216 -247h-158l-137 151h-4l-136 -151h-158l216 247h161zM223 1338z" />
    <glyph glyph-name="Scaron" unicode="&#x160;" horiz-adv-x="1130" 
d="M294 984q0 -59 24 -97.5t64.5 -63.5t94 -41t111.5 -30q78 -19 153.5 -42t134.5 -63.5t95.5 -105.5t36.5 -167q0 -104 -38.5 -179.5t-107 -124t-163.5 -72t-208 -23.5q-52 0 -106.5 6.5t-104 17.5t-89.5 25t-63 28v149q36 -18 81 -33t93 -25.5t97 -16.5t92 -6
q70 0 133.5 12t111.5 40t76 76.5t28 121.5q0 60 -24.5 99t-65.5 64.5t-94.5 41.5t-112.5 30q-78 18 -152.5 40.5t-133 62.5t-94 103t-35.5 161q0 102 36 175.5t98 121.5t145 71t177 23q107 0 199.5 -20.5t169.5 -53.5v-151q-83 35 -171.5 57t-189.5 23q-76 0 -132 -16.5
t-93 -47t-55 -74t-18 -96.5zM509 1410l-216 247h154l138 -153h4l139 153h154l-216 -247h-157zM238 1338z" />
    <glyph glyph-name="Scedilla" unicode="&#x15e;" horiz-adv-x="1130" 
d="M440 -23q-47 3 -94 10t-89 17.5t-75.5 22.5t-53.5 25v149q36 -18 81 -33t93 -25.5t97 -16.5t92 -6q70 0 133.5 11.5t111.5 40t76 77t28 121.5q0 60 -24.5 99t-65.5 64.5t-94.5 41.5t-112.5 30q-78 18 -152.5 41t-133 62.5t-94 102.5t-35.5 161q0 102 36 175.5t98 121.5
t145 71t177 23q109 0 200.5 -20.5t168.5 -53.5v-151q-83 35 -171.5 57.5t-189.5 22.5q-76 0 -132 -16.5t-93 -47t-55 -74t-18 -96.5q0 -59 24 -97.5t64.5 -63.5t94 -41t111.5 -30q78 -19 153.5 -42t134.5 -63.5t95.5 -105.5t36.5 -167q0 -96 -32.5 -167t-91.5 -120
t-141 -75.5t-181 -33.5l-28 -104q40 -6 73.5 -18.5t57.5 -32.5t37 -48.5t13 -65.5q0 -52 -23 -89.5t-61.5 -62t-88.5 -36t-104 -11.5q-43 0 -77.5 5.5t-55.5 13.5v113q12 -4 27.5 -7t32 -5.5t32 -3.5t27.5 -1q29 0 56.5 3.5t49.5 13t35.5 25t13.5 39.5q0 21 -14 35.5
t-39.5 23.5t-62 13.5t-81.5 6.5z" />
    <glyph glyph-name="Scommaaccent" unicode="&#x218;" horiz-adv-x="1130" 
d="M294 984q0 -59 24 -97.5t64.5 -63.5t94 -41t111.5 -30q78 -19 153.5 -42t134.5 -63.5t95.5 -105.5t36.5 -167q0 -104 -38.5 -179.5t-107 -124t-163.5 -72t-208 -23.5q-52 0 -106.5 6.5t-104 17.5t-89.5 25t-63 28v149q36 -18 81 -33t93 -25.5t97 -16.5t92 -6
q70 0 133.5 12t111.5 40t76 76.5t28 121.5q0 60 -24.5 99t-65.5 64.5t-94.5 41.5t-112.5 30q-78 18 -152.5 40.5t-133 62.5t-94 103t-35.5 161q0 102 36 175.5t98 121.5t145 71t177 23q107 0 199.5 -20.5t169.5 -53.5v-151q-83 35 -171.5 57t-189.5 23q-76 0 -132 -16.5
t-93 -47t-55 -74t-18 -96.5zM504 -325q0 39 -23.5 56.5t-60.5 17.5v129q15 1 28 1q93 0 147.5 -42.5t54.5 -123.5q0 -50 -19 -99.5t-60 -103.5h-143q34 47 55 89t21 76z" />
    <glyph glyph-name="Tcaron" unicode="&#x164;" horiz-adv-x="1137" 
d="M650 0h-163v1191h-447v147h1057v-147h-447v-1191zM485 1410l-216 247h154l138 -153h4l139 153h154l-216 -247h-157zM214 1338z" />
    <glyph glyph-name="Tcommaaccent" unicode="&#x162;" horiz-adv-x="1137" 
d="M650 0h-163v1191h-447v147h1057v-147h-447v-1191zM541 -325q0 39 -23.5 56.5t-60.5 17.5v129q15 1 28 1q93 0 147.5 -42.5t54.5 -123.5q0 -50 -19 -99.5t-60 -103.5h-143q34 47 55 89t21 76z" />
    <glyph glyph-name="Tcommaaccent" unicode="&#x21a;" horiz-adv-x="1137" 
d="M650 0h-163v1191h-447v147h1057v-147h-447v-1191zM541 -325q0 39 -23.5 56.5t-60.5 17.5v129q15 1 28 1q93 0 147.5 -42.5t54.5 -123.5q0 -50 -19 -99.5t-60 -103.5h-143q34 47 55 89t21 76z" />
    <glyph glyph-name="Tbar" unicode="&#x166;" horiz-adv-x="1137" 
d="M250 759h237v432h-447v147h1057v-147h-447v-432h242v-147h-242v-612h-163v612h-237v147z" />
    <glyph glyph-name="Ugrave" unicode="&#xd9;" horiz-adv-x="1374" 
d="M687 120q73 0 129.5 17t98.5 48t70 74.5t43 96.5q10 33 14 73.5t4 78.5v830h163v-826q0 -47 -5 -98t-16 -95q-19 -74 -57 -137t-99 -109t-146.5 -72t-200.5 -26q-110 0 -193 24t-142.5 66.5t-97.5 101t-59 127.5q-15 50 -21.5 107t-6.5 111v826h163v-830q0 -45 6.5 -92.5
t20.5 -86.5q35 -97 116.5 -153t215.5 -56zM618 1656l146 -247h-139l-181 247h174zM293 1338z" />
    <glyph glyph-name="Uacute" unicode="&#xda;" horiz-adv-x="1374" 
d="M687 120q73 0 129.5 17t98.5 48t70 74.5t43 96.5q10 33 14 73.5t4 78.5v830h163v-826q0 -47 -5 -98t-16 -95q-19 -74 -57 -137t-99 -109t-146.5 -72t-200.5 -26q-110 0 -193 24t-142.5 66.5t-97.5 101t-59 127.5q-15 50 -21.5 107t-6.5 111v826h163v-830q0 -45 6.5 -92.5
t20.5 -86.5q35 -97 116.5 -153t215.5 -56zM925 1656l-181 -247h-139l146 247h174zM455 1338z" />
    <glyph glyph-name="Ucircumflex" unicode="&#xdb;" horiz-adv-x="1374" 
d="M687 120q73 0 129.5 17t98.5 48t70 74.5t43 96.5q10 33 14 73.5t4 78.5v830h163v-826q0 -47 -5 -98t-16 -95q-19 -74 -57 -137t-99 -109t-146.5 -72t-200.5 -26q-110 0 -193 24t-142.5 66.5t-97.5 101t-59 127.5q-15 50 -21.5 107t-6.5 111v826h163v-830q0 -45 6.5 -92.5
t20.5 -86.5q35 -97 116.5 -153t215.5 -56zM765 1656l216 -247h-158l-137 151h-4l-136 -151h-158l216 247h161zM335 1338z" />
    <glyph glyph-name="Utilde" unicode="&#x168;" horiz-adv-x="1374" 
d="M687 120q73 0 129.5 17t98.5 48t70 74.5t43 96.5q10 33 14 73.5t4 78.5v830h163v-826q0 -47 -5 -98t-16 -95q-19 -74 -57 -137t-99 -109t-146.5 -72t-200.5 -26q-110 0 -193 24t-142.5 66.5t-97.5 101t-59 127.5q-15 50 -21.5 107t-6.5 111v826h163v-830q0 -45 6.5 -92.5
t20.5 -86.5q35 -97 116.5 -153t215.5 -56zM551 1641q41 0 80 -14.5t72 -32l62.5 -32t55.5 -14.5q34 0 47.5 23t13.5 62h125v-22q0 -33 -7 -66.5t-27.5 -62t-54 -45t-81.5 -16.5q-41 0 -80 14.5t-72 32l-62.5 32t-55.5 14.5q-34 0 -47.5 -23t-13.5 -62h-125v14q-1 35 6.5 72
t28 65.5t54 44.5t81.5 16zM344 1338z" />
    <glyph glyph-name="Udieresis" unicode="&#xdc;" horiz-adv-x="1374" 
d="M687 120q73 0 129.5 17t98.5 48t70 74.5t43 96.5q10 33 14 73.5t4 78.5v830h163v-826q0 -47 -5 -98t-16 -95q-19 -74 -57 -137t-99 -109t-146.5 -72t-200.5 -26q-110 0 -193 24t-142.5 66.5t-97.5 101t-59 127.5q-15 50 -21.5 107t-6.5 111v826h163v-830q0 -45 6.5 -92.5
t20.5 -86.5q35 -97 116.5 -153t215.5 -56zM415 1448v169h161v-169h-161zM798 1448v169h161v-169h-161zM337 1338z" />
    <glyph glyph-name="Umacron" unicode="&#x16a;" horiz-adv-x="1374" 
d="M687 120q73 0 129.5 17t98.5 48t70 74.5t43 96.5q10 33 14 73.5t4 78.5v830h163v-826q0 -47 -5 -98t-16 -95q-19 -74 -57 -137t-99 -109t-146.5 -72t-200.5 -26q-110 0 -193 24t-142.5 66.5t-97.5 101t-59 127.5q-15 50 -21.5 107t-6.5 111v826h163v-830q0 -45 6.5 -92.5
t20.5 -86.5q35 -97 116.5 -153t215.5 -56zM417 1581h540v-133h-540v133zM337 1338z" />
    <glyph glyph-name="Ubreve" unicode="&#x16c;" horiz-adv-x="1374" 
d="M687 120q73 0 129.5 17t98.5 48t70 74.5t43 96.5q10 33 14 73.5t4 78.5v830h163v-826q0 -47 -5 -98t-16 -95q-19 -74 -57 -137t-99 -109t-146.5 -72t-200.5 -26q-110 0 -193 24t-142.5 66.5t-97.5 101t-59 127.5q-15 50 -21.5 107t-6.5 111v826h163v-830q0 -45 6.5 -92.5
t20.5 -86.5q35 -97 116.5 -153t215.5 -56zM684 1530q28 0 56.5 7.5t52.5 24.5t41 43.5t23 64.5h133q-7 -64 -33 -112.5t-66.5 -81.5t-93.5 -50t-113 -17t-113 17t-93.5 50t-66.5 81.5t-33 112.5h133q6 -38 23 -64.5t41 -43.5t52.5 -24.5t56.5 -7.5zM337 1338z" />
    <glyph glyph-name="Uring" unicode="&#x16e;" horiz-adv-x="1374" 
d="M687 120q73 0 129.5 17t98.5 48t70 74.5t43 96.5q10 33 14 73.5t4 78.5v830h163v-826q0 -47 -5 -98t-16 -95q-19 -74 -57 -137t-99 -109t-146.5 -72t-200.5 -26q-110 0 -193 24t-142.5 66.5t-97.5 101t-59 127.5q-15 50 -21.5 107t-6.5 111v826h163v-830q0 -45 6.5 -92.5
t20.5 -86.5q35 -97 116.5 -153t215.5 -56zM686 1376q-48 0 -90 12.5t-72.5 36.5t-48.5 59t-18 79t18 79t48.5 59t72.5 36.5t90 12.5t90 -12.5t72.5 -36.5t48.5 -59t18 -79t-18 -79t-48.5 -59t-72.5 -36.5t-90 -12.5zM686 1652q-45 0 -75.5 -22.5t-30.5 -66.5t30.5 -66.5
t75.5 -22.5t75.5 22.5t30.5 66.5t-30.5 66.5t-75.5 22.5zM336 1338z" />
    <glyph glyph-name="Uhungarumlaut" unicode="&#x170;" horiz-adv-x="1374" 
d="M687 120q73 0 129.5 17t98.5 48t70 74.5t43 96.5q10 33 14 73.5t4 78.5v830h163v-826q0 -47 -5 -98t-16 -95q-19 -74 -57 -137t-99 -109t-146.5 -72t-200.5 -26q-110 0 -193 24t-142.5 66.5t-97.5 101t-59 127.5q-15 50 -21.5 107t-6.5 111v826h163v-830q0 -45 6.5 -92.5
t20.5 -86.5q35 -97 116.5 -153t215.5 -56zM770 1656l-171 -247h-139l136 247h174zM1077 1656l-191 -247h-139l156 247h174zM409 1338z" />
    <glyph glyph-name="Uogonek" unicode="&#x172;" horiz-adv-x="1374" 
d="M785 -12q-20 -4 -53 -8t-63 -4q-104 0 -183.5 23.5t-137.5 66t-96 101t-59 127.5q-15 50 -21.5 107t-6.5 111v826h163v-830q0 -45 6.5 -92.5t20.5 -86.5q35 -96 115.5 -152.5t216.5 -56.5q73 0 129.5 17t98.5 48t70 74.5t43 96.5q10 33 14 73.5t4 78.5v830h163v-848
q0 -70 -11.5 -127.5t-32 -105.5t-49 -87.5t-63.5 -73.5q-48 -46 -97.5 -88t-89 -84.5t-65 -88t-25.5 -98.5q0 -48 27.5 -70t75.5 -22q28 0 59 5.5t68 17.5v-128q-29 -13 -68.5 -21.5t-88.5 -8.5q-48 0 -87.5 11.5t-68 34.5t-44.5 57t-16 80q0 39 11.5 79t32.5 77.5t49 72
t61 61.5z" />
    <glyph glyph-name="Wgrave" unicode="&#x1e80;" horiz-adv-x="1806" 
d="M901 1117q-16 -92 -75 -322l-208 -795h-166l-412 1338h171l226 -785q54 -189 92 -340h4q20 93 43.5 181l41.5 157l204 787h162l204 -787q75 -284 85 -338h4q34 140 92 340l226 785h171l-412 -1338h-166l-208 795q-57 222 -75 322h-4zM833 1656l146 -247h-139l-181 247
h174zM508 1338z" />
    <glyph glyph-name="Wacute" unicode="&#x1e82;" horiz-adv-x="1806" 
d="M901 1117q-16 -92 -75 -322l-208 -795h-166l-412 1338h171l226 -785q54 -189 92 -340h4q20 93 43.5 181l41.5 157l204 787h162l204 -787q75 -284 85 -338h4q34 140 92 340l226 785h171l-412 -1338h-166l-208 795q-57 222 -75 322h-4zM1150 1656l-181 -247h-139l146 247
h174zM680 1338z" />
    <glyph glyph-name="Wcircumflex" unicode="&#x174;" horiz-adv-x="1806" 
d="M901 1117q-16 -92 -75 -322l-208 -795h-166l-412 1338h171l226 -785q54 -189 92 -340h4q20 93 43.5 181l41.5 157l204 787h162l204 -787q75 -284 85 -338h4q34 140 92 340l226 785h171l-412 -1338h-166l-208 795q-57 222 -75 322h-4zM982 1656l216 -247h-158l-137 151h-4
l-136 -151h-158l216 247h161zM552 1338z" />
    <glyph glyph-name="Wdieresis" unicode="&#x1e84;" horiz-adv-x="1806" 
d="M901 1117q-16 -92 -75 -322l-208 -795h-166l-412 1338h171l226 -785q54 -189 92 -340h4q20 93 43.5 181l41.5 157l204 787h162l204 -787q75 -284 85 -338h4q34 140 92 340l226 785h171l-412 -1338h-166l-208 795q-57 222 -75 322h-4zM632 1448v169h161v-169h-161z
M1015 1448v169h161v-169h-161zM554 1338z" />
    <glyph glyph-name="Ygrave" unicode="&#x1ef2;" horiz-adv-x="1217" 
d="M690 538v-538h-163v538l-487 800h178l388 -650h5l388 650h178zM540 1656l146 -247h-139l-181 247h174zM215 1338z" />
    <glyph glyph-name="Yacute" unicode="&#xdd;" horiz-adv-x="1217" 
d="M690 538v-538h-163v538l-487 800h178l388 -650h5l388 650h178zM852 1656l-181 -247h-139l146 247h174zM382 1338z" />
    <glyph glyph-name="Ycircumflex" unicode="&#x176;" horiz-adv-x="1217" 
d="M690 538v-538h-163v538l-487 800h178l388 -650h5l388 650h178zM690 1656l216 -247h-158l-137 151h-4l-136 -151h-158l216 247h161zM260 1338z" />
    <glyph glyph-name="Ydieresis" unicode="&#x178;" horiz-adv-x="1217" 
d="M690 538v-538h-163v538l-487 800h178l388 -650h5l388 650h178zM337 1448v169h161v-169h-161zM720 1448v169h161v-169h-161zM259 1338z" />
    <glyph glyph-name="Zacute" unicode="&#x179;" horiz-adv-x="1199" 
d="M1090 1338v-102l-776 -1089h785v-147h-999v102l778 1089h-760v147h972zM822 1656l-181 -247h-139l146 247h174zM352 1338z" />
    <glyph glyph-name="Zcaron" unicode="&#x17d;" horiz-adv-x="1199" 
d="M1090 1338v-102l-776 -1089h785v-147h-999v102l778 1089h-760v147h972zM509 1410l-216 247h154l138 -153h4l139 153h154l-216 -247h-157zM238 1338z" />
    <glyph glyph-name="Zdotaccent" unicode="&#x17b;" horiz-adv-x="1199" 
d="M1090 1338v-102l-776 -1089h785v-147h-999v102l778 1089h-760v147h972zM507 1448v173h163v-173h-163zM239 1338z" />
    <glyph glyph-name="Eng" unicode="&#x14a;" horiz-adv-x="1426" 
d="M1256 -130q0 -66 -18.5 -118.5t-56.5 -89t-97.5 -56t-140.5 -19.5q-24 0 -47 2t-43 6v138q17 -3 34.5 -5t36.5 -2q95 0 136 37.5t41 120.5v108l-532 754q-136 195 -243 364h-6q13 -183 13 -427v-683h-163v1338h162l525 -746l243 -364h6q-13 195 -13 398v712h163v-1468z
" />
    <glyph glyph-name="Eth" unicode="&#xd0;" horiz-adv-x="1404" 
d="M60 759h140v579h306q91 0 169 -7.5t145 -26.5q117 -33 204.5 -92t145 -139.5t86 -181t28.5 -216.5q0 -117 -29 -220t-87.5 -185.5t-146 -142.5t-204.5 -93q-67 -19 -145 -26.5t-169 -7.5h-303v612h-140v147zM1112 675q0 193 -84 313t-241 170q-60 19 -134 26t-167 7h-123
v-432h344v-147h-344v-465h123q93 0 167 7t134 26q157 50 241 175t84 320z" />
    <glyph glyph-name="Thorn" unicode="&#xde;" horiz-adv-x="1162" 
d="M333 450q33 -4 69 -6t68 -2q115 0 195 15t129.5 45.5t72 77t22.5 109.5q0 78 -37.5 127t-106.5 75q-43 16 -99 22.5t-130 6.5h-183v-470zM526 1067q90 0 161.5 -10t130.5 -31q120 -43 182 -127t62 -210q0 -102 -40 -176.5t-116 -122.5t-185.5 -71.5t-248.5 -23.5
q-67 0 -139 6v-301h-163v1338h163v-271h193z" />
    <glyph glyph-name="a" unicode="a" horiz-adv-x="1003" 
d="M706 105h-4q-19 -24 -48 -47.5t-67 -42t-83 -29.5t-96 -11q-69 0 -126.5 20.5t-99 60t-64.5 96.5t-23 129q0 71 25.5 127t71.5 95t110.5 60t142.5 21q74 -1 137 -13t112 -30h4v66q0 39 -5 69t-17 53q-26 48 -83 79.5t-154 31.5q-72 0 -135.5 -13.5t-126.5 -37.5v130
q24 12 56.5 22.5t68.5 18t76 11.5t80 4q144 0 235.5 -51t131.5 -135q15 -32 21.5 -70.5t6.5 -84.5v-634h-130zM698 417q-43 12 -102 23t-130 12q-99 0 -155 -42t-56 -129q0 -44 14 -77t38.5 -54.5t58 -32t71.5 -10.5q50 0 93 14.5t76.5 34.5t57 40t34.5 31v190z" />
    <glyph glyph-name="b" unicode="b" horiz-adv-x="1097" 
d="M840 479q0 113 -26.5 183.5t-68 110t-88.5 54.5t-94 15q-72 0 -135.5 -30t-112.5 -78v-497q14 -19 36.5 -41.5t53.5 -42t69.5 -33t84.5 -13.5q69 0 121.5 27t88 76.5t53.5 118t18 150.5zM1002 491q0 -133 -36 -230t-95 -160.5t-135 -94.5t-157 -31q-61 0 -107.5 15.5
t-79 37t-52 43.5t-27.5 35h-3l-33 -106h-117v1448h155v-587h3q51 54 119 84t155 30q40 0 86.5 -9t92 -31t87.5 -58t74 -89.5t51 -127t19 -169.5z" />
    <glyph glyph-name="c" unicode="c" horiz-adv-x="898" 
d="M558 975q69 0 132 -14.5t108 -40.5v-129q-63 24 -116 36t-108 12q-58 0 -115 -19t-102 -62.5t-72.5 -115t-27.5 -177.5q0 -77 20.5 -142t61 -112.5t101.5 -74t141 -26.5q58 0 117 12.5t115 35.5v-129q-17 -10 -44.5 -20t-60.5 -17.5t-70 -12t-74 -4.5q-96 0 -181.5 29
t-149.5 89t-101 152t-37 218q0 94 19.5 169t53.5 132t79.5 97t97 65.5t106.5 37t107 11.5z" />
    <glyph glyph-name="d" unicode="d" horiz-adv-x="1097" 
d="M257 465q0 -82 18.5 -148.5t53.5 -113t86 -71.5t117 -25q49 0 89 13t71.5 33t54 42.5t35.5 41.5v497q-48 49 -111 78.5t-136 29.5q-44 0 -92.5 -16.5t-90 -59.5t-68.5 -115.5t-27 -185.5zM95 463q0 99 19.5 175.5t51.5 133.5t75 95.5t89 62.5t93.5 34.5t89.5 10.5
q87 0 151 -29t115 -85h3v587h155v-1448h-117l-32 106h-4q-18 -23 -42 -46.5t-56.5 -42.5t-75 -30.5t-98.5 -11.5q-78 0 -153 26.5t-133.5 85t-94.5 151t-36 225.5z" />
    <glyph glyph-name="e" unicode="e" horiz-adv-x="1019" 
d="M522 842q-53 0 -98.5 -21t-79.5 -57t-55 -84.5t-26 -103.5h480q0 56 -14.5 104.5t-42.5 84.5t-69 56.5t-95 20.5zM607 110q77 0 140.5 12.5t126.5 35.5v-129q-51 -25 -126 -39.5t-161 -14.5q-102 0 -191.5 26t-156.5 84t-105.5 151.5t-38.5 225.5q0 130 36 225.5
t96 159.5t138 96t163 32q80 0 149.5 -26.5t120.5 -83.5t80.5 -147t29.5 -216v-20.5t-1 -38.5h-652q0 -91 27.5 -154.5t75 -103t111.5 -57.5t138 -18z" />
    <glyph glyph-name="f" unicode="f" horiz-adv-x="651" 
d="M701 1326q-30 6 -66 9t-62 3q-52 0 -93.5 -13t-69.5 -41.5t-43 -75t-15 -112.5v-146h283v-133h-283v-817h-155v817h-167v133h167v145q0 103 27.5 173.5t75.5 116t113 67t140 21.5q48 0 88.5 -5t59.5 -11v-131z" />
    <glyph glyph-name="g" unicode="g" horiz-adv-x="1087" 
d="M257 469q0 -112 27 -183t68.5 -110.5t90.5 -54t93 -14.5q72 0 135 29t111 79v497q-13 18 -36 41t-53.5 42.5t-69.5 33t-85 13.5q-69 0 -121.5 -27.5t-88 -76.5t-53.5 -117.5t-18 -151.5zM518 975q62 -1 108 -16t79 -37.5t52.5 -44.5t26.5 -35h4l32 108h117v-1006
q0 -110 -36 -191.5t-101 -135.5t-156.5 -80.5t-202.5 -26.5q-94 0 -168 16.5t-116 39.5v131q34 -14 66 -23.5t66 -16t69.5 -9.5t78.5 -3q167 0 256 78t89 238v127h-3q-51 -56 -118.5 -84.5t-154.5 -28.5q-40 0 -86 9t-92 30.5t-88 57t-74 89t-51.5 126.5t-19.5 169
q0 133 36 230.5t95 161.5t135 95.5t157 31.5z" />
    <glyph glyph-name="h" unicode="h" horiz-adv-x="1090" 
d="M315 820h3q26 33 58 61.5t71 49t84 32.5t97 12q54 0 108 -14.5t100 -51.5t75 -103t29 -170v-636h-155v611q0 115 -43.5 173t-142.5 58q-82 0 -156 -44.5t-128 -122.5v-675h-155v1448h155v-628z" />
    <glyph glyph-name="i" unicode="i" horiz-adv-x="475" 
d="M160 0v950h155v-950h-155zM156 1171v173h163v-173h-163z" />
    <glyph glyph-name="j" unicode="j" horiz-adv-x="494" 
d="M334 -212q0 -131 -75 -204.5t-238 -73.5q-43 0 -82.5 6.5t-58.5 13.5v132q30 -8 60 -12.5t62 -4.5q95 0 136 39t41 122v1144h155v-1162zM175 1171v173h163v-173h-163z" />
    <glyph glyph-name="k" unicode="k" horiz-adv-x="997" 
d="M765 950h202l-464 -437l463 -513h-193l-456 506h-2v-506h-155v1448h155v-922h2z" />
    <glyph glyph-name="l" unicode="l" horiz-adv-x="475" 
d="M160 0v1448h155v-1448h-155z" />
    <glyph glyph-name="m" unicode="m" horiz-adv-x="1697" 
d="M926 0h-155v611q0 62 -13.5 105.5t-39 71.5t-61 41t-79.5 13q-83 0 -151 -44.5t-122 -122.5v-675h-155v950h120l30 -132h3q26 33 56.5 61.5t68 50t82.5 33.5t98 12q106 0 176 -51t108 -139h4q63 89 144 139.5t189 50.5q50 0 106 -14t103 -51.5t78 -103.5t31 -170v-636
h-154v611q0 62 -13.5 105.5t-39 71.5t-61 41t-79.5 13q-83 0 -151.5 -44.5t-122.5 -122.5v-675z" />
    <glyph glyph-name="n" unicode="n" horiz-adv-x="1080" 
d="M300 818h3q26 33 57.5 61.5t70.5 50t85.5 33.5t101.5 12q65 0 122 -18t99 -58t66.5 -104.5t24.5 -158.5v-636h-155v611q0 123 -47.5 177t-138.5 54q-80 0 -155 -44.5t-129 -122.5v-675h-155v950h120z" />
    <glyph glyph-name="o" unicode="o" horiz-adv-x="1092" 
d="M835 474q0 88 -21.5 156.5t-60 116t-91.5 72t-116 24.5t-116 -24.5t-91.5 -72t-60 -116t-21.5 -156.5q0 -87 21.5 -155.5t60.5 -115.5t92 -71.5t116 -24.5t115.5 24.5t91 71.5t60 115.5t21.5 155.5zM997 474q0 -112 -32 -204t-90.5 -157.5t-141.5 -101.5t-186 -36
q-106 0 -189.5 36t-142 101.5t-89.5 157.5t-31 204q0 113 32 205t90.5 158t142 102t186.5 36q105 0 189 -36t142 -102t89 -158t31 -205z" />
    <glyph glyph-name="p" unicode="p" horiz-adv-x="1087" 
d="M830 484q0 83 -17.5 149t-52.5 112.5t-86 71.5t-118 25q-48 0 -87.5 -13t-71.5 -33t-55 -43t-37 -41v-497q49 -50 111.5 -79t134.5 -29q44 0 93 16.5t90.5 59t68.5 115.5t27 186zM992 486q0 -99 -19.5 -175.5t-51.5 -133.5t-75 -95.5t-89 -62t-93.5 -34t-89.5 -10.5
q-87 0 -151 28.5t-115 84.5h-3v-553h-155v1415h117l33 -108h3q13 20 33.5 39t55 40.5t83 37.5t105.5 16q80 0 154.5 -27t131.5 -86t91.5 -151.5t34.5 -224.5z" />
    <glyph glyph-name="q" unicode="q" horiz-adv-x="1072" 
d="M252 469q0 -112 27 -183t68.5 -110.5t90.5 -54t93 -14.5q72 0 135 29t111 79v497q-13 18 -36 41t-53.5 42.5t-69.5 33t-85 13.5q-69 0 -121.5 -27.5t-88 -76.5t-53.5 -117.5t-18 -151.5zM90 456q0 133 36 230.5t95 161.5t135 95.5t157 31.5q62 -1 108 -16t78 -36.5
t50.5 -42t29.5 -38.5h4l32 108h117v-1415h-155v553h-3q-51 -56 -118.5 -84.5t-154.5 -28.5q-40 0 -86 9t-92 30.5t-88 57t-74 89t-51.5 126.5t-19.5 169z" />
    <glyph glyph-name="r" unicode="r" horiz-adv-x="686" 
d="M671 824h-12q-55 0 -108 -10t-99.5 -30.5t-84 -50.5t-62.5 -71v-662h-155v950h120l30 -151h3q23 37 56.5 69t75.5 56t92 37.5t105 13.5q10 0 20.5 -0.5t18.5 -1.5v-149z" />
    <glyph glyph-name="s" unicode="s" horiz-adv-x="828" 
d="M250 697q0 -39 17 -64t45.5 -40.5t66 -25.5t77.5 -18q55 -12 104 -26.5t90.5 -43.5t67 -78.5t25.5 -128.5q0 -72 -28 -127.5t-79 -93t-122 -57t-156 -19.5q-52 0 -94.5 5.5t-75 14t-55.5 17.5t-38 17v130q60 -24 119 -38t130 -14q56 0 101 10t77.5 29.5t50 49t17.5 68.5
q0 40 -16 66t-43 43t-62.5 28t-74.5 20q-51 11 -103.5 26t-95.5 42t-69.5 73.5t-26.5 119.5q0 75 27 130t73 91t107 54t129 18q79 0 146.5 -15t122.5 -38v-132q-60 23 -121.5 37.5t-126.5 15.5q-55 0 -94 -11t-64 -30.5t-36.5 -46t-11.5 -58.5z" />
    <glyph glyph-name="t" unicode="t" horiz-adv-x="711" 
d="M651 -2q-20 -8 -61 -15t-98 -8q-75 0 -130 18.5t-91.5 53t-54.5 83.5t-18 109v578h-183v133h183v260h155v-260h284v-133h-284v-554q0 -33 9.5 -61t30 -48.5t52.5 -32t77 -11.5q31 0 65.5 5t63.5 13v-130z" />
    <glyph glyph-name="u" unicode="u" horiz-adv-x="1060" 
d="M527 -25q-74 0 -133 16t-103.5 45t-75.5 69.5t-49 88.5q-14 36 -20 79t-6 94v583h155v-582q0 -79 21 -132q24 -60 77.5 -94.5t136.5 -34.5q88 0 141.5 38t76.5 102q17 49 17 121v582h155v-584q0 -48 -5.5 -89.5t-17.5 -76.5q-18 -49 -49.5 -90.5t-77.5 -71.5
t-106.5 -46.5t-136.5 -16.5z" />
    <glyph glyph-name="v" unicode="v" horiz-adv-x="946" 
d="M474 157q34 104 92 265l188 528h162l-362 -950h-162l-362 950h160l188 -528q56 -156 92 -265h4z" />
    <glyph glyph-name="w" unicode="w" horiz-adv-x="1458" 
d="M726 793q-31 -131 -58 -226l-156 -567h-159l-313 950h157l176 -592q35 -117 53 -187h4q16 72 53 208l159 571h174l159 -571q32 -116 53 -208h4q24 92 53 187l176 592h157l-313 -950h-161l-156 567q-28 101 -58 226h-4z" />
    <glyph glyph-name="x" unicode="x" horiz-adv-x="932" 
d="M470 584l258 366h171l-347 -470l360 -480h-168l-278 380h-4l-274 -380h-168l360 484l-347 466h171l262 -366h4z" />
    <glyph glyph-name="y" unicode="y" horiz-adv-x="982" 
d="M30 950h159l295 -745h6l299 745h163l-593 -1415h-154l203 484z" />
    <glyph glyph-name="z" unicode="z" horiz-adv-x="910" 
d="M608 813v4h-522v133h719v-98l-528 -715v-4h563v-133h-770v84z" />
    <glyph glyph-name="agrave" unicode="&#xe0;" horiz-adv-x="1003" 
d="M706 105h-4q-19 -24 -48 -47.5t-67 -42t-83 -29.5t-96 -11q-69 0 -126.5 20.5t-99 60t-64.5 96.5t-23 129q0 71 25.5 127t71.5 95t110.5 60t142.5 21q74 -1 137 -13t112 -30h4v66q0 39 -5 69t-17 53q-26 48 -83 79.5t-154 31.5q-72 0 -135.5 -13.5t-126.5 -37.5v130
q24 12 56.5 22.5t68.5 18t76 11.5t80 4q144 0 235.5 -51t131.5 -135q15 -32 21.5 -70.5t6.5 -84.5v-634h-130zM698 417q-43 12 -102 23t-130 12q-99 0 -155 -42t-56 -129q0 -44 14 -77t38.5 -54.5t58 -32t71.5 -10.5q50 0 93 14.5t76.5 34.5t57 40t34.5 31v190zM446 1473
l123 -349h-130l-161 349h168zM70 950z" />
    <glyph glyph-name="aacute" unicode="&#xe1;" horiz-adv-x="1003" 
d="M706 105h-4q-19 -24 -48 -47.5t-67 -42t-83 -29.5t-96 -11q-69 0 -126.5 20.5t-99 60t-64.5 96.5t-23 129q0 71 25.5 127t71.5 95t110.5 60t142.5 21q74 -1 137 -13t112 -30h4v66q0 39 -5 69t-17 53q-26 48 -83 79.5t-154 31.5q-72 0 -135.5 -13.5t-126.5 -37.5v130
q24 12 56.5 22.5t68.5 18t76 11.5t80 4q144 0 235.5 -51t131.5 -135q15 -32 21.5 -70.5t6.5 -84.5v-634h-130zM698 417q-43 12 -102 23t-130 12q-99 0 -155 -42t-56 -129q0 -44 14 -77t38.5 -54.5t58 -32t71.5 -10.5q50 0 93 14.5t76.5 34.5t57 40t34.5 31v190zM705 1473
l-161 -349h-130l123 349h168zM199 950z" />
    <glyph glyph-name="acircumflex" unicode="&#xe2;" horiz-adv-x="1003" 
d="M706 105h-4q-19 -24 -48 -47.5t-67 -42t-83 -29.5t-96 -11q-69 0 -126.5 20.5t-99 60t-64.5 96.5t-23 129q0 71 25.5 127t71.5 95t110.5 60t142.5 21q74 -1 137 -13t112 -30h4v66q0 39 -5 69t-17 53q-26 48 -83 79.5t-154 31.5q-72 0 -135.5 -13.5t-126.5 -37.5v130
q24 12 56.5 22.5t68.5 18t76 11.5t80 4q144 0 235.5 -51t131.5 -135q15 -32 21.5 -70.5t6.5 -84.5v-634h-130zM698 417q-43 12 -102 23t-130 12q-99 0 -155 -42t-56 -129q0 -44 14 -77t38.5 -54.5t58 -32t71.5 -10.5q50 0 93 14.5t76.5 34.5t57 40t34.5 31v190zM584 1473
l210 -349h-140l-147 246h-4l-146 -246h-140l210 349h157zM156 950z" />
    <glyph glyph-name="atilde" unicode="&#xe3;" horiz-adv-x="1003" 
d="M706 105h-4q-19 -24 -48 -47.5t-67 -42t-83 -29.5t-96 -11q-69 0 -126.5 20.5t-99 60t-64.5 96.5t-23 129q0 71 25.5 127t71.5 95t110.5 60t142.5 21q74 -1 137 -13t112 -30h4v66q0 39 -5 69t-17 53q-26 48 -83 79.5t-154 31.5q-72 0 -135.5 -13.5t-126.5 -37.5v130
q24 12 56.5 22.5t68.5 18t76 11.5t80 4q144 0 235.5 -51t131.5 -135q15 -32 21.5 -70.5t6.5 -84.5v-634h-130zM698 417q-43 12 -102 23t-130 12q-99 0 -155 -42t-56 -129q0 -44 14 -77t38.5 -54.5t58 -32t71.5 -10.5q50 0 93 14.5t76.5 34.5t57 40t34.5 31v190zM174 1178v23
q0 34 7.5 67.5t27 61t52.5 44t81 16.5q41 0 80 -14.5t72 -32.5t64.5 -33t55.5 -15q31 0 45.5 22t14.5 65h122v-23q0 -34 -7.5 -67.5t-27 -61t-52.5 -44t-81 -16.5q-41 0 -80 14.5t-72 32.5t-64.5 33t-55.5 15q-31 0 -45.5 -22t-14.5 -65h-122zM135 950z" />
    <glyph glyph-name="adieresis" unicode="&#xe4;" horiz-adv-x="1003" 
d="M706 105h-4q-19 -24 -48 -47.5t-67 -42t-83 -29.5t-96 -11q-69 0 -126.5 20.5t-99 60t-64.5 96.5t-23 129q0 71 25.5 127t71.5 95t110.5 60t142.5 21q74 -1 137 -13t112 -30h4v66q0 39 -5 69t-17 53q-26 48 -83 79.5t-154 31.5q-72 0 -135.5 -13.5t-126.5 -37.5v130
q24 12 56.5 22.5t68.5 18t76 11.5t80 4q144 0 235.5 -51t131.5 -135q15 -32 21.5 -70.5t6.5 -84.5v-634h-130zM698 417q-43 12 -102 23t-130 12q-99 0 -155 -42t-56 -129q0 -44 14 -77t38.5 -54.5t58 -32t71.5 -10.5q50 0 93 14.5t76.5 34.5t57 40t34.5 31v190zM229 1171
v167h159v-167h-159zM610 1171v167h159v-167h-159zM149 950z" />
    <glyph glyph-name="amacron" unicode="&#x101;" horiz-adv-x="1003" 
d="M706 105h-4q-19 -24 -48 -47.5t-67 -42t-83 -29.5t-96 -11q-69 0 -126.5 20.5t-99 60t-64.5 96.5t-23 129q0 71 25.5 127t71.5 95t110.5 60t142.5 21q74 -1 137 -13t112 -30h4v66q0 39 -5 69t-17 53q-26 48 -83 79.5t-154 31.5q-72 0 -135.5 -13.5t-126.5 -37.5v130
q24 12 56.5 22.5t68.5 18t76 11.5t80 4q144 0 235.5 -51t131.5 -135q15 -32 21.5 -70.5t6.5 -84.5v-634h-130zM698 417q-43 12 -102 23t-130 12q-99 0 -155 -42t-56 -129q0 -44 14 -77t38.5 -54.5t58 -32t71.5 -10.5q50 0 93 14.5t76.5 34.5t57 40t34.5 31v190zM236 1300
h540v-129h-540v129zM156 950z" />
    <glyph glyph-name="abreve" unicode="&#x103;" horiz-adv-x="1003" 
d="M706 105h-4q-19 -24 -48 -47.5t-67 -42t-83 -29.5t-96 -11q-69 0 -126.5 20.5t-99 60t-64.5 96.5t-23 129q0 71 25.5 127t71.5 95t110.5 60t142.5 21q74 -1 137 -13t112 -30h4v66q0 39 -5 69t-17 53q-26 48 -83 79.5t-154 31.5q-72 0 -135.5 -13.5t-126.5 -37.5v130
q24 12 56.5 22.5t68.5 18t76 11.5t80 4q144 0 235.5 -51t131.5 -135q15 -32 21.5 -70.5t6.5 -84.5v-634h-130zM698 417q-43 12 -102 23t-130 12q-99 0 -155 -42t-56 -129q0 -44 14 -77t38.5 -54.5t58 -32t71.5 -10.5q50 0 93 14.5t76.5 34.5t57 40t34.5 31v190zM496 1257
q74 0 117.5 42t57.5 133h131q-4 -64 -25.5 -118t-60 -93.5t-94 -62t-126.5 -22.5t-126.5 22.5t-94 62t-60 93.5t-25.5 118h131q14 -91 57.5 -133t117.5 -42zM146 950z" />
    <glyph glyph-name="aring" unicode="&#xe5;" horiz-adv-x="1003" 
d="M706 105h-4q-19 -24 -48 -47.5t-67 -42t-83 -29.5t-96 -11q-69 0 -126.5 20.5t-99 60t-64.5 96.5t-23 129q0 71 25.5 127t71.5 95t110.5 60t142.5 21q74 -1 137 -13t112 -30h4v66q0 39 -5 69t-17 53q-26 48 -83 79.5t-154 31.5q-72 0 -135.5 -13.5t-126.5 -37.5v130
q24 12 56.5 22.5t68.5 18t76 11.5t80 4q144 0 235.5 -51t131.5 -135q15 -32 21.5 -70.5t6.5 -84.5v-634h-130zM698 417q-43 12 -102 23t-130 12q-99 0 -155 -42t-56 -129q0 -44 14 -77t38.5 -54.5t58 -32t71.5 -10.5q50 0 93 14.5t76.5 34.5t57 40t34.5 31v190zM479 1100
q-48 0 -90 13.5t-72.5 38.5t-48.5 61t-18 82t18 82t48.5 61t72.5 38.5t90 13.5t90 -13.5t72.5 -38.5t48.5 -61t18 -82t-18 -82t-48.5 -61t-72.5 -38.5t-90 -13.5zM479 1392q-45 0 -75.5 -25t-30.5 -72t30.5 -72t75.5 -25t75.5 25t30.5 72t-30.5 72t-75.5 25zM129 950z" />
    <glyph glyph-name="aringacute" unicode="&#x1fb;" horiz-adv-x="1003" 
d="M755 1774l-201 -256h-127l148 256h180zM487 1086q-48 0 -90 12.5t-72.5 36.5t-48.5 59t-18 79t18 79t48.5 59t72.5 36.5t90 12.5t90 -12.5t72.5 -36.5t48.5 -59t18 -79t-18 -79t-48.5 -59t-72.5 -36.5t-90 -12.5zM487 1362q-45 0 -75.5 -22t-30.5 -67t30.5 -67t75.5 -22
t75.5 22t30.5 67t-30.5 67t-75.5 22zM706 105h-4q-19 -24 -48 -47.5t-67 -42t-83 -29.5t-96 -11q-69 0 -126.5 20.5t-99 60t-64.5 96.5t-23 129q0 71 25.5 127t71.5 95t110.5 60t142.5 21q74 -1 137 -13t112 -30h4v66q0 39 -5 69t-17 53q-26 48 -83 79.5t-154 31.5
q-72 0 -135.5 -13.5t-126.5 -37.5v130q24 12 56.5 22.5t68.5 18t76 11.5t80 4q144 0 235.5 -51t131.5 -135q15 -32 21.5 -70.5t6.5 -84.5v-634h-130zM698 417q-43 12 -102 23t-130 12q-99 0 -155 -42t-56 -129q0 -44 14 -77t38.5 -54.5t58 -32t71.5 -10.5q50 0 93 14.5
t76.5 34.5t57 40t34.5 31v190z" />
    <glyph glyph-name="aogonek" unicode="&#x105;" horiz-adv-x="1003" 
d="M698 417q-43 12 -101 23t-131 12q-99 0 -155 -42t-56 -129q0 -44 14 -77t38.5 -54.5t58 -32t71.5 -10.5q50 0 93 14.5t76.5 34.5t57 40t34.5 31v190zM706 105h-4q-19 -24 -48 -47.5t-67 -42t-83 -29.5t-96 -11q-69 0 -126.5 20.5t-99 60t-64.5 96.5t-23 129
q0 71 25.5 127t71.5 95t110.5 60t142.5 21q78 -1 141 -13.5t108 -29.5h4v66q0 39 -5 69t-17 53q-26 49 -83 79.5t-154 31.5q-72 0 -135.5 -13.5t-126.5 -37.5v130q24 12 56 22t69.5 18t76.5 12t79 4q144 -1 236 -51.5t131 -134.5q15 -32 21.5 -70.5t6.5 -84.5v-634
q-31 -20 -71 -52t-75.5 -69.5t-60 -78t-24.5 -78.5q0 -37 23 -57t71 -20q28 0 59 5.5t68 17.5v-128q-29 -13 -71 -21.5t-86 -8.5q-97 0 -152 44.5t-55 130.5q0 54 20.5 99.5t54.5 84.5t78 73l91 67z" />
    <glyph glyph-name="ae" unicode="&#xe6;" horiz-adv-x="1592" 
d="M458 975q71 0 123.5 -12.5t91.5 -35.5t67 -54t49 -69h4q55 84 133.5 127.5t178.5 43.5q83 0 155 -30t123 -94t75.5 -155.5t22.5 -200.5q0 -23 -1 -52h-632q0 -91 24.5 -154.5t68 -103t104.5 -57.5t135 -18q75 0 139.5 12t127.5 36v-129q-51 -25 -126 -40.5t-161 -13.5
q-115 3 -207.5 36.5t-154.5 108.5h-4q-28 -26 -63 -52t-79 -46.5t-98 -33.5t-119 -13q-79 0 -142 20.5t-107 60t-67.5 96.5t-23.5 129q0 71 25.5 127t71.5 95t110.5 60t142.5 21q76 0 138.5 -12.5t111.5 -30.5h4v58q0 116 -60.5 178.5t-199.5 62.5q-72 0 -135.5 -13.5
t-126.5 -37.5v130q25 12 55.5 22t67.5 17.5t77.5 12t80.5 4.5zM450 107q51 0 95 11t80 28.5t63.5 39t45.5 42.5q-31 78 -37 188q-40 11 -104 23.5t-127 12.5q-99 0 -155 -42t-56 -129q0 -44 14.5 -77t40 -54.5t61.5 -32t79 -10.5zM1095 842q-53 0 -95.5 -21t-73.5 -57
t-49.5 -84.5t-23.5 -103.5h463q0 56 -14.5 104.5t-42.5 84.5t-69 56.5t-95 20.5z" />
    <glyph glyph-name="aeacute" unicode="&#x1fd;" horiz-adv-x="1592" 
d="M458 975q71 0 123.5 -12.5t91.5 -35.5t67 -54t49 -69h4q55 84 133.5 127.5t178.5 43.5q83 0 155 -30t123 -94t75.5 -155.5t22.5 -200.5q0 -23 -1 -52h-632q0 -91 24.5 -154.5t68 -103t104.5 -57.5t135 -18q75 0 139.5 12t127.5 36v-129q-51 -25 -126 -40.5t-161 -13.5
q-115 3 -207.5 36.5t-154.5 108.5h-4q-28 -26 -63 -52t-79 -46.5t-98 -33.5t-119 -13q-79 0 -142 20.5t-107 60t-67.5 96.5t-23.5 129q0 71 25.5 127t71.5 95t110.5 60t142.5 21q76 0 138.5 -12.5t111.5 -30.5h4v58q0 116 -60.5 178.5t-199.5 62.5q-72 0 -135.5 -13.5
t-126.5 -37.5v130q25 12 55.5 22t67.5 17.5t77.5 12t80.5 4.5zM450 107q51 0 95 11t80 28.5t63.5 39t45.5 42.5q-31 78 -37 188q-40 11 -104 23.5t-127 12.5q-99 0 -155 -42t-56 -129q0 -44 14.5 -77t40 -54.5t61.5 -32t79 -10.5zM1095 842q-53 0 -95.5 -21t-73.5 -57
t-49.5 -84.5t-23.5 -103.5h463q0 56 -14.5 104.5t-42.5 84.5t-69 56.5t-95 20.5zM1027 1473l-161 -349h-130l123 349h168zM521 950z" />
    <glyph glyph-name="cacute" unicode="&#x107;" horiz-adv-x="898" 
d="M558 975q69 0 132 -14.5t108 -40.5v-129q-63 24 -116 36t-108 12q-58 0 -115 -19t-102 -62.5t-72.5 -115t-27.5 -177.5q0 -77 20.5 -142t61 -112.5t101.5 -74t141 -26.5q58 0 117 12.5t115 35.5v-129q-17 -10 -44.5 -20t-60.5 -17.5t-70 -12t-74 -4.5q-96 0 -181.5 29
t-149.5 89t-101 152t-37 218q0 94 19.5 169t53.5 132t79.5 97t97 65.5t106.5 37t107 11.5zM737 1473l-161 -349h-130l123 349h168zM231 950z" />
    <glyph glyph-name="ccircumflex" unicode="&#x109;" horiz-adv-x="898" 
d="M558 975q69 0 132 -14.5t108 -40.5v-129q-63 24 -116 36t-108 12q-58 0 -115 -19t-102 -62.5t-72.5 -115t-27.5 -177.5q0 -77 20.5 -142t61 -112.5t101.5 -74t141 -26.5q58 0 117 12.5t115 35.5v-129q-17 -10 -44.5 -20t-60.5 -17.5t-70 -12t-74 -4.5q-96 0 -181.5 29
t-149.5 89t-101 152t-37 218q0 94 19.5 169t53.5 132t79.5 97t97 65.5t106.5 37t107 11.5zM613 1473l210 -349h-140l-147 246h-4l-146 -246h-140l210 349h157zM185 950z" />
    <glyph glyph-name="ccaron" unicode="&#x10d;" horiz-adv-x="898" 
d="M558 975q69 0 132 -14.5t108 -40.5v-129q-63 24 -116 36t-108 12q-58 0 -115 -19t-102 -62.5t-72.5 -115t-27.5 -177.5q0 -77 20.5 -142t61 -112.5t101.5 -74t141 -26.5q58 0 117 12.5t115 35.5v-129q-17 -10 -44.5 -20t-60.5 -17.5t-70 -12t-74 -4.5q-96 0 -181.5 29
t-149.5 89t-101 152t-37 218q0 94 19.5 169t53.5 132t79.5 97t97 65.5t106.5 37t107 11.5zM466 1124l-210 349h140l147 -246h4l146 246h140l-210 -349h-157zM194 950z" />
    <glyph glyph-name="cdotaccent" unicode="&#x10b;" horiz-adv-x="898" 
d="M558 975q69 0 132 -14.5t108 -40.5v-129q-63 24 -116 36t-108 12q-58 0 -115 -19t-102 -62.5t-72.5 -115t-27.5 -177.5q0 -77 20.5 -142t61 -112.5t101.5 -74t141 -26.5q58 0 117 12.5t115 35.5v-129q-17 -10 -44.5 -20t-60.5 -17.5t-70 -12t-74 -4.5q-96 0 -181.5 29
t-149.5 89t-101 152t-37 218q0 94 19.5 169t53.5 132t79.5 97t97 65.5t106.5 37t107 11.5zM455 1171v173h163v-173h-163zM187 950z" />
    <glyph glyph-name="ccedilla" unicode="&#xe7;" horiz-adv-x="898" 
d="M462 -16q-78 13 -145.5 49t-116.5 95.5t-77 142.5t-28 192q0 94 19.5 169t53.5 132t79.5 97t97 65.5t106.5 37t107 11.5q69 0 131.5 -14.5t108.5 -40.5v-129q-64 24 -117 36t-107 12q-60 0 -116 -19t-101 -62.5t-72.5 -116t-27.5 -176.5q0 -77 20.5 -142t61 -112.5
t101.5 -74t141 -26.5q57 0 116.5 12.5t115.5 35.5v-129q-16 -10 -41 -19.5t-55.5 -16.5t-65 -12t-69.5 -6l-28 -101q40 -6 73.5 -18.5t57.5 -32.5t37 -48.5t13 -65.5q0 -52 -23 -89.5t-61.5 -62t-88.5 -36t-104 -11.5q-43 0 -77.5 5.5t-55.5 13.5v113q12 -4 27.5 -7t32 -5.5
t32 -3.5t27.5 -1q29 0 56.5 3.5t49.5 13t35.5 25t13.5 39.5q0 21 -14 35.5t-39.5 23.5t-62 13.5t-81.5 6.5z" />
    <glyph glyph-name="dcaron" unicode="&#x10f;" horiz-adv-x="1097" 
d="M257 465q0 -82 18.5 -148.5t53.5 -113t86 -71.5t117 -25q49 0 89 13t71.5 33t54 42.5t35.5 41.5v497q-48 49 -111 78.5t-136 29.5q-44 0 -92.5 -16.5t-90 -59.5t-68.5 -115.5t-27 -185.5zM95 463q0 99 19.5 175.5t51.5 133.5t75 95.5t89 62.5t93.5 34.5t89.5 10.5
q87 0 151 -29t115 -85h3v587h155v-1448h-117l-32 106h-4q-18 -23 -42 -46.5t-56.5 -42.5t-75 -30.5t-98.5 -11.5q-78 0 -153 26.5t-133.5 85t-94.5 151t-36 225.5zM1116 1245q0 39 -23.5 56.5t-60.5 17.5v129q16 1 31 1q90 0 144.5 -43t54.5 -123q0 -51 -19 -100t-60 -103
h-143q32 46 54 87t22 78z" />
    <glyph glyph-name="dcroat" unicode="&#x111;" horiz-adv-x="1097" 
d="M95 463q0 99 19.5 175.5t52 133.5t74.5 95.5t88.5 62.5t94 34.5t89.5 10.5q87 0 151 -29t115 -85h3v291h-289v133h289v163h155v-163h160v-133h-160v-1152h-117l-32 106h-4q-18 -24 -42 -47t-56.5 -42t-75 -30.5t-99.5 -11.5q-77 0 -152 26.5t-133.5 85t-94.5 151
t-36 225.5zM257 465q0 -82 18.5 -148.5t53.5 -113t86 -71.5t117 -25q47 0 88 13t72.5 33.5t53.5 42.5t36 41v497q-48 49 -111 78.5t-135 29.5q-44 0 -93 -17t-90.5 -59.5t-68.5 -115t-27 -185.5z" />
    <glyph glyph-name="egrave" unicode="&#xe8;" horiz-adv-x="1019" 
d="M477 1473l123 -349h-130l-161 349h168zM101 950zM522 842q-53 0 -98.5 -21t-79.5 -57t-55 -84.5t-26 -103.5h480q0 56 -14.5 104.5t-42.5 84.5t-69 56.5t-95 20.5zM607 110q77 0 140.5 12.5t126.5 35.5v-129q-51 -25 -126 -39.5t-161 -14.5q-102 0 -191.5 26t-156.5 84
t-105.5 151.5t-38.5 225.5q0 130 36 225.5t96 159.5t138 96t163 32q80 0 149.5 -26.5t120.5 -83.5t80.5 -147t29.5 -216v-20.5t-1 -38.5h-652q0 -91 27.5 -154.5t75 -103t111.5 -57.5t138 -18z" />
    <glyph glyph-name="eacute" unicode="&#xe9;" horiz-adv-x="1019" 
d="M743 1473l-161 -349h-130l123 349h168zM237 950zM522 842q-53 0 -98.5 -21t-79.5 -57t-55 -84.5t-26 -103.5h480q0 56 -14.5 104.5t-42.5 84.5t-69 56.5t-95 20.5zM607 110q77 0 140.5 12.5t126.5 35.5v-129q-51 -25 -126 -39.5t-161 -14.5q-102 0 -191.5 26t-156.5 84
t-105.5 151.5t-38.5 225.5q0 130 36 225.5t96 159.5t138 96t163 32q80 0 149.5 -26.5t120.5 -83.5t80.5 -147t29.5 -216v-20.5t-1 -38.5h-652q0 -91 27.5 -154.5t75 -103t111.5 -57.5t138 -18z" />
    <glyph glyph-name="ecircumflex" unicode="&#xea;" horiz-adv-x="1019" 
d="M598 1473l210 -349h-140l-147 246h-4l-146 -246h-140l210 349h157zM170 950zM522 842q-53 0 -98.5 -21t-79.5 -57t-55 -84.5t-26 -103.5h480q0 56 -14.5 104.5t-42.5 84.5t-69 56.5t-95 20.5zM607 110q77 0 140.5 12.5t126.5 35.5v-129q-51 -25 -126 -39.5t-161 -14.5
q-102 0 -191.5 26t-156.5 84t-105.5 151.5t-38.5 225.5q0 130 36 225.5t96 159.5t138 96t163 32q80 0 149.5 -26.5t120.5 -83.5t80.5 -147t29.5 -216v-20.5t-1 -38.5h-652q0 -91 27.5 -154.5t75 -103t111.5 -57.5t138 -18z" />
    <glyph glyph-name="ecaron" unicode="&#x11b;" horiz-adv-x="1019" 
d="M448 1124l-210 349h140l147 -246h4l146 246h140l-210 -349h-157zM176 950zM522 842q-53 0 -98.5 -21t-79.5 -57t-55 -84.5t-26 -103.5h480q0 56 -14.5 104.5t-42.5 84.5t-69 56.5t-95 20.5zM607 110q77 0 140.5 12.5t126.5 35.5v-129q-51 -25 -126 -39.5t-161 -14.5
q-102 0 -191.5 26t-156.5 84t-105.5 151.5t-38.5 225.5q0 130 36 225.5t96 159.5t138 96t163 32q80 0 149.5 -26.5t120.5 -83.5t80.5 -147t29.5 -216v-20.5t-1 -38.5h-652q0 -91 27.5 -154.5t75 -103t111.5 -57.5t138 -18z" />
    <glyph glyph-name="edieresis" unicode="&#xeb;" horiz-adv-x="1019" 
d="M253 1171v167h159v-167h-159zM634 1171v167h159v-167h-159zM173 950zM522 842q-53 0 -98.5 -21t-79.5 -57t-55 -84.5t-26 -103.5h480q0 56 -14.5 104.5t-42.5 84.5t-69 56.5t-95 20.5zM607 110q77 0 140.5 12.5t126.5 35.5v-129q-51 -25 -126 -39.5t-161 -14.5
q-102 0 -191.5 26t-156.5 84t-105.5 151.5t-38.5 225.5q0 130 36 225.5t96 159.5t138 96t163 32q80 0 149.5 -26.5t120.5 -83.5t80.5 -147t29.5 -216v-20.5t-1 -38.5h-652q0 -91 27.5 -154.5t75 -103t111.5 -57.5t138 -18z" />
    <glyph glyph-name="emacron" unicode="&#x113;" horiz-adv-x="1019" 
d="M250 1300h540v-129h-540v129zM170 950zM522 842q-53 0 -98.5 -21t-79.5 -57t-55 -84.5t-26 -103.5h480q0 56 -14.5 104.5t-42.5 84.5t-69 56.5t-95 20.5zM607 110q77 0 140.5 12.5t126.5 35.5v-129q-51 -25 -126 -39.5t-161 -14.5q-102 0 -191.5 26t-156.5 84
t-105.5 151.5t-38.5 225.5q0 130 36 225.5t96 159.5t138 96t163 32q80 0 149.5 -26.5t120.5 -83.5t80.5 -147t29.5 -216v-20.5t-1 -38.5h-652q0 -91 27.5 -154.5t75 -103t111.5 -57.5t138 -18z" />
    <glyph glyph-name="ebreve" unicode="&#x115;" horiz-adv-x="1019" 
d="M517 1257q74 0 117.5 42t57.5 133h131q-4 -64 -25.5 -118t-60 -93.5t-94 -62t-126.5 -22.5t-126.5 22.5t-94 62t-60 93.5t-25.5 118h131q14 -91 57.5 -133t117.5 -42zM167 950zM522 842q-53 0 -98.5 -21t-79.5 -57t-55 -84.5t-26 -103.5h480q0 56 -14.5 104.5t-42.5 84.5
t-69 56.5t-95 20.5zM607 110q77 0 140.5 12.5t126.5 35.5v-129q-51 -25 -126 -39.5t-161 -14.5q-102 0 -191.5 26t-156.5 84t-105.5 151.5t-38.5 225.5q0 130 36 225.5t96 159.5t138 96t163 32q80 0 149.5 -26.5t120.5 -83.5t80.5 -147t29.5 -216v-20.5t-1 -38.5h-652
q0 -91 27.5 -154.5t75 -103t111.5 -57.5t138 -18z" />
    <glyph glyph-name="edotaccent" unicode="&#x117;" horiz-adv-x="1019" 
d="M438 1171v173h163v-173h-163zM170 950zM522 842q-53 0 -98.5 -21t-79.5 -57t-55 -84.5t-26 -103.5h480q0 56 -14.5 104.5t-42.5 84.5t-69 56.5t-95 20.5zM607 110q77 0 140.5 12.5t126.5 35.5v-129q-51 -25 -126 -39.5t-161 -14.5q-102 0 -191.5 26t-156.5 84
t-105.5 151.5t-38.5 225.5q0 130 36 225.5t96 159.5t138 96t163 32q80 0 149.5 -26.5t120.5 -83.5t80.5 -147t29.5 -216v-20.5t-1 -38.5h-652q0 -91 27.5 -154.5t75 -103t111.5 -57.5t138 -18z" />
    <glyph glyph-name="eogonek" unicode="&#x119;" horiz-adv-x="1019" 
d="M667 -19q-20 -3 -43 -4.5t-37 -1.5q-102 0 -191.5 26t-156.5 84t-105.5 151.5t-38.5 227.5q0 128 36 223.5t96 159.5t138 96t163 32t157.5 -30t123.5 -94t75.5 -153.5t24.5 -193.5q0 -26 -2 -61h-652q0 -91 27.5 -154.5t75 -103t111.5 -57.5t138 -18q77 0 140.5 12.5
t126.5 35.5v-123q-24 -16 -52.5 -38t-57 -47.5t-55 -54t-47 -57.5t-32.5 -58t-12 -56q0 -38 23 -58.5t71 -20.5q28 0 59 5.5t68 17.5v-128q-29 -13 -68.5 -21.5t-88.5 -8.5q-97 0 -152 44.5t-55 130.5q0 45 16 86t42.5 77.5t61 68.5t72.5 60v4zM522 842q-53 0 -98.5 -21
t-79.5 -57t-55 -84.5t-26 -103.5h480q0 56 -14.5 104.5t-42.5 84.5t-69 56.5t-95 20.5z" />
    <glyph glyph-name="gcircumflex" unicode="&#x11d;" horiz-adv-x="1087" 
d="M621 1473l210 -349h-140l-147 246h-4l-146 -246h-140l210 349h157zM193 950zM257 469q0 -112 27 -183t68.5 -110.5t90.5 -54t93 -14.5q72 0 135 29t111 79v497q-13 18 -36 41t-53.5 42.5t-69.5 33t-85 13.5q-69 0 -121.5 -27.5t-88 -76.5t-53.5 -117.5t-18 -151.5z
M518 975q62 -1 108 -16t79 -37.5t52.5 -44.5t26.5 -35h4l32 108h117v-1006q0 -110 -36 -191.5t-101 -135.5t-156.5 -80.5t-202.5 -26.5q-94 0 -168 16.5t-116 39.5v131q34 -14 66 -23.5t66 -16t69.5 -9.5t78.5 -3q167 0 256 78t89 238v127h-3q-51 -56 -118.5 -84.5
t-154.5 -28.5q-40 0 -86 9t-92 30.5t-88 57t-74 89t-51.5 126.5t-19.5 169q0 133 36 230.5t95 161.5t135 95.5t157 31.5z" />
    <glyph glyph-name="gbreve" unicode="&#x11f;" horiz-adv-x="1087" 
d="M541 1257q74 0 117.5 42t57.5 133h131q-4 -64 -25.5 -118t-60 -93.5t-94 -62t-126.5 -22.5t-126.5 22.5t-94 62t-60 93.5t-25.5 118h131q14 -91 57.5 -133t117.5 -42zM191 950zM257 469q0 -112 27 -183t68.5 -110.5t90.5 -54t93 -14.5q72 0 135 29t111 79v497
q-13 18 -36 41t-53.5 42.5t-69.5 33t-85 13.5q-69 0 -121.5 -27.5t-88 -76.5t-53.5 -117.5t-18 -151.5zM518 975q62 -1 108 -16t79 -37.5t52.5 -44.5t26.5 -35h4l32 108h117v-1006q0 -110 -36 -191.5t-101 -135.5t-156.5 -80.5t-202.5 -26.5q-94 0 -168 16.5t-116 39.5v131
q34 -14 66 -23.5t66 -16t69.5 -9.5t78.5 -3q167 0 256 78t89 238v127h-3q-51 -56 -118.5 -84.5t-154.5 -28.5q-40 0 -86 9t-92 30.5t-88 57t-74 89t-51.5 126.5t-19.5 169q0 133 36 230.5t95 161.5t135 95.5t157 31.5z" />
    <glyph glyph-name="gdotaccent" unicode="&#x121;" horiz-adv-x="1087" 
d="M466 1171v173h163v-173h-163zM198 950zM257 469q0 -112 27 -183t68.5 -110.5t90.5 -54t93 -14.5q72 0 135 29t111 79v497q-13 18 -36 41t-53.5 42.5t-69.5 33t-85 13.5q-69 0 -121.5 -27.5t-88 -76.5t-53.5 -117.5t-18 -151.5zM518 975q62 -1 108 -16t79 -37.5
t52.5 -44.5t26.5 -35h4l32 108h117v-1006q0 -110 -36 -191.5t-101 -135.5t-156.5 -80.5t-202.5 -26.5q-94 0 -168 16.5t-116 39.5v131q34 -14 66 -23.5t66 -16t69.5 -9.5t78.5 -3q167 0 256 78t89 238v127h-3q-51 -56 -118.5 -84.5t-154.5 -28.5q-40 0 -86 9t-92 30.5
t-88 57t-74 89t-51.5 126.5t-19.5 169q0 133 36 230.5t95 161.5t135 95.5t157 31.5z" />
    <glyph glyph-name="gcommaaccent" unicode="&#x123;" horiz-adv-x="1087" 
d="M532 1308q0 -39 23.5 -56.5t60.5 -17.5v-129q-14 -1 -28 -1q-92 0 -147 42t-55 124q0 51 19 100t60 103h143q-32 -46 -54 -87t-22 -78zM1054 950zM257 469q0 -112 27 -183t68.5 -110.5t90.5 -54t93 -14.5q72 0 135 29t111 79v497q-13 18 -36 41t-53.5 42.5t-69.5 33
t-85 13.5q-69 0 -121.5 -27.5t-88 -76.5t-53.5 -117.5t-18 -151.5zM518 975q62 -1 108 -16t79 -37.5t52.5 -44.5t26.5 -35h4l32 108h117v-1006q0 -110 -36 -191.5t-101 -135.5t-156.5 -80.5t-202.5 -26.5q-94 0 -168 16.5t-116 39.5v131q34 -14 66 -23.5t66 -16t69.5 -9.5
t78.5 -3q167 0 256 78t89 238v127h-3q-51 -56 -118.5 -84.5t-154.5 -28.5q-40 0 -86 9t-92 30.5t-88 57t-74 89t-51.5 126.5t-19.5 169q0 133 36 230.5t95 161.5t135 95.5t157 31.5z" />
    <glyph glyph-name="hcircumflex" unicode="&#x125;" horiz-adv-x="1090" 
d="M315 820h3q26 33 58 61.5t71 49t84 32.5t97 12q54 0 108 -14.5t100 -51.5t75 -103t29 -170v-636h-155v611q0 115 -43.5 173t-142.5 58q-82 0 -156 -44.5t-128 -122.5v-675h-155v1448h155v-628zM328 1767l216 -247h-158l-137 151h-4l-136 -151h-158l216 247h161z" />
    <glyph glyph-name="hbar" unicode="&#x127;" horiz-adv-x="1090" 
d="M315 1152v-332h3q26 33 58 61.5t71 49t84 32.5t97 12q54 0 108 -14.5t100 -51.5t75 -103t29 -170v-636h-155v611q0 115 -43.5 173t-142.5 58q-82 0 -156 -44.5t-128 -122.5v-675h-155v1152h-160v133h160v163h155v-163h289v-133h-289z" />
    <glyph glyph-name="igrave" unicode="&#xec;" horiz-adv-x="475" 
d="M160 0v950h155v-950h-155zM195 1473l123 -349h-130l-161 349h168zM-181 950z" />
    <glyph glyph-name="iacute" unicode="&#xed;" horiz-adv-x="475" 
d="M160 0v950h155v-950h-155zM468 1473l-161 -349h-130l123 349h168zM-38 950z" />
    <glyph glyph-name="icircumflex" unicode="&#xee;" horiz-adv-x="475" 
d="M160 0v950h155v-950h-155zM324 1473l210 -349h-140l-147 246h-4l-146 -246h-140l210 349h157zM-104 950z" />
    <glyph glyph-name="itilde" unicode="&#x129;" horiz-adv-x="475" 
d="M160 0v950h155v-950h-155zM-66 1178v23q0 34 7.5 67.5t27 61t52.5 44t81 16.5q41 0 80 -14.5t72 -32.5t64.5 -33t55.5 -15q31 0 45.5 22t14.5 65h122v-23q0 -34 -7.5 -67.5t-27 -61t-52.5 -44t-81 -16.5q-41 0 -80 14.5t-72 32.5t-64.5 33t-55.5 15q-31 0 -45.5 -22
t-14.5 -65h-122zM-105 950z" />
    <glyph glyph-name="idieresis" unicode="&#xef;" horiz-adv-x="475" 
d="M160 0v950h155v-950h-155zM-25 1171v167h159v-167h-159zM356 1171v167h159v-167h-159zM-105 950z" />
    <glyph glyph-name="imacron" unicode="&#x12b;" horiz-adv-x="475" 
d="M160 0v950h155v-950h-155zM-26 1300h540v-129h-540v129zM-106 950z" />
    <glyph glyph-name="ibreve" unicode="&#x12d;" horiz-adv-x="475" 
d="M160 0v950h155v-950h-155zM241 1257q74 0 117.5 42t57.5 133h131q-4 -64 -25.5 -118t-60 -93.5t-94 -62t-126.5 -22.5t-126.5 22.5t-94 62t-60 93.5t-25.5 118h131q14 -91 57.5 -133t117.5 -42zM-109 950z" />
    <glyph glyph-name="iogonek" unicode="&#x12f;" horiz-adv-x="475" 
d="M315 0l-64 -60.5t-55 -62t-38.5 -66.5t-14.5 -74q0 -40 22.5 -66t75.5 -26q26 0 56 5.5t67 17.5v-128q-29 -13 -69.5 -21.5t-81.5 -8.5q-53 0 -93 15t-66.5 42t-40 63t-13.5 78t12 80.5t33.5 75t51 71t63.5 68.5v947h155v-950zM156 1171v171h163v-171h-163z" />
    <glyph glyph-name="dotlessi" unicode="&#x131;" horiz-adv-x="475" 
d="M160 0v950h155v-950h-155z" />
    <glyph glyph-name="ij" unicode="&#x133;" horiz-adv-x="969" 
d="M160 0v950h155v-950h-155zM156 1171v173h163v-173h-163zM809 -212q0 -131 -75 -204.5t-238 -73.5q-43 0 -82.5 6.5t-58.5 13.5v132q30 -8 60 -12.5t62 -4.5q95 0 136 39t41 122v1144h155v-1162zM650 1171v173h163v-173h-163z" />
    <glyph glyph-name="jcircumflex" unicode="&#x135;" horiz-adv-x="494" 
d="M334 -212q0 -131 -75 -204.5t-238 -73.5q-43 0 -82.5 6.5t-58.5 13.5v132q30 -7 59.5 -12t62.5 -5q95 0 136 39t41 122v1144h155v-1162zM333 1473l210 -349h-140l-147 246h-4l-146 -246h-140l210 349h157z" />
    <glyph glyph-name="kcommaaccent" unicode="&#x137;" horiz-adv-x="997" 
d="M765 950h202l-464 -437l463 -513h-193l-456 506h-2v-506h-155v1448h155v-922h2zM477 -325q0 39 -23.5 56.5t-60.5 17.5v129q15 1 28 1q93 0 147.5 -42.5t54.5 -123.5q0 -50 -19 -99.5t-60 -103.5h-143q34 47 55 89t21 76z" />
    <glyph glyph-name="kgreenlandic" unicode="&#x138;" horiz-adv-x="987" 
d="M755 950h202l-464 -468l463 -482h-193l-456 476h-2v-476h-155v950h155v-454h2z" />
    <glyph glyph-name="lacute" unicode="&#x13a;" horiz-adv-x="475" 
d="M160 0v1448h155v-1448h-155zM484 1766l-181 -247h-139l146 247h174zM14 1448z" />
    <glyph glyph-name="lcaron" unicode="&#x13e;" horiz-adv-x="475" 
d="M160 0v1448h155v-1448h-155zM499 1245q0 39 -23.5 56.5t-60.5 17.5v129q16 1 31 1q90 0 144.5 -43t54.5 -123q0 -51 -19 -100t-60 -103h-143q32 46 54 87t22 78z" />
    <glyph glyph-name="lcommaaccent" unicode="&#x13c;" horiz-adv-x="475" 
d="M160 0v1448h155v-1448h-155zM227 -325q0 39 -23.5 56.5t-60.5 17.5v129q15 1 28 1q93 0 147.5 -42.5t54.5 -123.5q0 -50 -19 -99.5t-60 -103.5h-143q34 47 55 89t21 76z" />
    <glyph glyph-name="lslash" unicode="&#x142;" horiz-adv-x="475" 
d="M160 0v618l-169 -108v158l169 108v672h155v-580l188 121v-158l-188 -121v-710h-155z" />
    <glyph glyph-name="ldot" unicode="&#x140;" horiz-adv-x="638" 
d="M160 0v1448h155v-1448h-155zM475 548v173h163v-173h-163z" />
    <glyph glyph-name="nacute" unicode="&#x144;" horiz-adv-x="1080" 
d="M300 818h3q26 33 57.5 61.5t70.5 50t85.5 33.5t101.5 12q65 0 122 -18t99 -58t66.5 -104.5t24.5 -158.5v-636h-155v611q0 123 -47.5 177t-138.5 54q-80 0 -155 -44.5t-129 -122.5v-675h-155v950h120zM798 1473l-161 -349h-130l123 349h168zM292 950z" />
    <glyph glyph-name="ncaron" unicode="&#x148;" horiz-adv-x="1080" 
d="M300 818h3q26 33 57.5 61.5t70.5 50t85.5 33.5t101.5 12q65 0 122 -18t99 -58t66.5 -104.5t24.5 -158.5v-636h-155v611q0 123 -47.5 177t-138.5 54q-80 0 -155 -44.5t-129 -122.5v-675h-155v950h120zM480 1124l-210 349h140l147 -246h4l146 246h140l-210 -349h-157z
M208 950z" />
    <glyph glyph-name="ntilde" unicode="&#xf1;" horiz-adv-x="1080" 
d="M300 818h3q26 33 57.5 61.5t70.5 50t85.5 33.5t101.5 12q65 0 122 -18t99 -58t66.5 -104.5t24.5 -158.5v-636h-155v611q0 123 -47.5 177t-138.5 54q-80 0 -155 -44.5t-129 -122.5v-675h-155v950h120zM221 1178v23q0 34 7.5 67.5t27 61t52.5 44t81 16.5q41 0 80 -14.5
t72 -32.5t64.5 -33t55.5 -15q31 0 45.5 22t14.5 65h122v-23q0 -34 -7.5 -67.5t-27 -61t-52.5 -44t-81 -16.5q-41 0 -80 14.5t-72 32.5t-64.5 33t-55.5 15q-31 0 -45.5 -22t-14.5 -65h-122zM182 950z" />
    <glyph glyph-name="ncommaaccent" unicode="&#x146;" horiz-adv-x="1080" 
d="M300 818h3q26 33 57.5 61.5t70.5 50t85.5 33.5t101.5 12q65 0 122 -18t99 -58t66.5 -104.5t24.5 -158.5v-636h-155v611q0 123 -47.5 177t-138.5 54q-80 0 -155 -44.5t-129 -122.5v-675h-155v950h120zM498 -325q0 39 -23.5 56.5t-60.5 17.5v129q15 1 28 1
q93 0 147.5 -42.5t54.5 -123.5q0 -50 -19 -99.5t-60 -103.5h-143q34 47 55 89t21 76z" />
    <glyph glyph-name="napostrophe" unicode="&#x149;" horiz-adv-x="1080" 
d="M300 818h3q26 33 57.5 61.5t70.5 50t85.5 33.5t101.5 12q65 0 122 -18t99 -58t66.5 -104.5t24.5 -158.5v-636h-155v611q0 123 -47.5 177t-138.5 54q-80 0 -155 -44.5t-129 -122.5v-675h-155v950h120zM42 1245q0 39 -23.5 56.5t-60.5 17.5v129q16 1 31 1q90 0 144.5 -43
t54.5 -123q0 -51 -19 -100t-60 -103h-143q32 46 54 87t22 78z" />
    <glyph glyph-name="ograve" unicode="&#xf2;" horiz-adv-x="1092" 
d="M835 474q0 88 -21.5 156.5t-60 116t-91.5 72t-116 24.5t-116 -24.5t-91.5 -72t-60 -116t-21.5 -156.5q0 -87 21.5 -155.5t60.5 -115.5t92 -71.5t116 -24.5t115.5 24.5t91 71.5t60 115.5t21.5 155.5zM997 474q0 -112 -32 -204t-90.5 -157.5t-141.5 -101.5t-186 -36
q-106 0 -189.5 36t-142 101.5t-89.5 157.5t-31 204q0 113 32 205t90.5 158t142 102t186.5 36q105 0 189 -36t142 -102t89 -158t31 -205zM492 1473l123 -349h-130l-161 349h168zM116 950z" />
    <glyph glyph-name="oacute" unicode="&#xf3;" horiz-adv-x="1092" 
d="M835 474q0 88 -21.5 156.5t-60 116t-91.5 72t-116 24.5t-116 -24.5t-91.5 -72t-60 -116t-21.5 -156.5q0 -87 21.5 -155.5t60.5 -115.5t92 -71.5t116 -24.5t115.5 24.5t91 71.5t60 115.5t21.5 155.5zM997 474q0 -112 -32 -204t-90.5 -157.5t-141.5 -101.5t-186 -36
q-106 0 -189.5 36t-142 101.5t-89.5 157.5t-31 204q0 113 32 205t90.5 158t142 102t186.5 36q105 0 189 -36t142 -102t89 -158t31 -205zM781 1473l-161 -349h-130l123 349h168zM275 950z" />
    <glyph glyph-name="ocircumflex" unicode="&#xf4;" horiz-adv-x="1092" 
d="M835 474q0 88 -21.5 156.5t-60 116t-91.5 72t-116 24.5t-116 -24.5t-91.5 -72t-60 -116t-21.5 -156.5q0 -87 21.5 -155.5t60.5 -115.5t92 -71.5t116 -24.5t115.5 24.5t91 71.5t60 115.5t21.5 155.5zM997 474q0 -112 -32 -204t-90.5 -157.5t-141.5 -101.5t-186 -36
q-106 0 -189.5 36t-142 101.5t-89.5 157.5t-31 204q0 113 32 205t90.5 158t142 102t186.5 36q105 0 189 -36t142 -102t89 -158t31 -205zM620 1473l210 -349h-140l-147 246h-4l-146 -246h-140l210 349h157zM192 950z" />
    <glyph glyph-name="otilde" unicode="&#xf5;" horiz-adv-x="1092" 
d="M835 474q0 88 -21.5 156.5t-60 116t-91.5 72t-116 24.5t-116 -24.5t-91.5 -72t-60 -116t-21.5 -156.5q0 -87 21.5 -155.5t60.5 -115.5t92 -71.5t116 -24.5t115.5 24.5t91 71.5t60 115.5t21.5 155.5zM997 474q0 -112 -32 -204t-90.5 -157.5t-141.5 -101.5t-186 -36
q-106 0 -189.5 36t-142 101.5t-89.5 157.5t-31 204q0 113 32 205t90.5 158t142 102t186.5 36q105 0 189 -36t142 -102t89 -158t31 -205zM228 1178v23q0 34 7.5 67.5t27 61t52.5 44t81 16.5q41 0 80 -14.5t72 -32.5t64.5 -33t55.5 -15q31 0 45.5 22t14.5 65h122v-23
q0 -34 -7.5 -67.5t-27 -61t-52.5 -44t-81 -16.5q-41 0 -80 14.5t-72 32.5t-64.5 33t-55.5 15q-31 0 -45.5 -22t-14.5 -65h-122zM189 950z" />
    <glyph glyph-name="odieresis" unicode="&#xf6;" horiz-adv-x="1092" 
d="M835 474q0 88 -21.5 156.5t-60 116t-91.5 72t-116 24.5t-116 -24.5t-91.5 -72t-60 -116t-21.5 -156.5q0 -87 21.5 -155.5t60.5 -115.5t92 -71.5t116 -24.5t115.5 24.5t91 71.5t60 115.5t21.5 155.5zM997 474q0 -112 -32 -204t-90.5 -157.5t-141.5 -101.5t-186 -36
q-106 0 -189.5 36t-142 101.5t-89.5 157.5t-31 204q0 113 32 205t90.5 158t142 102t186.5 36q105 0 189 -36t142 -102t89 -158t31 -205zM275 1171v167h159v-167h-159zM656 1171v167h159v-167h-159zM195 950z" />
    <glyph glyph-name="omacron" unicode="&#x14d;" horiz-adv-x="1092" 
d="M835 474q0 88 -21.5 156.5t-60 116t-91.5 72t-116 24.5t-116 -24.5t-91.5 -72t-60 -116t-21.5 -156.5q0 -87 21.5 -155.5t60.5 -115.5t92 -71.5t116 -24.5t115.5 24.5t91 71.5t60 115.5t21.5 155.5zM997 474q0 -112 -32 -204t-90.5 -157.5t-141.5 -101.5t-186 -36
q-106 0 -189.5 36t-142 101.5t-89.5 157.5t-31 204q0 113 32 205t90.5 158t142 102t186.5 36q105 0 189 -36t142 -102t89 -158t31 -205zM274 1300h540v-129h-540v129zM194 950z" />
    <glyph glyph-name="obreve" unicode="&#x14f;" horiz-adv-x="1092" 
d="M835 474q0 88 -21.5 156.5t-60 116t-91.5 72t-116 24.5t-116 -24.5t-91.5 -72t-60 -116t-21.5 -156.5q0 -87 21.5 -155.5t60.5 -115.5t92 -71.5t116 -24.5t115.5 24.5t91 71.5t60 115.5t21.5 155.5zM997 474q0 -112 -32 -204t-90.5 -157.5t-141.5 -101.5t-186 -36
q-106 0 -189.5 36t-142 101.5t-89.5 157.5t-31 204q0 113 32 205t90.5 158t142 102t186.5 36q105 0 189 -36t142 -102t89 -158t31 -205zM540 1257q74 0 117.5 42t57.5 133h131q-4 -64 -25.5 -118t-60 -93.5t-94 -62t-126.5 -22.5t-126.5 22.5t-94 62t-60 93.5t-25.5 118h131
q14 -91 57.5 -133t117.5 -42zM190 950z" />
    <glyph glyph-name="ohungarumlaut" unicode="&#x151;" horiz-adv-x="1092" 
d="M835 474q0 88 -21.5 156.5t-60 116t-91.5 72t-116 24.5t-116 -24.5t-91.5 -72t-60 -116t-21.5 -156.5q0 -87 21.5 -155.5t60.5 -115.5t92 -71.5t116 -24.5t115.5 24.5t91 71.5t60 115.5t21.5 155.5zM997 474q0 -112 -32 -204t-90.5 -157.5t-141.5 -101.5t-186 -36
q-106 0 -189.5 36t-142 101.5t-89.5 157.5t-31 204q0 113 32 205t90.5 158t142 102t186.5 36q105 0 189 -36t142 -102t89 -158t31 -205zM621 1473l-157 -349h-129l123 349h163zM932 1473l-177 -349h-130l143 349h164zM275 950z" />
    <glyph glyph-name="oslash" unicode="&#xf8;" horiz-adv-x="1092" 
d="M95 60l85 97q-42 63 -63.5 142.5t-21.5 174.5q0 113 32 205t90.5 158t142 102t186.5 36q83 0 152 -22.5t124 -64.5l76 87l99 -85l-86 -98q42 -63 64 -143t22 -175q0 -112 -32 -204t-90.5 -157.5t-141.5 -101.5t-186 -36q-84 0 -153.5 22t-123.5 64l-76 -86zM257 474
q0 -109 34 -191l433 493q-73 67 -178 67q-63 0 -116 -24.5t-91.5 -72t-60 -116t-21.5 -156.5zM835 474q0 56 -9 104t-26 88l-432 -493q74 -66 179 -66q63 0 115.5 24.5t91 71.5t60 115.5t21.5 155.5z" />
    <glyph glyph-name="oslashacute" unicode="&#x1ff;" horiz-adv-x="1092" 
d="M95 60l85 97q-42 63 -63.5 142.5t-21.5 174.5q0 113 32 205t90.5 158t142 102t186.5 36q83 0 152 -22.5t124 -64.5l76 87l99 -85l-86 -98q42 -63 64 -143t22 -175q0 -112 -32 -204t-90.5 -157.5t-141.5 -101.5t-186 -36q-84 0 -153.5 22t-123.5 64l-76 -86zM257 474
q0 -109 34 -191l433 493q-73 67 -178 67q-63 0 -116 -24.5t-91.5 -72t-60 -116t-21.5 -156.5zM835 474q0 56 -9 104t-26 88l-432 -493q74 -66 179 -66q63 0 115.5 24.5t91 71.5t60 115.5t21.5 155.5zM783 1473l-161 -349h-130l123 349h168zM277 950z" />
    <glyph glyph-name="oe" unicode="&#x153;" horiz-adv-x="1759" 
d="M1347 110q77 0 140.5 12.5t126.5 35.5v-129q-51 -25 -126 -39.5t-161 -14.5q-72 0 -135.5 12.5t-117 39.5t-95.5 70t-70 103h-4q-51 -104 -142.5 -164.5t-219.5 -60.5q-105 0 -188 36t-140.5 101.5t-88.5 157.5t-31 204q0 113 31.5 205t90 158t141 102t184.5 36
q133 0 225 -63t142 -169h4q54 117 147 174.5t208 57.5q84 0 157 -30t124.5 -94t75.5 -153t24 -193q0 -30 -2 -62h-652q0 -91 27.5 -154.5t75 -103t111.5 -57.5t138 -18zM835 474q0 88 -21.5 156.5t-60 116t-91.5 72t-116 24.5t-116 -24.5t-91.5 -72t-60 -116t-21.5 -156.5
q0 -87 21.5 -155.5t60.5 -115.5t92 -71.5t116 -24.5t115.5 24.5t91 71.5t60 115.5t21.5 155.5zM1262 842q-53 0 -98.5 -21t-79.5 -57t-55 -84.5t-26 -103.5h480q0 56 -14.5 104.5t-42.5 84.5t-69 56.5t-95 20.5z" />
    <glyph glyph-name="racute" unicode="&#x155;" horiz-adv-x="686" 
d="M594 1473l-161 -349h-130l123 349h168zM88 950zM671 824h-12q-55 0 -108 -10t-99.5 -30.5t-84 -50.5t-62.5 -71v-662h-155v950h120l30 -151h3q23 37 56.5 69t75.5 56t92 37.5t105 13.5q10 0 20.5 -0.5t18.5 -1.5v-149z" />
    <glyph glyph-name="rcaron" unicode="&#x159;" horiz-adv-x="686" 
d="M313 1124l-210 349h140l147 -246h4l146 246h140l-210 -349h-157zM41 950zM671 824h-12q-55 0 -108 -10t-99.5 -30.5t-84 -50.5t-62.5 -71v-662h-155v950h120l30 -151h3q23 37 56.5 69t75.5 56t92 37.5t105 13.5q10 0 20.5 -0.5t18.5 -1.5v-149z" />
    <glyph glyph-name="rcommaaccent" unicode="&#x157;" horiz-adv-x="686" 
d="M242 -325q0 39 -23.5 56.5t-60.5 17.5v129q15 1 28 1q93 0 147.5 -42.5t54.5 -123.5q0 -50 -19 -99.5t-60 -103.5h-143q34 47 55 89t21 76zM671 824h-12q-55 0 -108 -10t-99.5 -30.5t-84 -50.5t-62.5 -71v-662h-155v950h120l30 -151h3q23 37 56.5 69t75.5 56t92 37.5
t105 13.5q10 0 20.5 -0.5t18.5 -1.5v-149z" />
    <glyph glyph-name="sacute" unicode="&#x15b;" horiz-adv-x="828" 
d="M639 1473l-161 -349h-130l123 349h168zM133 950zM250 697q0 -39 17 -64t45.5 -40.5t66 -25.5t77.5 -18q55 -12 104 -26.5t90.5 -43.5t67 -78.5t25.5 -128.5q0 -72 -28 -127.5t-79 -93t-122 -57t-156 -19.5q-52 0 -94.5 5.5t-75 14t-55.5 17.5t-38 17v130q60 -24 119 -38
t130 -14q56 0 101 10t77.5 29.5t50 49t17.5 68.5q0 40 -16 66t-43 43t-62.5 28t-74.5 20q-51 11 -103.5 26t-95.5 42t-69.5 73.5t-26.5 119.5q0 75 27 130t73 91t107 54t129 18q79 0 146.5 -15t122.5 -38v-132q-60 23 -121.5 37.5t-126.5 15.5q-55 0 -94 -11t-64 -30.5
t-36.5 -46t-11.5 -58.5z" />
    <glyph glyph-name="scircumflex" unicode="&#x15d;" horiz-adv-x="828" 
d="M498 1473l210 -349h-140l-147 246h-4l-146 -246h-140l210 349h157zM70 950zM250 697q0 -39 17 -64t45.5 -40.5t66 -25.5t77.5 -18q55 -12 104 -26.5t90.5 -43.5t67 -78.5t25.5 -128.5q0 -72 -28 -127.5t-79 -93t-122 -57t-156 -19.5q-52 0 -94.5 5.5t-75 14t-55.5 17.5
t-38 17v130q60 -24 119 -38t130 -14q56 0 101 10t77.5 29.5t50 49t17.5 68.5q0 40 -16 66t-43 43t-62.5 28t-74.5 20q-51 11 -103.5 26t-95.5 42t-69.5 73.5t-26.5 119.5q0 75 27 130t73 91t107 54t129 18q79 0 146.5 -15t122.5 -38v-132q-60 23 -121.5 37.5t-126.5 15.5
q-55 0 -94 -11t-64 -30.5t-36.5 -46t-11.5 -58.5z" />
    <glyph glyph-name="scaron" unicode="&#x161;" horiz-adv-x="828" 
d="M351 1124l-210 349h140l147 -246h4l146 246h140l-210 -349h-157zM79 950zM250 697q0 -39 17 -64t45.5 -40.5t66 -25.5t77.5 -18q55 -12 104 -26.5t90.5 -43.5t67 -78.5t25.5 -128.5q0 -72 -28 -127.5t-79 -93t-122 -57t-156 -19.5q-52 0 -94.5 5.5t-75 14t-55.5 17.5
t-38 17v130q60 -24 119 -38t130 -14q56 0 101 10t77.5 29.5t50 49t17.5 68.5q0 40 -16 66t-43 43t-62.5 28t-74.5 20q-51 11 -103.5 26t-95.5 42t-69.5 73.5t-26.5 119.5q0 75 27 130t73 91t107 54t129 18q79 0 146.5 -15t122.5 -38v-132q-60 23 -121.5 37.5t-126.5 15.5
q-55 0 -94 -11t-64 -30.5t-36.5 -46t-11.5 -58.5z" />
    <glyph glyph-name="scedilla" unicode="&#x15f;" horiz-adv-x="828" 
d="M743 272q0 -63 -22 -114t-62 -87.5t-96.5 -59.5t-125.5 -31l-29 -106q40 -6 73.5 -18.5t57.5 -32.5t37 -48.5t13 -65.5q0 -52 -23 -89.5t-61.5 -62t-88.5 -36t-104 -11.5q-41 0 -76.5 5.5t-56.5 13.5v113q12 -4 27.5 -7t32.5 -5.5t32 -3.5t27 -1q29 0 56.5 3.5t49.5 13
t35.5 25t13.5 39.5q0 21 -14 35.5t-39.5 23.5t-62 13.5t-81.5 6.5l58 191q-84 5 -137 20.5t-82 32.5v130q61 -25 120.5 -38.5t128.5 -13.5q56 0 101 10t77.5 29.5t50 49t17.5 68.5q0 40 -16 66t-43 43t-62.5 28t-74.5 20q-51 11 -103.5 26t-95.5 42t-69.5 73.5t-26.5 119.5
q0 75 27 130t73 91t107 54t129 18q79 0 146.5 -15t122.5 -38v-132q-60 23 -121.5 37.5t-126.5 15.5q-55 0 -94 -11t-64 -30.5t-36.5 -46t-11.5 -58.5q0 -39 17 -64t45.5 -40.5t66 -25.5t77.5 -18q55 -12 104 -26.5t90.5 -43.5t67 -78.5t25.5 -128.5z" />
    <glyph glyph-name="scommaaccent" unicode="&#x219;" horiz-adv-x="828" 
d="M367 -325q0 39 -23.5 56.5t-60.5 17.5v129q15 1 28 1q93 0 147.5 -42.5t54.5 -123.5q0 -50 -19 -99.5t-60 -103.5h-143q34 47 55 89t21 76zM250 697q0 -39 17 -64t45.5 -40.5t66 -25.5t77.5 -18q55 -12 104 -26.5t90.5 -43.5t67 -78.5t25.5 -128.5q0 -72 -28 -127.5
t-79 -93t-122 -57t-156 -19.5q-52 0 -94.5 5.5t-75 14t-55.5 17.5t-38 17v130q60 -24 119 -38t130 -14q56 0 101 10t77.5 29.5t50 49t17.5 68.5q0 40 -16 66t-43 43t-62.5 28t-74.5 20q-51 11 -103.5 26t-95.5 42t-69.5 73.5t-26.5 119.5q0 75 27 130t73 91t107 54t129 18
q79 0 146.5 -15t122.5 -38v-132q-60 23 -121.5 37.5t-126.5 15.5q-55 0 -94 -11t-64 -30.5t-36.5 -46t-11.5 -58.5z" />
    <glyph glyph-name="germandbls" unicode="&#xdf;" horiz-adv-x="1248" 
d="M991 1192q0 -56 -18 -98.5t-45.5 -77t-59 -63.5t-59 -57.5t-45.5 -60t-18 -71.5q0 -33 14 -57t38 -42.5t55 -34t65 -30.5q43 -19 86.5 -42.5t79 -57.5t57.5 -83.5t22 -121.5t-28 -131t-79 -101t-122 -65t-156 -23q-45 0 -82 5.5t-67 13.5t-52.5 17.5t-36.5 17.5v130
q30 -12 56.5 -21.5t53 -16.5t54.5 -10.5t60 -3.5q56 0 101 13t77.5 37t50 57.5t17.5 74.5q0 42 -16 72.5t-42 53t-60.5 40t-70.5 33.5l-82 39.5t-73.5 50t-52.5 71.5t-20 102q0 59 18 103t45 79.5t59 64.5t59 58t45 60t18 71q0 32 -12 59.5t-37.5 48t-66.5 32t-99 11.5
q-79 0 -136.5 -25.5t-95.5 -72t-56.5 -111.5t-18.5 -144v-985h-155v994q0 108 30.5 196t89.5 151t145 97.5t197 34.5q95 0 164.5 -23.5t115 -62.5t67.5 -89.5t22 -105.5z" />
    <glyph glyph-name="longs" unicode="&#x17f;" horiz-adv-x="585" 
d="M160 1096q0 102 27.5 172.5t74.5 116t110.5 67t136.5 21.5q35 0 69 -4t57 -9v-131q-28 5 -56 7t-48 2q-51 0 -91.5 -13t-68 -41.5t-42 -75t-14.5 -112.5v-1096h-155v1096z" />
    <glyph glyph-name="tcaron" unicode="&#x165;" horiz-adv-x="711" 
d="M651 -2q-20 -8 -61 -15t-98 -8q-75 0 -130 18.5t-91.5 53t-54.5 83.5t-18 109v578h-183v133h183v260h155v-260h284v-133h-284v-554q0 -33 9.5 -61t30 -48.5t52.5 -32t77 -11.5q31 0 65.5 5t63.5 13v-130zM609 1245q0 39 -23.5 56.5t-60.5 17.5v129q16 1 31 1
q90 0 144.5 -43t54.5 -123q0 -51 -19 -100t-60 -103h-143q32 46 54 87t22 78zM593 950z" />
    <glyph glyph-name="tcommaaccent" unicode="&#x163;" horiz-adv-x="711" 
d="M651 -2q-20 -8 -61 -15t-98 -8q-75 0 -130 18.5t-91.5 53t-54.5 83.5t-18 109v578h-183v133h183v260h155v-260h284v-133h-284v-554q0 -33 9.5 -61t30 -48.5t52.5 -32t77 -11.5q31 0 65.5 5t63.5 13v-130zM365 -325q0 39 -23.5 56.5t-60.5 17.5v129q15 1 28 1
q93 0 147.5 -42.5t54.5 -123.5q0 -50 -19 -99.5t-60 -103.5h-143q34 47 55 89t21 76z" />
    <glyph glyph-name="tcommaaccent" unicode="&#x21b;" horiz-adv-x="711" 
d="M651 -2q-20 -8 -61 -15t-98 -8q-75 0 -130 18.5t-91.5 53t-54.5 83.5t-18 109v578h-183v133h183v260h155v-260h284v-133h-284v-554q0 -33 9.5 -61t30 -48.5t52.5 -32t77 -11.5q31 0 65.5 5t63.5 13v-130zM365 -325q0 39 -23.5 56.5t-60.5 17.5v129q15 1 28 1
q93 0 147.5 -42.5t54.5 -123.5q0 -50 -19 -99.5t-60 -103.5h-143q34 47 55 89t21 76z" />
    <glyph glyph-name="tbar" unicode="&#x167;" horiz-adv-x="711" 
d="M651 -2q-21 -8 -64.5 -15.5t-94.5 -7.5q-75 0 -130 18.5t-91.5 53t-54.5 83.5t-18 109v229h-183v133h183v216h-183v133h183v260h155v-260h284v-133h-284v-216h233v-133h-233v-205q0 -33 9.5 -60.5t30 -48.5t53 -32.5t76.5 -11.5q29 0 64.5 5t64.5 13v-130z" />
    <glyph glyph-name="ugrave" unicode="&#xf9;" horiz-adv-x="1060" 
d="M527 -25q-74 0 -133 16t-103.5 45t-75.5 69.5t-49 88.5q-14 36 -20 79t-6 94v583h155v-582q0 -79 21 -132q24 -60 77.5 -94.5t136.5 -34.5q88 0 141.5 38t76.5 102q17 49 17 121v582h155v-584q0 -48 -5.5 -89.5t-17.5 -76.5q-18 -49 -49.5 -90.5t-77.5 -71.5
t-106.5 -46.5t-136.5 -16.5zM478 1473l123 -349h-130l-161 349h168zM102 950z" />
    <glyph glyph-name="uacute" unicode="&#xfa;" horiz-adv-x="1060" 
d="M527 -25q-74 0 -133 16t-103.5 45t-75.5 69.5t-49 88.5q-14 36 -20 79t-6 94v583h155v-582q0 -79 21 -132q24 -60 77.5 -94.5t136.5 -34.5q88 0 141.5 38t76.5 102q17 49 17 121v582h155v-584q0 -48 -5.5 -89.5t-17.5 -76.5q-18 -49 -49.5 -90.5t-77.5 -71.5
t-106.5 -46.5t-136.5 -16.5zM754 1473l-161 -349h-130l123 349h168zM248 950z" />
    <glyph glyph-name="ucircumflex" unicode="&#xfb;" horiz-adv-x="1060" 
d="M527 -25q-74 0 -133 16t-103.5 45t-75.5 69.5t-49 88.5q-14 36 -20 79t-6 94v583h155v-582q0 -79 21 -132q24 -60 77.5 -94.5t136.5 -34.5q88 0 141.5 38t76.5 102q17 49 17 121v582h155v-584q0 -48 -5.5 -89.5t-17.5 -76.5q-18 -49 -49.5 -90.5t-77.5 -71.5
t-106.5 -46.5t-136.5 -16.5zM610 1473l210 -349h-140l-147 246h-4l-146 -246h-140l210 349h157zM182 950z" />
    <glyph glyph-name="utilde" unicode="&#x169;" horiz-adv-x="1060" 
d="M527 -25q-74 0 -133 16t-103.5 45t-75.5 69.5t-49 88.5q-14 36 -20 79t-6 94v583h155v-582q0 -79 21 -132q24 -60 77.5 -94.5t136.5 -34.5q88 0 141.5 38t76.5 102q17 49 17 121v582h155v-584q0 -48 -5.5 -89.5t-17.5 -76.5q-18 -49 -49.5 -90.5t-77.5 -71.5
t-106.5 -46.5t-136.5 -16.5zM222 1178v23q0 34 7.5 67.5t27 61t52.5 44t81 16.5q41 0 80 -14.5t72 -32.5t64.5 -33t55.5 -15q31 0 45.5 22t14.5 65h122v-23q0 -34 -7.5 -67.5t-27 -61t-52.5 -44t-81 -16.5q-41 0 -80 14.5t-72 32.5t-64.5 33t-55.5 15q-31 0 -45.5 -22
t-14.5 -65h-122zM183 950z" />
    <glyph glyph-name="udieresis" unicode="&#xfc;" horiz-adv-x="1060" 
d="M527 -25q-74 0 -133 16t-103.5 45t-75.5 69.5t-49 88.5q-14 36 -20 79t-6 94v583h155v-582q0 -79 21 -132q24 -60 77.5 -94.5t136.5 -34.5q88 0 141.5 38t76.5 102q17 49 17 121v582h155v-584q0 -48 -5.5 -89.5t-17.5 -76.5q-18 -49 -49.5 -90.5t-77.5 -71.5
t-106.5 -46.5t-136.5 -16.5zM260 1171v167h159v-167h-159zM641 1171v167h159v-167h-159zM180 950z" />
    <glyph glyph-name="umacron" unicode="&#x16b;" horiz-adv-x="1060" 
d="M527 -25q-74 0 -133 16t-103.5 45t-75.5 69.5t-49 88.5q-14 36 -20 79t-6 94v583h155v-582q0 -79 21 -132q24 -60 77.5 -94.5t136.5 -34.5q88 0 141.5 38t76.5 102q17 49 17 121v582h155v-584q0 -48 -5.5 -89.5t-17.5 -76.5q-18 -49 -49.5 -90.5t-77.5 -71.5
t-106.5 -46.5t-136.5 -16.5zM261 1300h540v-129h-540v129zM181 950z" />
    <glyph glyph-name="ubreve" unicode="&#x16d;" horiz-adv-x="1060" 
d="M527 -25q-74 0 -133 16t-103.5 45t-75.5 69.5t-49 88.5q-14 36 -20 79t-6 94v583h155v-582q0 -79 21 -132q24 -60 77.5 -94.5t136.5 -34.5q88 0 141.5 38t76.5 102q17 49 17 121v582h155v-584q0 -48 -5.5 -89.5t-17.5 -76.5q-18 -49 -49.5 -90.5t-77.5 -71.5
t-106.5 -46.5t-136.5 -16.5zM526 1257q74 0 117.5 42t57.5 133h131q-4 -64 -25.5 -118t-60 -93.5t-94 -62t-126.5 -22.5t-126.5 22.5t-94 62t-60 93.5t-25.5 118h131q14 -91 57.5 -133t117.5 -42zM176 950z" />
    <glyph glyph-name="uring" unicode="&#x16f;" horiz-adv-x="1060" 
d="M527 -25q-74 0 -133 16t-103.5 45t-75.5 69.5t-49 88.5q-14 36 -20 79t-6 94v583h155v-582q0 -79 21 -132q24 -60 77.5 -94.5t136.5 -34.5q88 0 141.5 38t76.5 102q17 49 17 121v582h155v-584q0 -48 -5.5 -89.5t-17.5 -76.5q-18 -49 -49.5 -90.5t-77.5 -71.5
t-106.5 -46.5t-136.5 -16.5zM531 1100q-48 0 -90 13.5t-72.5 38.5t-48.5 61t-18 82t18 82t48.5 61t72.5 38.5t90 13.5t90 -13.5t72.5 -38.5t48.5 -61t18 -82t-18 -82t-48.5 -61t-72.5 -38.5t-90 -13.5zM531 1392q-45 0 -75.5 -25t-30.5 -72t30.5 -72t75.5 -25t75.5 25
t30.5 72t-30.5 72t-75.5 25zM181 950z" />
    <glyph glyph-name="uhungarumlaut" unicode="&#x171;" horiz-adv-x="1060" 
d="M527 -25q-74 0 -133 16t-103.5 45t-75.5 69.5t-49 88.5q-14 36 -20 79t-6 94v583h155v-582q0 -79 21 -132q24 -60 77.5 -94.5t136.5 -34.5q88 0 141.5 38t76.5 102q17 49 17 121v582h155v-584q0 -48 -5.5 -89.5t-17.5 -76.5q-18 -49 -49.5 -90.5t-77.5 -71.5
t-106.5 -46.5t-136.5 -16.5zM597 1473l-157 -349h-129l123 349h163zM908 1473l-177 -349h-130l143 349h164zM251 950z" />
    <glyph glyph-name="uogonek" unicode="&#x173;" horiz-adv-x="1060" 
d="M641 5q-26 -13 -60.5 -20.5t-76.5 -7.5q-61 0 -115 15.5t-97.5 43.5t-75.5 68.5t-50 89.5q-14 36 -20 79t-6 94v583h155v-582q0 -79 21 -132q24 -60 78 -94.5t136 -34.5q86 0 140.5 37.5t77.5 102.5q17 49 17 121v582h155v-584q0 -66 -12.5 -116.5t-36 -93.5t-56.5 -84
l-74 -89q-25 -29 -47 -57.5t-39 -58.5t-27 -62t-10 -68q0 -48 27.5 -70t75.5 -22q28 0 59 5.5t68 17.5v-128q-29 -13 -68.5 -21.5t-88.5 -8.5q-48 0 -87.5 11.5t-68 34.5t-44.5 57t-16 80q0 41 12.5 84t35 83.5t53.5 76.5t67 65z" />
    <glyph glyph-name="wgrave" unicode="&#x1e81;" horiz-adv-x="1458" 
d="M726 793q-31 -131 -58 -226l-156 -567h-159l-313 950h157l176 -592q35 -117 53 -187h4q16 72 53 208l159 571h174l159 -571q32 -116 53 -208h4q24 92 53 187l176 592h157l-313 -950h-161l-156 567q-28 101 -58 226h-4zM672 1473l123 -349h-130l-161 349h168zM296 950z
" />
    <glyph glyph-name="wacute" unicode="&#x1e83;" horiz-adv-x="1458" 
d="M726 793q-31 -131 -58 -226l-156 -567h-159l-313 950h157l176 -592q35 -117 53 -187h4q16 72 53 208l159 571h174l159 -571q32 -116 53 -208h4q24 92 53 187l176 592h157l-313 -950h-161l-156 567q-28 101 -58 226h-4zM960 1473l-161 -349h-130l123 349h168zM454 950z
" />
    <glyph glyph-name="wcircumflex" unicode="&#x175;" horiz-adv-x="1458" 
d="M726 793q-31 -131 -58 -226l-156 -567h-159l-313 950h157l176 -592q35 -117 53 -187h4q16 72 53 208l159 571h174l159 -571q32 -116 53 -208h4q24 92 53 187l176 592h157l-313 -950h-161l-156 567q-28 101 -58 226h-4zM806 1473l210 -349h-140l-147 246h-4l-146 -246
h-140l210 349h157zM378 950z" />
    <glyph glyph-name="wdieresis" unicode="&#x1e85;" horiz-adv-x="1458" 
d="M726 793q-31 -131 -58 -226l-156 -567h-159l-313 950h157l176 -592q35 -117 53 -187h4q16 72 53 208l159 571h174l159 -571q32 -116 53 -208h4q24 92 53 187l176 592h157l-313 -950h-161l-156 567q-28 101 -58 226h-4zM459 1171v167h159v-167h-159zM840 1171v167h159
v-167h-159zM379 950z" />
    <glyph glyph-name="ygrave" unicode="&#x1ef3;" horiz-adv-x="982" 
d="M30 950h159l295 -745h6l299 745h163l-593 -1415h-154l203 484zM448 1473l123 -349h-130l-161 349h168zM72 950z" />
    <glyph glyph-name="yacute" unicode="&#xfd;" horiz-adv-x="982" 
d="M30 950h159l295 -745h6l299 745h163l-593 -1415h-154l203 484zM703 1473l-161 -349h-130l123 349h168zM197 950z" />
    <glyph glyph-name="ycircumflex" unicode="&#x177;" horiz-adv-x="982" 
d="M30 950h159l295 -745h6l299 745h163l-593 -1415h-154l203 484zM565 1473l210 -349h-140l-147 246h-4l-146 -246h-140l210 349h157zM137 950z" />
    <glyph glyph-name="ydieresis" unicode="&#xff;" horiz-adv-x="982" 
d="M30 950h159l295 -745h6l299 745h163l-593 -1415h-154l203 484zM217 1171v167h159v-167h-159zM598 1171v167h159v-167h-159zM137 950z" />
    <glyph glyph-name="zacute" unicode="&#x17a;" horiz-adv-x="910" 
d="M608 813v4h-522v133h719v-98l-528 -715v-4h563v-133h-770v84zM650 1473l-161 -349h-130l123 349h168zM144 950z" />
    <glyph glyph-name="zcaron" unicode="&#x17e;" horiz-adv-x="910" 
d="M608 813v4h-522v133h719v-98l-528 -715v-4h563v-133h-770v84zM361 1124l-210 349h140l147 -246h4l146 246h140l-210 -349h-157zM89 950z" />
    <glyph glyph-name="zdotaccent" unicode="&#x17c;" horiz-adv-x="910" 
d="M608 813v4h-522v133h719v-98l-528 -715v-4h563v-133h-770v84zM359 1171v173h163v-173h-163zM91 950z" />
    <glyph glyph-name="eng" unicode="&#x14b;" horiz-adv-x="1080" 
d="M617 -413q-24 0 -47 2t-43 6v134q17 -3 34.5 -5t36.5 -2q95 0 136 37.5t41 120.5v731q0 123 -47.5 177t-138.5 54q-80 0 -155 -44.5t-129 -122.5v-675h-155v950h120l30 -132h3q26 33 57.5 61.5t70.5 50t85.5 33.5t101.5 12q65 0 122 -18t99 -58t66.5 -104.5t24.5 -158.5
v-766q0 -66 -18.5 -118.5t-56.5 -89t-97.5 -56t-140.5 -19.5z" />
    <glyph glyph-name="eth" unicode="&#xf0;" horiz-adv-x="1077" 
d="M891 1220l-194 -53q55 -70 104 -149t86 -165.5t58.5 -180.5t21.5 -193q0 -109 -29.5 -201t-85 -159.5t-136 -105.5t-181.5 -38q-104 0 -186 34.5t-138.5 96.5t-86 149.5t-29.5 193.5q0 107 31 195t86 151t129.5 98t161.5 35q78 0 135.5 -24t104.5 -69l3 3
q-38 75 -87.5 148t-106.5 142l-264 -72l-35 124l204 56q-56 59 -112.5 112l-110.5 100h194q41 -35 86 -78t91 -94l251 69zM808 468q0 90 -24.5 153.5t-64 102t-88.5 55.5t-99 17q-61 0 -111.5 -23.5t-87 -68t-56.5 -109t-20 -146.5q0 -81 20.5 -145t57 -107.5t88 -66.5
t112.5 -23t111.5 25.5t86.5 72.5t55.5 113.5t19.5 149.5z" />
    <glyph glyph-name="thorn" unicode="&#xfe;" horiz-adv-x="1087" 
d="M992 489q0 -100 -19.5 -176.5t-51.5 -134t-75 -96.5t-89 -62.5t-93.5 -34t-89.5 -10.5q-86 0 -150.5 28.5t-115.5 84.5h-3v-553h-155v1913h155v-587h3q51 56 118.5 85t154.5 29q41 0 87 -9.5t91.5 -31t87.5 -58t74.5 -90.5t51.5 -128t19 -169zM828 481q0 109 -26.5 181.5
t-68.5 112t-90 53.5t-92 14q-72 0 -134.5 -29.5t-111.5 -78.5v-519q49 -50 111.5 -79t134.5 -29q44 0 92 16.5t90 58.5t68.5 116t26.5 183z" />
    <glyph glyph-name="A.c2sc" horiz-adv-x="1070" 
d="M761 302h-453l-117 -302h-161l417 1045h173l420 -1045h-162zM533 890q-55 -153 -102 -272l-69 -178h346l-68 178l-101 272h-6z" />
    <glyph glyph-name="B.c2sc" horiz-adv-x="1033" 
d="M727 540q96 -14 153.5 -73t57.5 -162q0 -109 -71 -184.5t-211 -104.5q-36 -7 -87 -11.5t-113 -4.5h-296v1045h314q60 0 105.5 -4.5t83.5 -12.5q110 -25 170 -88t60 -166q0 -38 -9 -73t-28.5 -65t-51.5 -53.5t-77 -38.5v-4zM507 605q38 0 68.5 3t56.5 12q45 16 71.5 49.5
t26.5 91.5q0 42 -14.5 70t-45 45t-77 24t-109.5 7h-167v-302h190zM317 467v-329h148q79 0 137 8.5t96.5 29t57.5 54.5t19 85q0 58 -34.5 92.5t-95.5 48.5q-33 7 -64.5 9t-79.5 2h-184z" />
    <glyph glyph-name="C.c2sc" horiz-adv-x="994" 
d="M672 932q-84 0 -158.5 -25t-130 -76.5t-88 -130.5t-32.5 -187q0 -107 30 -183.5t85 -124.5t130.5 -70t168.5 -22q26 0 55 3t58.5 8t57.5 12t51 15v-139q-47 -17 -111.5 -27t-129.5 -10q-128 0 -231 35.5t-176 103.5t-112 167.5t-39 227.5q0 125 41 229t115 177.5t176 114
t224 40.5q33 0 66.5 -3t64.5 -8t57 -12t45 -15v-138q-48 16 -104 27t-113 11z" />
    <glyph glyph-name="D.c2sc" horiz-adv-x="1155" 
d="M1055 527q0 -212 -107 -339.5t-303 -168.5q-43 -9 -101.5 -14t-124.5 -5h-259v1045h269q118 0 204.5 -15.5t154.5 -47.5q131 -60 199 -174.5t68 -280.5zM892 527q0 110 -31 183.5t-92 117t-147.5 61.5t-199.5 18h-105v-769h103q64 0 123.5 5.5t112 21t96 42.5t74.5 70
t48.5 104.5t17.5 145.5z" />
    <glyph glyph-name="E.c2sc" horiz-adv-x="982" 
d="M317 138h560v-138h-717v1045h688v-138h-531v-302h475v-138h-475v-329z" />
    <glyph glyph-name="F.c2sc" horiz-adv-x="923" 
d="M160 0v1045h678v-138h-521v-302h465v-138h-465v-467h-157z" />
    <glyph glyph-name="G.c2sc" horiz-adv-x="1119" 
d="M672 113q17 0 37 1t40.5 3t39.5 5t33 6v271h-238v138h395v-510q-21 -9 -55.5 -18.5t-76 -17t-87 -12t-88.5 -4.5q-131 0 -236.5 36.5t-180 105t-115 167.5t-40.5 225q0 127 46 230.5t125.5 177t187 113.5t230.5 40q36 0 73 -3t69.5 -8t60.5 -12t47 -15v-138q-24 8 -53 15
t-59.5 12t-61.5 8t-60 3q-87 0 -166.5 -24.5t-141 -76t-98 -130.5t-36.5 -188q0 -107 30.5 -183t85 -124t129.5 -70.5t164 -22.5z" />
    <glyph glyph-name="H.c2sc" horiz-adv-x="1192" 
d="M875 0v467h-558v-467h-157v1045h157v-440h558v440h157v-1045h-157z" />
    <glyph glyph-name="I.c2sc" horiz-adv-x="477" 
d="M160 0v1045h157v-1045h-157z" />
    <glyph glyph-name="J.c2sc" horiz-adv-x="668" 
d="M361 1045h157v-810q0 -56 -19.5 -104t-57.5 -82.5t-95 -54t-132 -19.5q-46 0 -83.5 6.5t-65.5 17.5v141q27 -12 61.5 -19.5t73.5 -7.5q34 0 63.5 8t51 26.5t34 49.5t12.5 77v771z" />
    <glyph glyph-name="K.c2sc" horiz-adv-x="1073" 
d="M160 0v1045h157v-518h4l484 518h191l-496 -525l533 -520h-201l-511 502h-4v-502h-157z" />
    <glyph glyph-name="L.c2sc" horiz-adv-x="907" 
d="M317 1045v-907h540v-138h-697v1045h157z" />
    <glyph glyph-name="M.c2sc" horiz-adv-x="1415" 
d="M748 0h-81l-248 611q-54 132 -105 276h-7q10 -143 10 -382v-505h-157v1045h235l194 -477q73 -178 116 -314h5q38 120 117 314l193 477h235v-1045h-157v505q0 247 10 382h-7q-51 -144 -105 -276z" />
    <glyph glyph-name="N.c2sc" horiz-adv-x="1225" 
d="M731 487q114 -162 184 -283h5q-12 180 -12 398v443h157v-1045h-165l-405 571q-107 154 -185 284h-4q11 -193 11 -404v-451h-157v1045h176z" />
    <glyph glyph-name="O.c2sc" horiz-adv-x="1220" 
d="M1120 521q0 -118 -37 -218t-103.5 -173t-160 -114t-207.5 -41q-117 0 -212 41t-161.5 114t-102.5 173t-36 218q0 119 37 219.5t104 174t161 114.5t208 41q117 0 211.5 -41t160.5 -114.5t102 -174t36 -219.5zM957 521q0 101 -27 178t-74.5 129t-110.5 78t-135 26t-135 -26
t-110.5 -78t-74.5 -129t-27 -178t27.5 -177.5t74.5 -127.5t111 -77t136 -26t134.5 26t109.5 77t74 127.5t27 177.5z" />
    <glyph glyph-name="P.c2sc" horiz-adv-x="971" 
d="M317 0h-157v1045h339q99 0 174.5 -22t126 -62.5t76 -96.5t25.5 -125q0 -79 -33.5 -142t-95 -106.5t-149.5 -66.5t-197 -23q-26 0 -53 1t-56 4v-406zM317 546q26 -3 52 -5t51 -2q90 0 151 14.5t98 40.5t53 63t16 82q0 168 -251 168h-170v-361z" />
    <glyph glyph-name="Q.c2sc" horiz-adv-x="1252" 
d="M1120 535q0 -68 -14 -129.5t-39.5 -115t-60 -97.5t-76.5 -77v-4q46 9 93.5 13t98.5 4h20v-138q-37 3 -86 6t-105 3q-42 0 -86.5 -3t-88 -7t-84.5 -7t-78 -3q-119 0 -214 40t-162 112t-102.5 171.5t-35.5 217.5q0 119 37 219.5t104 174t161 114.5t208 41
q117 0 211.5 -41.5t160.5 -114t102 -170t36 -209.5zM957 521q0 101 -27 178t-74.5 129t-110.5 78t-135 26t-135 -26t-110.5 -78t-74.5 -129t-27 -178t27.5 -177.5t74.5 -128t111 -77.5t136 -26t134.5 26t109.5 77.5t74 128t27 177.5z" />
    <glyph glyph-name="R.c2sc" horiz-adv-x="1035" 
d="M646 439l329 -439h-187l-306 421h-165v-421h-157v1045h329q74 0 130.5 -8t101.5 -24q99 -35 148.5 -105t49.5 -168q0 -62 -20.5 -112t-57 -87t-86.5 -62t-109 -36v-4zM317 907v-348h168q144 0 207.5 45.5t63.5 136.5q-1 86 -62.5 126t-175.5 40h-201z" />
    <glyph glyph-name="S.c2sc" horiz-adv-x="988" 
d="M290 763q0 -45 19 -73.5t51 -46.5t72.5 -29t88.5 -21q59 -12 119 -28t108.5 -47t79 -84t30.5 -140q0 -84 -31.5 -144.5t-88.5 -99.5t-135.5 -57t-172.5 -18q-42 0 -85.5 5t-83.5 13.5t-73 20t-51 22.5v142q29 -15 64 -27t72.5 -20.5t75.5 -13t72 -4.5q48 0 97 5.5
t90.5 23t67.5 53t26 91.5q0 48 -20.5 78.5t-54.5 49t-79 29.5t-93 21q-60 12 -116 27.5t-101.5 46t-74 82t-28.5 135.5q0 82 29.5 141.5t80.5 98t118.5 57t143.5 18.5q89 0 167.5 -16t138.5 -43v-143q-64 27 -139 45.5t-159 18.5q-109 0 -167 -41.5t-58 -127.5z" />
    <glyph glyph-name="T.c2sc" horiz-adv-x="951" 
d="M397 907h-377v138h911v-138h-377v-907h-157v907z" />
    <glyph glyph-name="U.c2sc" horiz-adv-x="1163" 
d="M582 113q97 0 156.5 38t87.5 100q16 35 23 78.5t7 89.5v626h157v-641q0 -59 -9 -111.5t-29 -97.5q-21 -49 -56 -89.5t-83.5 -69.5t-112 -45t-143.5 -16q-85 0 -152 18.5t-117 51.5t-83.5 79t-51.5 101q-26 80 -26 182v638h157v-626q0 -42 6 -81.5t19 -72.5
q26 -69 86.5 -110t163.5 -42z" />
    <glyph glyph-name="V.c2sc" horiz-adv-x="1032" 
d="M517 148q75 222 101 293l219 604h165l-398 -1045h-176l-398 1045h162l217 -598q32 -87 104 -299h4z" />
    <glyph glyph-name="W.c2sc" horiz-adv-x="1480" 
d="M1037 171q32 135 76 283l178 591h159l-330 -1045h-171l-150 585q-32 126 -57 257h-4q-24 -126 -57 -257l-150 -585h-171l-330 1045h159l178 -592q25 -82 76 -282h4q38 175 65 283l154 591h149l153 -591q40 -158 65 -283h4z" />
    <glyph glyph-name="X.c2sc" horiz-adv-x="1008" 
d="M223 1045l283 -399h4l285 399h166l-366 -510l383 -535h-168l-303 427h-4l-304 -427h-169l388 538l-359 507h164z" />
    <glyph glyph-name="Y.c2sc" horiz-adv-x="981" 
d="M569 394v-394h-157v394l-382 651h163l294 -512h7l294 512h163z" />
    <glyph glyph-name="Z.c2sc" 
d="M933 1045v-99l-617 -808h624v-138h-830v99l619 808h-605v138h809z" />
    <glyph glyph-name="Agrave.c2sc" horiz-adv-x="1070" 
d="M761 302h-453l-117 -302h-161l417 1045h173l420 -1045h-162zM533 890q-55 -153 -102 -272l-69 -178h346l-68 178l-101 272h-6zM480 1518l123 -349h-130l-161 349h168zM104 995z" />
    <glyph glyph-name="Aacute.c2sc" horiz-adv-x="1070" 
d="M761 302h-453l-117 -302h-161l417 1045h173l420 -1045h-162zM533 890q-55 -153 -102 -272l-69 -178h346l-68 178l-101 272h-6zM758 1518l-161 -349h-130l123 349h168zM252 995z" />
    <glyph glyph-name="Acircumflex.c2sc" horiz-adv-x="1070" 
d="M761 302h-453l-117 -302h-161l417 1045h173l420 -1045h-162zM533 890q-55 -153 -102 -272l-69 -178h346l-68 178l-101 272h-6zM616 1518l210 -349h-140l-147 246h-4l-146 -246h-140l210 349h157zM188 995z" />
    <glyph glyph-name="Atilde.c2sc" horiz-adv-x="1070" 
d="M761 302h-453l-117 -302h-161l417 1045h173l420 -1045h-162zM533 890q-55 -153 -102 -272l-69 -178h346l-68 178l-101 272h-6zM225 1223v23q0 34 7.5 67.5t27 61t52.5 44t81 16.5q41 0 80 -14.5t72 -32.5t64.5 -33t55.5 -15q31 0 45.5 22t14.5 65h122v-23
q0 -34 -7.5 -67.5t-27 -61t-52.5 -44t-81 -16.5q-41 0 -80 14.5t-72 32.5t-64.5 33t-55.5 15q-31 0 -45.5 -22t-14.5 -65h-122zM186 995z" />
    <glyph glyph-name="Adieresis.c2sc" horiz-adv-x="1070" 
d="M761 302h-453l-117 -302h-161l417 1045h173l420 -1045h-162zM533 890q-55 -153 -102 -272l-69 -178h346l-68 178l-101 272h-6zM270 1216v167h159v-167h-159zM651 1216v167h159v-167h-159zM190 995z" />
    <glyph glyph-name="Amacron.c2sc" horiz-adv-x="1070" 
d="M761 302h-453l-117 -302h-161l417 1045h173l420 -1045h-162zM533 890q-55 -153 -102 -272l-69 -178h346l-68 178l-101 272h-6zM266 1345h540v-129h-540v129zM186 995z" />
    <glyph glyph-name="Abreve.c2sc" horiz-adv-x="1070" 
d="M761 302h-453l-117 -302h-161l417 1045h173l420 -1045h-162zM533 890q-55 -153 -102 -272l-69 -178h346l-68 178l-101 272h-6zM538 1302q74 0 117.5 42t57.5 133h131q-4 -64 -25.5 -118t-60 -93.5t-94 -62t-126.5 -22.5t-126.5 22.5t-94 62t-60 93.5t-25.5 118h131
q14 -91 57.5 -133t117.5 -42zM188 995z" />
    <glyph glyph-name="Aring.c2sc" horiz-adv-x="1070" 
d="M761 302h-453l-117 -302h-161l417 1045h173l420 -1045h-162zM533 890q-55 -153 -102 -272l-69 -178h346l-68 178l-101 272h-6zM534 1145q-48 0 -90 13.5t-72.5 38.5t-48.5 61t-18 82t18 82t48.5 61t72.5 38.5t90 13.5t90 -13.5t72.5 -38.5t48.5 -61t18 -82t-18 -82
t-48.5 -61t-72.5 -38.5t-90 -13.5zM534 1437q-45 0 -75.5 -25t-30.5 -72t30.5 -72t75.5 -25t75.5 25t30.5 72t-30.5 72t-75.5 25zM184 995z" />
    <glyph glyph-name="Aringacute.c2sc" horiz-adv-x="1070" 
d="M804 1833l-201 -256h-127l148 256h180zM536 1145q-48 0 -90 12.5t-72.5 36.5t-48.5 59t-18 79t18 79t48.5 59t72.5 36.5t90 12.5t90 -12.5t72.5 -36.5t48.5 -59t18 -79t-18 -79t-48.5 -59t-72.5 -36.5t-90 -12.5zM536 1419q-45 0 -75.5 -21t-30.5 -66t30.5 -66t75.5 -21
t75.5 21t30.5 66t-30.5 66t-75.5 21zM761 302h-453l-117 -302h-161l417 1045h173l420 -1045h-162zM533 890q-55 -153 -102 -272l-69 -178h346l-68 178l-101 272h-6z" />
    <glyph glyph-name="Aogonek.c2sc" horiz-adv-x="1070" 
d="M761 302h-453l-117 -302h-161l417 1045h173l420 -1045q-29 -18 -67 -46.5t-72.5 -63.5t-58 -74.5t-23.5 -78.5q0 -40 22.5 -66t75.5 -26q26 0 56 5.5t67 17.5v-128q-29 -13 -69.5 -21.5t-81.5 -8.5q-53 0 -93 15t-66.5 40t-40 58.5t-13.5 69.5q0 44 14.5 86.5t41 81.5
t63.5 75t82 67zM533 890q-55 -153 -102 -272l-69 -178h346l-68 178l-101 272h-6z" />
    <glyph glyph-name="AE.c2sc" horiz-adv-x="1505" 
d="M765 302h-418l-161 -302h-161l559 1045h788v-138h-545l46 -302h439v-138h-418l50 -329h511v-138h-643zM669 907l-249 -467h324l-71 467h-4z" />
    <glyph glyph-name="AEacute.c2sc" horiz-adv-x="1505" 
d="M765 302h-418l-161 -302h-161l559 1045h788v-138h-545l46 -302h439v-138h-418l50 -329h511v-138h-643zM669 907l-249 -467h324l-71 467h-4zM1159 1518l-161 -349h-130l123 349h168zM653 995z" />
    <glyph glyph-name="Cacute.c2sc" horiz-adv-x="994" 
d="M672 932q-84 0 -158.5 -25t-130 -76.5t-88 -130.5t-32.5 -187q0 -107 30 -183.5t85 -124.5t130.5 -70t168.5 -22q26 0 55 3t58.5 8t57.5 12t51 15v-139q-47 -17 -111.5 -27t-129.5 -10q-128 0 -231 35.5t-176 103.5t-112 167.5t-39 227.5q0 125 41 229t115 177.5t176 114
t224 40.5q33 0 66.5 -3t64.5 -8t57 -12t45 -15v-138q-48 16 -104 27t-113 11zM818 1518l-161 -349h-130l123 349h168zM312 995z" />
    <glyph glyph-name="Ccircumflex.c2sc" horiz-adv-x="994" 
d="M672 932q-84 0 -158.5 -25t-130 -76.5t-88 -130.5t-32.5 -187q0 -107 30 -183.5t85 -124.5t130.5 -70t168.5 -22q26 0 55 3t58.5 8t57.5 12t51 15v-139q-47 -17 -111.5 -27t-129.5 -10q-128 0 -231 35.5t-176 103.5t-112 167.5t-39 227.5q0 125 41 229t115 177.5t176 114
t224 40.5q33 0 66.5 -3t64.5 -8t57 -12t45 -15v-138q-48 16 -104 27t-113 11zM670 1518l210 -349h-140l-147 246h-4l-146 -246h-140l210 349h157zM242 995z" />
    <glyph glyph-name="Ccaron.c2sc" horiz-adv-x="994" 
d="M672 932q-84 0 -158.5 -25t-130 -76.5t-88 -130.5t-32.5 -187q0 -107 30 -183.5t85 -124.5t130.5 -70t168.5 -22q26 0 55 3t58.5 8t57.5 12t51 15v-139q-47 -17 -111.5 -27t-129.5 -10q-128 0 -231 35.5t-176 103.5t-112 167.5t-39 227.5q0 125 41 229t115 177.5t176 114
t224 40.5q33 0 66.5 -3t64.5 -8t57 -12t45 -15v-138q-48 16 -104 27t-113 11zM526 1169l-210 349h140l147 -246h4l146 246h140l-210 -349h-157zM254 995z" />
    <glyph glyph-name="Cdotaccent.c2sc" horiz-adv-x="994" 
d="M672 932q-84 0 -158.5 -25t-130 -76.5t-88 -130.5t-32.5 -187q0 -107 30 -183.5t85 -124.5t130.5 -70t168.5 -22q26 0 55 3t58.5 8t57.5 12t51 15v-139q-47 -17 -111.5 -27t-129.5 -10q-128 0 -231 35.5t-176 103.5t-112 167.5t-39 227.5q0 125 41 229t115 177.5t176 114
t224 40.5q33 0 66.5 -3t64.5 -8t57 -12t45 -15v-138q-48 16 -104 27t-113 11zM475 1216v173h163v-173h-163zM207 995z" />
    <glyph glyph-name="Ccedilla.c2sc" horiz-adv-x="994" 
d="M518 -13q-97 17 -174.5 59.5t-131.5 108.5t-83 155t-29 199q0 126 41 229.5t115 177t176 114t224 40.5q33 0 66.5 -3t64.5 -8t57 -12t45 -15v-138q-48 16 -104 27t-113 11q-84 0 -158.5 -25t-130 -76.5t-88 -130.5t-32.5 -187t30 -184t84.5 -124t130.5 -70t169 -22
q26 0 55 3t58.5 8t57.5 12t51 15v-139q-47 -17 -111.5 -27t-129.5 -10q-5 0 -10.5 0.5t-10.5 0.5l-28 -102q40 -6 73.5 -18.5t57.5 -32.5t37 -48.5t13 -65.5q0 -52 -23 -89.5t-61.5 -62t-88.5 -36t-104 -11.5q-43 0 -77.5 5.5t-55.5 13.5v113q12 -4 27.5 -7t32 -5.5t32 -3.5
t27.5 -1q29 0 56.5 3.5t49.5 13t35.5 25t13.5 39.5q0 21 -14 35.5t-39.5 23.5t-62 13.5t-81.5 6.5z" />
    <glyph glyph-name="Dcaron.c2sc" horiz-adv-x="1155" 
d="M1055 527q0 -212 -107 -339.5t-303 -168.5q-43 -9 -101.5 -14t-124.5 -5h-259v1045h269q118 0 204.5 -15.5t154.5 -47.5q131 -60 199 -174.5t68 -280.5zM892 527q0 110 -31 183.5t-92 117t-147.5 61.5t-199.5 18h-105v-769h103q64 0 123.5 5.5t112 21t96 42.5t74.5 70
t48.5 104.5t17.5 145.5zM461 1169l-210 349h140l147 -246h4l146 246h140l-210 -349h-157zM189 995z" />
    <glyph glyph-name="Dcroat.c2sc" horiz-adv-x="1128" 
d="M1028 527q0 -130 -41 -228.5t-118 -165t-188 -100t-252 -33.5h-296v467h-128v138h128v440h293q145 0 257.5 -34t189 -100t116 -162.5t39.5 -221.5zM571 467h-281v-329h103q64 0 123.5 5.5t112 21t96 42.5t74.5 70t48.5 104.5t17.5 145.5q0 109 -31 183t-91.5 117.5
t-147.5 61.5t-200 18h-105v-302h281v-138z" />
    <glyph glyph-name="Egrave.c2sc" horiz-adv-x="982" 
d="M317 138h560v-138h-717v1045h688v-138h-531v-302h475v-138h-475v-329zM462 1518l123 -349h-130l-161 349h168zM86 995z" />
    <glyph glyph-name="Eacute.c2sc" horiz-adv-x="982" 
d="M317 138h560v-138h-717v1045h688v-138h-531v-302h475v-138h-475v-329zM714 1518l-161 -349h-130l123 349h168zM208 995z" />
    <glyph glyph-name="Ecircumflex.c2sc" horiz-adv-x="982" 
d="M317 138h560v-138h-717v1045h688v-138h-531v-302h475v-138h-475v-329zM576 1518l210 -349h-140l-147 246h-4l-146 -246h-140l210 349h157zM148 995z" />
    <glyph glyph-name="Ecaron.c2sc" horiz-adv-x="982" 
d="M317 138h560v-138h-717v1045h688v-138h-531v-302h475v-138h-475v-329zM422 1169l-210 349h140l147 -246h4l146 246h140l-210 -349h-157zM150 995z" />
    <glyph glyph-name="Edieresis.c2sc" horiz-adv-x="982" 
d="M317 138h560v-138h-717v1045h688v-138h-531v-302h475v-138h-475v-329zM238 1216v167h159v-167h-159zM619 1216v167h159v-167h-159zM158 995z" />
    <glyph glyph-name="Emacron.c2sc" horiz-adv-x="982" 
d="M317 138h560v-138h-717v1045h688v-138h-531v-302h475v-138h-475v-329zM224 1345h540v-129h-540v129zM144 995z" />
    <glyph glyph-name="Ebreve.c2sc" horiz-adv-x="982" 
d="M317 138h560v-138h-717v1045h688v-138h-531v-302h475v-138h-475v-329zM498 1302q74 0 117.5 42t57.5 133h131q-4 -64 -25.5 -118t-60 -93.5t-94 -62t-126.5 -22.5t-126.5 22.5t-94 62t-60 93.5t-25.5 118h131q14 -91 57.5 -133t117.5 -42zM148 995z" />
    <glyph glyph-name="Edotaccent.c2sc" horiz-adv-x="982" 
d="M317 138h560v-138h-717v1045h688v-138h-531v-302h475v-138h-475v-329zM418 1216v173h163v-173h-163zM150 995z" />
    <glyph glyph-name="Eogonek.c2sc" horiz-adv-x="982" 
d="M877 0q-37 -27 -76 -59.5t-71.5 -68.5t-53.5 -73t-21 -72q0 -82 91 -82q30 0 61.5 5.5t68.5 17.5v-128q-29 -13 -69.5 -21.5t-89.5 -8.5q-98 0 -151.5 48t-53.5 129q0 50 18 94.5t48 83t67.5 71.5t76.5 60v4h-562v1045h688v-138h-531v-302h475v-138h-475v-329h560v-138z
" />
    <glyph glyph-name="Gcircumflex.c2sc" horiz-adv-x="1119" 
d="M672 113q17 0 37 1t40.5 3t39.5 5t33 6v271h-238v138h395v-510q-21 -9 -55.5 -18.5t-76 -17t-87 -12t-88.5 -4.5q-131 0 -236.5 36.5t-180 105t-115 167.5t-40.5 225q0 127 46 230.5t125.5 177t187 113.5t230.5 40q36 0 73 -3t69.5 -8t60.5 -12t47 -15v-138q-24 8 -53 15
t-59.5 12t-61.5 8t-60 3q-87 0 -166.5 -24.5t-141 -76t-98 -130.5t-36.5 -188q0 -107 30.5 -183t85 -124t129.5 -70.5t164 -22.5zM690 1518l210 -349h-140l-147 246h-4l-146 -246h-140l210 349h157zM262 995z" />
    <glyph glyph-name="Gbreve.c2sc" horiz-adv-x="1119" 
d="M672 113q17 0 37 1t40.5 3t39.5 5t33 6v271h-238v138h395v-510q-21 -9 -55.5 -18.5t-76 -17t-87 -12t-88.5 -4.5q-131 0 -236.5 36.5t-180 105t-115 167.5t-40.5 225q0 127 46 230.5t125.5 177t187 113.5t230.5 40q36 0 73 -3t69.5 -8t60.5 -12t47 -15v-138q-24 8 -53 15
t-59.5 12t-61.5 8t-60 3q-87 0 -166.5 -24.5t-141 -76t-98 -130.5t-36.5 -188q0 -107 30.5 -183t85 -124t129.5 -70.5t164 -22.5zM590 1302q74 0 117.5 42t57.5 133h131q-4 -64 -25.5 -118t-60 -93.5t-94 -62t-126.5 -22.5t-126.5 22.5t-94 62t-60 93.5t-25.5 118h131
q14 -91 57.5 -133t117.5 -42zM240 995z" />
    <glyph glyph-name="Gdotaccent.c2sc" horiz-adv-x="1119" 
d="M672 113q17 0 37 1t40.5 3t39.5 5t33 6v271h-238v138h395v-510q-21 -9 -55.5 -18.5t-76 -17t-87 -12t-88.5 -4.5q-131 0 -236.5 36.5t-180 105t-115 167.5t-40.5 225q0 127 46 230.5t125.5 177t187 113.5t230.5 40q36 0 73 -3t69.5 -8t60.5 -12t47 -15v-138q-24 8 -53 15
t-59.5 12t-61.5 8t-60 3q-87 0 -166.5 -24.5t-141 -76t-98 -130.5t-36.5 -188q0 -107 30.5 -183t85 -124t129.5 -70.5t164 -22.5zM533 1216v173h163v-173h-163zM265 995z" />
    <glyph glyph-name="Gcommaaccent.c2sc" horiz-adv-x="1119" 
d="M672 113q17 0 37 1t40.5 3t39.5 5t33 6v271h-238v138h395v-510q-21 -9 -55.5 -18.5t-76 -17t-87 -12t-88.5 -4.5q-131 0 -236.5 36.5t-180 105t-115 167.5t-40.5 225q0 127 46 230.5t125.5 177t187 113.5t230.5 40q36 0 73 -3t69.5 -8t60.5 -12t47 -15v-138q-24 8 -53 15
t-59.5 12t-61.5 8t-60 3q-87 0 -166.5 -24.5t-141 -76t-98 -130.5t-36.5 -188q0 -107 30.5 -183t85 -124t129.5 -70.5t164 -22.5zM587 -325q0 39 -23.5 56.5t-60.5 17.5v129q15 1 28 1q93 0 147.5 -42.5t54.5 -123.5q0 -50 -19 -99.5t-60 -103.5h-143q34 47 55 89t21 76z
" />
    <glyph glyph-name="Hcircumflex.c2sc" horiz-adv-x="1192" 
d="M875 0v467h-558v-467h-157v1045h157v-440h558v440h157v-1045h-157zM670 1518l210 -349h-140l-147 246h-4l-146 -246h-140l210 349h157zM242 995z" />
    <glyph glyph-name="Hbar.c2sc" horiz-adv-x="1192" 
d="M875 0v467h-558v-467h-157v756h-128v130h128v159h157v-159h558v159h157v-159h128v-130h-128v-756h-157zM875 605v151h-558v-151h558z" />
    <glyph glyph-name="Igrave.c2sc" horiz-adv-x="477" 
d="M160 0v1045h157v-1045h-157zM190 1518l123 -349h-130l-161 349h168zM-186 995z" />
    <glyph glyph-name="Iacute.c2sc" horiz-adv-x="477" 
d="M160 0v1045h157v-1045h-157zM472 1518l-161 -349h-130l123 349h168zM-34 995z" />
    <glyph glyph-name="Icircumflex.c2sc" horiz-adv-x="477" 
d="M160 0v1045h157v-1045h-157zM323 1518l210 -349h-140l-147 246h-4l-146 -246h-140l210 349h157zM-105 995z" />
    <glyph glyph-name="Itilde.c2sc" horiz-adv-x="477" 
d="M160 0v1045h157v-1045h-157zM-65 1223v23q0 34 7.5 67.5t27 61t52.5 44t81 16.5q41 0 80 -14.5t72 -32.5t64.5 -33t55.5 -15q31 0 45.5 22t14.5 65h122v-23q0 -34 -7.5 -67.5t-27 -61t-52.5 -44t-81 -16.5q-41 0 -80 14.5t-72 32.5t-64.5 33t-55.5 15q-31 0 -45.5 -22
t-14.5 -65h-122zM-104 995z" />
    <glyph glyph-name="Idieresis.c2sc" horiz-adv-x="477" 
d="M160 0v1045h157v-1045h-157zM-26 1216v167h159v-167h-159zM355 1216v167h159v-167h-159zM-106 995z" />
    <glyph glyph-name="Imacron.c2sc" horiz-adv-x="477" 
d="M160 0v1045h157v-1045h-157zM-23 1345h540v-129h-540v129zM-103 995z" />
    <glyph glyph-name="Ibreve.c2sc" horiz-adv-x="477" 
d="M160 0v1045h157v-1045h-157zM246 1302q74 0 117.5 42t57.5 133h131q-4 -64 -25.5 -118t-60 -93.5t-94 -62t-126.5 -22.5t-126.5 22.5t-94 62t-60 93.5t-25.5 118h131q14 -91 57.5 -133t117.5 -42zM-104 995z" />
    <glyph glyph-name="Idotaccent.c2sc" horiz-adv-x="477" 
d="M160 0v1045h157v-1045h-157zM165 1216v173h163v-173h-163zM-103 995z" />
    <glyph glyph-name="Iogonek.c2sc" horiz-adv-x="477" 
d="M160 1045h157v-1045l-60 -56.5t-53.5 -62.5t-38.5 -69t-15 -75q0 -40 22.5 -66t75.5 -26q26 0 56 5.5t67 17.5v-128q-29 -13 -69.5 -21.5t-81.5 -8.5q-53 0 -93 15t-66.5 42t-40 63t-13.5 78t11 80t31.5 74t48.5 70t62 68v1045z" />
    <glyph glyph-name="IJ.c2sc" horiz-adv-x="1057" 
d="M160 0v1045h157v-1045h-157zM750 1045h157v-810q0 -56 -19.5 -104t-57.5 -82.5t-95 -54t-132 -19.5q-46 0 -83.5 6.5t-65.5 17.5v141q27 -12 61.5 -19.5t73.5 -7.5q34 0 63.5 8t51 26.5t34 49.5t12.5 77v771z" />
    <glyph glyph-name="Jcircumflex.c2sc" horiz-adv-x="668" 
d="M361 1045h157v-810q0 -56 -19.5 -104t-57.5 -82.5t-95 -54t-132 -19.5q-46 0 -83.5 6.5t-65.5 17.5v141q27 -12 61.5 -19.5t73.5 -7.5q34 0 63.5 8t51 26.5t34 49.5t12.5 77v771zM514 1518l210 -349h-140l-147 246h-4l-146 -246h-140l210 349h157zM86 995z" />
    <glyph glyph-name="Kcommaaccent.c2sc" horiz-adv-x="1073" 
d="M160 0v1045h157v-518h4l484 518h191l-496 -525l533 -520h-201l-511 502h-4v-502h-157zM510 -325q0 39 -23.5 56.5t-60.5 17.5v129q15 1 28 1q93 0 147.5 -42.5t54.5 -123.5q0 -50 -19 -99.5t-60 -103.5h-143q34 47 55 89t21 76z" />
    <glyph glyph-name="Lacute.c2sc" horiz-adv-x="907" 
d="M317 1045v-907h540v-138h-697v1045h157zM470 1518l-161 -349h-130l123 349h168zM-36 995z" />
    <glyph glyph-name="Lcaron.c2sc" horiz-adv-x="907" 
d="M317 1045v-907h540v-138h-697v1045h157zM559 852q0 39 -23.5 56.5t-60.5 17.5v129q16 1 31 1q90 0 144.5 -43t54.5 -123q0 -51 -19 -100t-60 -103h-143q32 46 54 87t22 78z" />
    <glyph glyph-name="Lcommaaccent.c2sc" horiz-adv-x="907" 
d="M317 1045v-907h540v-138h-697v1045h157zM462 -325q0 39 -23.5 56.5t-60.5 17.5v129q15 1 28 1q93 0 147.5 -42.5t54.5 -123.5q0 -50 -19 -99.5t-60 -103.5h-143q34 47 55 89t21 76z" />
    <glyph glyph-name="Lslash.c2sc" horiz-adv-x="907" 
d="M626 584l-309 -125v-321h540v-138h-697v400l-134 -54v142l134 54v503h157v-444l309 125v-142z" />
    <glyph glyph-name="Ldot.c2sc" horiz-adv-x="907" 
d="M317 1045v-907h540v-138h-697v1045h157zM511 498v173h163v-173h-163z" />
    <glyph glyph-name="Nacute.c2sc" horiz-adv-x="1225" 
d="M731 487q114 -162 184 -283h5q-12 180 -12 398v443h157v-1045h-165l-405 571q-107 154 -185 284h-4q11 -193 11 -404v-451h-157v1045h176zM833 1518l-161 -349h-130l123 349h168zM327 995z" />
    <glyph glyph-name="Ncaron.c2sc" horiz-adv-x="1225" 
d="M731 487q114 -162 184 -283h5q-12 180 -12 398v443h157v-1045h-165l-405 571q-107 154 -185 284h-4q11 -193 11 -404v-451h-157v1045h176zM534 1169l-210 349h140l147 -246h4l146 246h140l-210 -349h-157zM262 995z" />
    <glyph glyph-name="Ntilde.c2sc" horiz-adv-x="1225" 
d="M731 487q114 -162 184 -283h5q-12 180 -12 398v443h157v-1045h-165l-405 571q-107 154 -185 284h-4q11 -193 11 -404v-451h-157v1045h176zM293 1223v23q0 34 7.5 67.5t27 61t52.5 44t81 16.5q41 0 80 -14.5t72 -32.5t64.5 -33t55.5 -15q31 0 45.5 22t14.5 65h122v-23
q0 -34 -7.5 -67.5t-27 -61t-52.5 -44t-81 -16.5q-41 0 -80 14.5t-72 32.5t-64.5 33t-55.5 15q-31 0 -45.5 -22t-14.5 -65h-122zM254 995z" />
    <glyph glyph-name="Ncommaaccent.c2sc" horiz-adv-x="1225" 
d="M731 487q114 -162 184 -283h5q-12 180 -12 398v443h157v-1045h-165l-405 571q-107 154 -185 284h-4q11 -193 11 -404v-451h-157v1045h176zM572 -325q0 39 -23.5 56.5t-60.5 17.5v129q15 1 28 1q93 0 147.5 -42.5t54.5 -123.5q0 -50 -19 -99.5t-60 -103.5h-143
q34 47 55 89t21 76z" />
    <glyph glyph-name="Ograve.c2sc" horiz-adv-x="1220" 
d="M1120 521q0 -118 -37 -218t-103.5 -173t-160 -114t-207.5 -41q-117 0 -212 41t-161.5 114t-102.5 173t-36 218q0 119 37 219.5t104 174t161 114.5t208 41q117 0 211.5 -41t160.5 -114.5t102 -174t36 -219.5zM957 521q0 101 -27 178t-74.5 129t-110.5 78t-135 26t-135 -26
t-110.5 -78t-74.5 -129t-27 -178t27.5 -177.5t74.5 -127.5t111 -77t136 -26t134.5 26t109.5 77t74 127.5t27 177.5zM551 1518l123 -349h-130l-161 349h168zM175 995z" />
    <glyph glyph-name="Oacute.c2sc" horiz-adv-x="1220" 
d="M1120 521q0 -118 -37 -218t-103.5 -173t-160 -114t-207.5 -41q-117 0 -212 41t-161.5 114t-102.5 173t-36 218q0 119 37 219.5t104 174t161 114.5t208 41q117 0 211.5 -41t160.5 -114.5t102 -174t36 -219.5zM957 521q0 101 -27 178t-74.5 129t-110.5 78t-135 26t-135 -26
t-110.5 -78t-74.5 -129t-27 -178t27.5 -177.5t74.5 -127.5t111 -77t136 -26t134.5 26t109.5 77t74 127.5t27 177.5zM837 1518l-161 -349h-130l123 349h168zM331 995z" />
    <glyph glyph-name="Ocircumflex.c2sc" horiz-adv-x="1220" 
d="M1120 521q0 -118 -37 -218t-103.5 -173t-160 -114t-207.5 -41q-117 0 -212 41t-161.5 114t-102.5 173t-36 218q0 119 37 219.5t104 174t161 114.5t208 41q117 0 211.5 -41t160.5 -114.5t102 -174t36 -219.5zM957 521q0 101 -27 178t-74.5 129t-110.5 78t-135 26t-135 -26
t-110.5 -78t-74.5 -129t-27 -178t27.5 -177.5t74.5 -127.5t111 -77t136 -26t134.5 26t109.5 77t74 127.5t27 177.5zM687 1518l210 -349h-140l-147 246h-4l-146 -246h-140l210 349h157zM259 995z" />
    <glyph glyph-name="Otilde.c2sc" horiz-adv-x="1220" 
d="M1120 521q0 -118 -37 -218t-103.5 -173t-160 -114t-207.5 -41q-117 0 -212 41t-161.5 114t-102.5 173t-36 218q0 119 37 219.5t104 174t161 114.5t208 41q117 0 211.5 -41t160.5 -114.5t102 -174t36 -219.5zM957 521q0 101 -27 178t-74.5 129t-110.5 78t-135 26t-135 -26
t-110.5 -78t-74.5 -129t-27 -178t27.5 -177.5t74.5 -127.5t111 -77t136 -26t134.5 26t109.5 77t74 127.5t27 177.5zM302 1223v23q0 34 7.5 67.5t27 61t52.5 44t81 16.5q41 0 80 -14.5t72 -32.5t64.5 -33t55.5 -15q31 0 45.5 22t14.5 65h122v-23q0 -34 -7.5 -67.5t-27 -61
t-52.5 -44t-81 -16.5q-41 0 -80 14.5t-72 32.5t-64.5 33t-55.5 15q-31 0 -45.5 -22t-14.5 -65h-122zM263 995z" />
    <glyph glyph-name="Odieresis.c2sc" horiz-adv-x="1220" 
d="M1120 521q0 -118 -37 -218t-103.5 -173t-160 -114t-207.5 -41q-117 0 -212 41t-161.5 114t-102.5 173t-36 218q0 119 37 219.5t104 174t161 114.5t208 41q117 0 211.5 -41t160.5 -114.5t102 -174t36 -219.5zM957 521q0 101 -27 178t-74.5 129t-110.5 78t-135 26t-135 -26
t-110.5 -78t-74.5 -129t-27 -178t27.5 -177.5t74.5 -127.5t111 -77t136 -26t134.5 26t109.5 77t74 127.5t27 177.5zM340 1216v167h159v-167h-159zM721 1216v167h159v-167h-159zM260 995z" />
    <glyph glyph-name="Omacron.c2sc" horiz-adv-x="1220" 
d="M1120 521q0 -118 -37 -218t-103.5 -173t-160 -114t-207.5 -41q-117 0 -212 41t-161.5 114t-102.5 173t-36 218q0 119 37 219.5t104 174t161 114.5t208 41q117 0 211.5 -41t160.5 -114.5t102 -174t36 -219.5zM957 521q0 101 -27 178t-74.5 129t-110.5 78t-135 26t-135 -26
t-110.5 -78t-74.5 -129t-27 -178t27.5 -177.5t74.5 -127.5t111 -77t136 -26t134.5 26t109.5 77t74 127.5t27 177.5zM342 1345h540v-129h-540v129zM262 995z" />
    <glyph glyph-name="Obreve.c2sc" horiz-adv-x="1220" 
d="M1120 521q0 -118 -37 -218t-103.5 -173t-160 -114t-207.5 -41q-117 0 -212 41t-161.5 114t-102.5 173t-36 218q0 119 37 219.5t104 174t161 114.5t208 41q117 0 211.5 -41t160.5 -114.5t102 -174t36 -219.5zM957 521q0 101 -27 178t-74.5 129t-110.5 78t-135 26t-135 -26
t-110.5 -78t-74.5 -129t-27 -178t27.5 -177.5t74.5 -127.5t111 -77t136 -26t134.5 26t109.5 77t74 127.5t27 177.5zM606 1302q74 0 117.5 42t57.5 133h131q-4 -64 -25.5 -118t-60 -93.5t-94 -62t-126.5 -22.5t-126.5 22.5t-94 62t-60 93.5t-25.5 118h131q14 -91 57.5 -133
t117.5 -42zM256 995z" />
    <glyph glyph-name="Ohungarumlaut.c2sc" horiz-adv-x="1220" 
d="M1120 521q0 -118 -37 -218t-103.5 -173t-160 -114t-207.5 -41q-117 0 -212 41t-161.5 114t-102.5 173t-36 218q0 119 37 219.5t104 174t161 114.5t208 41q117 0 211.5 -41t160.5 -114.5t102 -174t36 -219.5zM957 521q0 101 -27 178t-74.5 129t-110.5 78t-135 26t-135 -26
t-110.5 -78t-74.5 -129t-27 -178t27.5 -177.5t74.5 -127.5t111 -77t136 -26t134.5 26t109.5 77t74 127.5t27 177.5zM676 1518l-157 -349h-129l123 349h163zM987 1518l-177 -349h-130l143 349h164zM330 995z" />
    <glyph glyph-name="Oslash.c2sc" horiz-adv-x="1220" 
d="M100 68l100 109q-48 69 -74 156.5t-26 187.5q0 119 37 219.5t104 174t161 114.5t208 41q94 0 173.5 -27t142.5 -76l95 103l99 -93l-101 -110q49 -69 75 -157t26 -189q0 -118 -37 -218t-103.5 -173t-160 -114t-207.5 -41q-96 0 -175.5 27t-142.5 76l-95 -103zM957 521
q0 68 -12.5 124.5t-35.5 102.5l-515 -560q45 -38 100 -56.5t118 -18.5q72 0 134.5 26t109.5 77t74 127.5t27 177.5zM263 521q0 -67 12 -123t35 -102l515 561q-45 37 -99.5 56t-115.5 19q-72 0 -135 -26t-110.5 -78t-74.5 -129t-27 -178z" />
    <glyph glyph-name="Oslashacute.c2sc" horiz-adv-x="1220" 
d="M100 68l100 109q-48 69 -74 156.5t-26 187.5q0 119 37 219.5t104 174t161 114.5t208 41q94 0 173.5 -27t142.5 -76l95 103l99 -93l-101 -110q49 -69 75 -157t26 -189q0 -118 -37 -218t-103.5 -173t-160 -114t-207.5 -41q-96 0 -175.5 27t-142.5 76l-95 -103zM957 521
q0 68 -12.5 124.5t-35.5 102.5l-515 -560q45 -38 100 -56.5t118 -18.5q72 0 134.5 26t109.5 77t74 127.5t27 177.5zM263 521q0 -67 12 -123t35 -102l515 561q-45 37 -99.5 56t-115.5 19q-72 0 -135 -26t-110.5 -78t-74.5 -129t-27 -178zM838 1518l-161 -349h-130l123 349
h168zM332 995z" />
    <glyph glyph-name="OE.c2sc" horiz-adv-x="1779" 
d="M1114 138h560v-138h-717v140h-4q-57 -77 -146.5 -121t-202.5 -44q-114 0 -207 41t-159 114t-102 173t-36 218q0 119 37 219.5t103.5 174t158 114.5t199.5 41q118 0 208 -43.5t147 -119.5h4v138h688v-138h-531v-302h475v-138h-475v-329zM957 521q0 101 -27 178t-74.5 129
t-110.5 78t-135 26t-135 -26t-110.5 -78t-74.5 -129t-27 -178t27.5 -177.5t74.5 -127.5t111 -77t136 -26t134.5 26t109.5 77t74 127.5t27 177.5z" />
    <glyph glyph-name="Racute.c2sc" horiz-adv-x="1035" 
d="M646 439l329 -439h-187l-306 421h-165v-421h-157v1045h329q74 0 130.5 -8t101.5 -24q99 -35 148.5 -105t49.5 -168q0 -62 -20.5 -112t-57 -87t-86.5 -62t-109 -36v-4zM317 907v-348h168q144 0 207.5 45.5t63.5 136.5q-1 86 -62.5 126t-175.5 40h-201zM711 1518l-161 -349
h-130l123 349h168zM205 995z" />
    <glyph glyph-name="Rcaron.c2sc" horiz-adv-x="1035" 
d="M646 439l329 -439h-187l-306 421h-165v-421h-157v1045h329q74 0 130.5 -8t101.5 -24q99 -35 148.5 -105t49.5 -168q0 -62 -20.5 -112t-57 -87t-86.5 -62t-109 -36v-4zM317 907v-348h168q144 0 207.5 45.5t63.5 136.5q-1 86 -62.5 126t-175.5 40h-201zM431 1169l-210 349
h140l147 -246h4l146 246h140l-210 -349h-157zM159 995z" />
    <glyph glyph-name="Rcommaaccent.c2sc" horiz-adv-x="1035" 
d="M646 439l329 -439h-187l-306 421h-165v-421h-157v1045h329q74 0 130.5 -8t101.5 -24q99 -35 148.5 -105t49.5 -168q0 -62 -20.5 -112t-57 -87t-86.5 -62t-109 -36v-4zM317 907v-348h168q144 0 207.5 45.5t63.5 136.5q-1 86 -62.5 126t-175.5 40h-201zM502 -325
q0 39 -23.5 56.5t-60.5 17.5v129q15 1 28 1q93 0 147.5 -42.5t54.5 -123.5q0 -50 -19 -99.5t-60 -103.5h-143q34 47 55 89t21 76z" />
    <glyph glyph-name="Sacute.c2sc" horiz-adv-x="988" 
d="M290 763q0 -45 19 -73.5t51 -46.5t72.5 -29t88.5 -21q59 -12 119 -28t108.5 -47t79 -84t30.5 -140q0 -84 -31.5 -144.5t-88.5 -99.5t-135.5 -57t-172.5 -18q-42 0 -85.5 5t-83.5 13.5t-73 20t-51 22.5v142q29 -15 64 -27t72.5 -20.5t75.5 -13t72 -4.5q48 0 97 5.5
t90.5 23t67.5 53t26 91.5q0 48 -20.5 78.5t-54.5 49t-79 29.5t-93 21q-60 12 -116 27.5t-101.5 46t-74 82t-28.5 135.5q0 82 29.5 141.5t80.5 98t118.5 57t143.5 18.5q89 0 167.5 -16t138.5 -43v-143q-64 27 -139 45.5t-159 18.5q-109 0 -167 -41.5t-58 -127.5zM732 1518
l-161 -349h-130l123 349h168zM226 995z" />
    <glyph glyph-name="Scircumflex.c2sc" horiz-adv-x="988" 
d="M290 763q0 -45 19 -73.5t51 -46.5t72.5 -29t88.5 -21q59 -12 119 -28t108.5 -47t79 -84t30.5 -140q0 -84 -31.5 -144.5t-88.5 -99.5t-135.5 -57t-172.5 -18q-42 0 -85.5 5t-83.5 13.5t-73 20t-51 22.5v142q29 -15 64 -27t72.5 -20.5t75.5 -13t72 -4.5q48 0 97 5.5
t90.5 23t67.5 53t26 91.5q0 48 -20.5 78.5t-54.5 49t-79 29.5t-93 21q-60 12 -116 27.5t-101.5 46t-74 82t-28.5 135.5q0 82 29.5 141.5t80.5 98t118.5 57t143.5 18.5q89 0 167.5 -16t138.5 -43v-143q-64 27 -139 45.5t-159 18.5q-109 0 -167 -41.5t-58 -127.5zM580 1518
l210 -349h-140l-147 246h-4l-146 -246h-140l210 349h157zM152 995z" />
    <glyph glyph-name="Scaron.c2sc" horiz-adv-x="988" 
d="M290 763q0 -45 19 -73.5t51 -46.5t72.5 -29t88.5 -21q59 -12 119 -28t108.5 -47t79 -84t30.5 -140q0 -84 -31.5 -144.5t-88.5 -99.5t-135.5 -57t-172.5 -18q-42 0 -85.5 5t-83.5 13.5t-73 20t-51 22.5v142q29 -15 64 -27t72.5 -20.5t75.5 -13t72 -4.5q48 0 97 5.5
t90.5 23t67.5 53t26 91.5q0 48 -20.5 78.5t-54.5 49t-79 29.5t-93 21q-60 12 -116 27.5t-101.5 46t-74 82t-28.5 135.5q0 82 29.5 141.5t80.5 98t118.5 57t143.5 18.5q89 0 167.5 -16t138.5 -43v-143q-64 27 -139 45.5t-159 18.5q-109 0 -167 -41.5t-58 -127.5zM432 1169
l-210 349h140l147 -246h4l146 246h140l-210 -349h-157zM160 995z" />
    <glyph glyph-name="Scedilla.c2sc" horiz-adv-x="988" 
d="M858 294q0 -74 -24.5 -129.5t-69 -94t-107 -61t-138.5 -29.5l-29 -106q40 -6 73.5 -18.5t57.5 -32.5t37 -48.5t13 -65.5q0 -52 -23 -89.5t-61.5 -62t-88.5 -36t-104 -11.5q-43 0 -77.5 5.5t-55.5 13.5v113q12 -4 27.5 -7t32 -5.5t32 -3.5t27.5 -1q29 0 56.5 3.5t49.5 13
t35.5 25t13.5 39.5q0 21 -14 35.5t-39.5 23.5t-62 13.5t-81.5 6.5l57 191q-39 2 -78 7.5t-73.5 14t-62 18.5t-44.5 20v142q29 -15 64 -27t72.5 -20.5t75.5 -13t72 -4.5q48 0 98 5.5t90.5 23.5t66.5 52.5t26 91.5q0 48 -20.5 78.5t-54.5 49t-79 29.5t-93 21q-60 12 -116 27.5
t-101.5 46t-74 82t-28.5 135.5q0 82 29.5 141.5t80.5 98t118.5 57t143.5 18.5q89 0 167.5 -16t138.5 -43v-143q-64 27 -139 45.5t-159 18.5q-109 0 -167 -41.5t-58 -127.5q0 -45 19 -73.5t51 -46.5t72.5 -29t88.5 -21q59 -12 119 -28t108.5 -47t79 -84t30.5 -140z" />
    <glyph glyph-name="Scommaaccent.c2sc" horiz-adv-x="988" 
d="M290 763q0 -45 19 -73.5t51 -46.5t72.5 -29t88.5 -21q59 -12 119 -28t108.5 -47t79 -84t30.5 -140q0 -84 -31.5 -144.5t-88.5 -99.5t-135.5 -57t-172.5 -18q-42 0 -85.5 5t-83.5 13.5t-73 20t-51 22.5v142q29 -15 64 -27t72.5 -20.5t75.5 -13t72 -4.5q48 0 97 5.5
t90.5 23t67.5 53t26 91.5q0 48 -20.5 78.5t-54.5 49t-79 29.5t-93 21q-60 12 -116 27.5t-101.5 46t-74 82t-28.5 135.5q0 82 29.5 141.5t80.5 98t118.5 57t143.5 18.5q89 0 167.5 -16t138.5 -43v-143q-64 27 -139 45.5t-159 18.5q-109 0 -167 -41.5t-58 -127.5zM433 -325
q0 39 -23.5 56.5t-60.5 17.5v129q15 1 28 1q93 0 147.5 -42.5t54.5 -123.5q0 -50 -19 -99.5t-60 -103.5h-143q34 47 55 89t21 76z" />
    <glyph glyph-name="Tcaron.c2sc" horiz-adv-x="951" 
d="M397 907h-377v138h911v-138h-377v-907h-157v907zM394 1169l-210 349h140l147 -246h4l146 246h140l-210 -349h-157zM122 995z" />
    <glyph glyph-name="Tcommaaccent.c2sc" horiz-adv-x="951" 
d="M397 907h-377v138h911v-138h-377v-907h-157v907zM452 -325q0 39 -23.5 56.5t-60.5 17.5v129q15 1 28 1q93 0 147.5 -42.5t54.5 -123.5q0 -50 -19 -99.5t-60 -103.5h-143q34 47 55 89t21 76z" />
    <glyph glyph-name="Tbar.c2sc" horiz-adv-x="951" 
d="M758 467h-204v-467h-157v467h-199v138h199v302h-377v138h911v-138h-377v-302h204v-138z" />
    <glyph glyph-name="Ugrave.c2sc" horiz-adv-x="1163" 
d="M582 113q97 0 156.5 38t87.5 100q16 35 23 78.5t7 89.5v626h157v-641q0 -59 -9 -111.5t-29 -97.5q-21 -49 -56 -89.5t-83.5 -69.5t-112 -45t-143.5 -16q-85 0 -152 18.5t-117 51.5t-83.5 79t-51.5 101q-26 80 -26 182v638h157v-626q0 -42 6 -81.5t19 -72.5
q26 -69 86.5 -110t163.5 -42zM534 1518l123 -349h-130l-161 349h168zM158 995z" />
    <glyph glyph-name="Uacute.c2sc" horiz-adv-x="1163" 
d="M582 113q97 0 156.5 38t87.5 100q16 35 23 78.5t7 89.5v626h157v-641q0 -59 -9 -111.5t-29 -97.5q-21 -49 -56 -89.5t-83.5 -69.5t-112 -45t-143.5 -16q-85 0 -152 18.5t-117 51.5t-83.5 79t-51.5 101q-26 80 -26 182v638h157v-626q0 -42 6 -81.5t19 -72.5
q26 -69 86.5 -110t163.5 -42zM804 1518l-161 -349h-130l123 349h168zM298 995z" />
    <glyph glyph-name="Ucircumflex.c2sc" horiz-adv-x="1163" 
d="M582 113q97 0 156.5 38t87.5 100q16 35 23 78.5t7 89.5v626h157v-641q0 -59 -9 -111.5t-29 -97.5q-21 -49 -56 -89.5t-83.5 -69.5t-112 -45t-143.5 -16q-85 0 -152 18.5t-117 51.5t-83.5 79t-51.5 101q-26 80 -26 182v638h157v-626q0 -42 6 -81.5t19 -72.5
q26 -69 86.5 -110t163.5 -42zM653 1518l210 -349h-140l-147 246h-4l-146 -246h-140l210 349h157zM225 995z" />
    <glyph glyph-name="Utilde.c2sc" horiz-adv-x="1163" 
d="M582 113q97 0 156.5 38t87.5 100q16 35 23 78.5t7 89.5v626h157v-641q0 -59 -9 -111.5t-29 -97.5q-21 -49 -56 -89.5t-83.5 -69.5t-112 -45t-143.5 -16q-85 0 -152 18.5t-117 51.5t-83.5 79t-51.5 101q-26 80 -26 182v638h157v-626q0 -42 6 -81.5t19 -72.5
q26 -69 86.5 -110t163.5 -42zM272 1223v23q0 34 7.5 67.5t27 61t52.5 44t81 16.5q41 0 80 -14.5t72 -32.5t64.5 -33t55.5 -15q31 0 45.5 22t14.5 65h122v-23q0 -34 -7.5 -67.5t-27 -61t-52.5 -44t-81 -16.5q-41 0 -80 14.5t-72 32.5t-64.5 33t-55.5 15q-31 0 -45.5 -22
t-14.5 -65h-122zM233 995z" />
    <glyph glyph-name="Udieresis.c2sc" horiz-adv-x="1163" 
d="M582 113q97 0 156.5 38t87.5 100q16 35 23 78.5t7 89.5v626h157v-641q0 -59 -9 -111.5t-29 -97.5q-21 -49 -56 -89.5t-83.5 -69.5t-112 -45t-143.5 -16q-85 0 -152 18.5t-117 51.5t-83.5 79t-51.5 101q-26 80 -26 182v638h157v-626q0 -42 6 -81.5t19 -72.5
q26 -69 86.5 -110t163.5 -42zM320 1216v167h159v-167h-159zM701 1216v167h159v-167h-159zM240 995z" />
    <glyph glyph-name="Umacron.c2sc" horiz-adv-x="1163" 
d="M582 113q97 0 156.5 38t87.5 100q16 35 23 78.5t7 89.5v626h157v-641q0 -59 -9 -111.5t-29 -97.5q-21 -49 -56 -89.5t-83.5 -69.5t-112 -45t-143.5 -16q-85 0 -152 18.5t-117 51.5t-83.5 79t-51.5 101q-26 80 -26 182v638h157v-626q0 -42 6 -81.5t19 -72.5
q26 -69 86.5 -110t163.5 -42zM312 1345h540v-129h-540v129zM232 995z" />
    <glyph glyph-name="Ubreve.c2sc" horiz-adv-x="1163" 
d="M582 113q97 0 156.5 38t87.5 100q16 35 23 78.5t7 89.5v626h157v-641q0 -59 -9 -111.5t-29 -97.5q-21 -49 -56 -89.5t-83.5 -69.5t-112 -45t-143.5 -16q-85 0 -152 18.5t-117 51.5t-83.5 79t-51.5 101q-26 80 -26 182v638h157v-626q0 -42 6 -81.5t19 -72.5
q26 -69 86.5 -110t163.5 -42zM586 1302q74 0 117.5 42t57.5 133h131q-4 -64 -25.5 -118t-60 -93.5t-94 -62t-126.5 -22.5t-126.5 22.5t-94 62t-60 93.5t-25.5 118h131q14 -91 57.5 -133t117.5 -42zM236 995z" />
    <glyph glyph-name="Uring.c2sc" horiz-adv-x="1163" 
d="M582 113q97 0 156.5 38t87.5 100q16 35 23 78.5t7 89.5v626h157v-641q0 -59 -9 -111.5t-29 -97.5q-21 -49 -56 -89.5t-83.5 -69.5t-112 -45t-143.5 -16q-85 0 -152 18.5t-117 51.5t-83.5 79t-51.5 101q-26 80 -26 182v638h157v-626q0 -42 6 -81.5t19 -72.5
q26 -69 86.5 -110t163.5 -42zM583 1145q-48 0 -90 13.5t-72.5 38.5t-48.5 61t-18 82t18 82t48.5 61t72.5 38.5t90 13.5t90 -13.5t72.5 -38.5t48.5 -61t18 -82t-18 -82t-48.5 -61t-72.5 -38.5t-90 -13.5zM583 1437q-45 0 -75.5 -25t-30.5 -72t30.5 -72t75.5 -25t75.5 25
t30.5 72t-30.5 72t-75.5 25zM233 995z" />
    <glyph glyph-name="Uhungarumlaut.c2sc" horiz-adv-x="1163" 
d="M582 113q97 0 156.5 38t87.5 100q16 35 23 78.5t7 89.5v626h157v-641q0 -59 -9 -111.5t-29 -97.5q-21 -49 -56 -89.5t-83.5 -69.5t-112 -45t-143.5 -16q-85 0 -152 18.5t-117 51.5t-83.5 79t-51.5 101q-26 80 -26 182v638h157v-626q0 -42 6 -81.5t19 -72.5
q26 -69 86.5 -110t163.5 -42zM652 1518l-157 -349h-129l123 349h163zM963 1518l-177 -349h-130l143 349h164zM306 995z" />
    <glyph glyph-name="Uogonek.c2sc" horiz-adv-x="1163" 
d="M688 -1q-26 -9 -61.5 -15.5t-77.5 -6.5q-73 0 -134 18t-108 50.5t-80 78.5t-51 101q-26 80 -26 182v638h157v-626q0 -42 6 -81.5t19 -72.5q26 -68 86.5 -110t163.5 -42q98 0 157 38t87 100q16 35 23 78.5t7 89.5v626h157v-648q0 -65 -12 -116.5t-32 -93t-46.5 -75
t-56.5 -63.5l-71.5 -74.5t-61.5 -76t-43 -79t-16 -82.5q0 -48 27.5 -70t75.5 -22q28 0 59 5.5t68 17.5v-128q-29 -13 -68.5 -21.5t-88.5 -8.5q-48 0 -87.5 11.5t-68 34.5t-44.5 57t-16 80q0 40 12 82t33.5 81.5t50.5 75t63 64.5z" />
    <glyph glyph-name="Wgrave.c2sc" horiz-adv-x="1480" 
d="M1037 171q32 135 76 283l178 591h159l-330 -1045h-171l-150 585q-32 126 -57 257h-4q-24 -126 -57 -257l-150 -585h-171l-330 1045h159l178 -592q25 -82 76 -282h4q38 175 65 283l154 591h149l153 -591q40 -158 65 -283h4zM679 1518l123 -349h-130l-161 349h168zM303 995
z" />
    <glyph glyph-name="Wacute.c2sc" horiz-adv-x="1480" 
d="M1037 171q32 135 76 283l178 591h159l-330 -1045h-171l-150 585q-32 126 -57 257h-4q-24 -126 -57 -257l-150 -585h-171l-330 1045h159l178 -592q25 -82 76 -282h4q38 175 65 283l154 591h149l153 -591q40 -158 65 -283h4zM973 1518l-161 -349h-130l123 349h168zM467 995
z" />
    <glyph glyph-name="Wcircumflex.c2sc" horiz-adv-x="1480" 
d="M1037 171q32 135 76 283l178 591h159l-330 -1045h-171l-150 585q-32 126 -57 257h-4q-24 -126 -57 -257l-150 -585h-171l-330 1045h159l178 -592q25 -82 76 -282h4q38 175 65 283l154 591h149l153 -591q40 -158 65 -283h4zM820 1518l210 -349h-140l-147 246h-4l-146 -246
h-140l210 349h157zM392 995z" />
    <glyph glyph-name="Wdieresis.c2sc" horiz-adv-x="1480" 
d="M1037 171q32 135 76 283l178 591h159l-330 -1045h-171l-150 585q-32 126 -57 257h-4q-24 -126 -57 -257l-150 -585h-171l-330 1045h159l178 -592q25 -82 76 -282h4q38 175 65 283l154 591h149l153 -591q40 -158 65 -283h4zM471 1216v167h159v-167h-159zM852 1216v167h159
v-167h-159zM391 995z" />
    <glyph glyph-name="Ygrave.c2sc" horiz-adv-x="981" 
d="M569 394v-394h-157v394l-382 651h163l294 -512h7l294 512h163zM436 1518l123 -349h-130l-161 349h168zM60 995z" />
    <glyph glyph-name="Yacute.c2sc" horiz-adv-x="981" 
d="M569 394v-394h-157v394l-382 651h163l294 -512h7l294 512h163zM715 1518l-161 -349h-130l123 349h168zM209 995z" />
    <glyph glyph-name="Ycircumflex.c2sc" horiz-adv-x="981" 
d="M569 394v-394h-157v394l-382 651h163l294 -512h7l294 512h163zM571 1518l210 -349h-140l-147 246h-4l-146 -246h-140l210 349h157zM143 995z" />
    <glyph glyph-name="Ydieresis.c2sc" horiz-adv-x="981" 
d="M569 394v-394h-157v394l-382 651h163l294 -512h7l294 512h163zM222 1216v167h159v-167h-159zM603 1216v167h159v-167h-159zM142 995z" />
    <glyph glyph-name="Zacute.c2sc" 
d="M933 1045v-99l-617 -808h624v-138h-830v99l619 808h-605v138h809zM724 1518l-161 -349h-130l123 349h168zM218 995z" />
    <glyph glyph-name="Zcaron.c2sc" 
d="M933 1045v-99l-617 -808h624v-138h-830v99l619 808h-605v138h809zM441 1169l-210 349h140l147 -246h4l146 246h140l-210 -349h-157zM169 995z" />
    <glyph glyph-name="Zdotaccent.c2sc" 
d="M933 1045v-99l-617 -808h624v-138h-830v99l619 808h-605v138h809zM436 1216v173h163v-173h-163zM168 995z" />
    <glyph glyph-name="Eng.c2sc" horiz-adv-x="1225" 
d="M1065 1045v-1175q0 -66 -18.5 -118.5t-56.5 -89t-97.5 -56t-140.5 -19.5q-24 0 -47 2t-43 6v134q17 -3 34.5 -5t36.5 -2q96 0 137.5 37.5t41.5 120.5v108l-417 583q-107 154 -185 284h-4q11 -193 11 -404v-451h-157v1045h176l395 -558q114 -162 184 -283h5
q-12 180 -12 398v443h157z" />
    <glyph glyph-name="Eth.c2sc" horiz-adv-x="1128" 
d="M1028 527q0 -130 -41 -228.5t-118 -165t-188 -100t-252 -33.5h-296v467h-128v138h128v440h293q145 0 257.5 -34t189 -100t116 -162.5t39.5 -221.5zM571 467h-281v-329h103q64 0 123.5 5.5t112 21t96 42.5t74.5 70t48.5 104.5t17.5 145.5q0 109 -31 183t-91.5 117.5
t-147.5 61.5t-200 18h-105v-302h281v-138z" />
    <glyph glyph-name="Thorn.c2sc" horiz-adv-x="965" 
d="M317 0h-157v1045h157v-202h179q99 0 174 -21.5t125 -60.5t75 -94t25 -122q0 -84 -36 -144.5t-100 -100t-150 -58.5t-187 -19q-23 0 -49.5 1t-55.5 4v-228zM317 368q26 -3 54 -5t65 -2q149 0 222.5 48.5t73.5 133.5q0 81 -60 121.5t-188 40.5h-167v-337z" />
    <glyph glyph-name="a.superior" horiz-adv-x="777" 
d="M531 596h-4q-15 -19 -36.5 -37t-48.5 -32.5t-60.5 -23.5t-70.5 -9q-51 0 -94 15.5t-74.5 45t-49.5 71t-18 93.5q0 53 19.5 96.5t54.5 74.5t83.5 48t105.5 17q52 0 99 -8.5t84 -20.5h4v50q1 67 -43 107t-140 40q-52 0 -104.5 -10.5t-100.5 -28.5v118q39 18 98.5 30
t122.5 12q146 0 227.5 -67.5t81.5 -191.5v-472h-125zM525 810q-35 10 -79.5 17t-89.5 7q-29 0 -54.5 -6.5t-44 -21t-29.5 -36.5t-11 -52q0 -48 32 -75.5t83 -27.5q57 0 105.5 23.5t87.5 58.5v113z" />
    <glyph glyph-name="b.superior" horiz-adv-x="846" 
d="M629 879q0 55 -11.5 100t-35 77t-58 49.5t-80.5 17.5q-30 0 -57 -7.5t-50.5 -19.5t-43 -27t-36.5 -31v-321q10 -14 25.5 -32t37 -33.5t50 -26t64.5 -10.5q52 0 89 20t60.5 55t34.5 83.5t11 105.5zM771 875q0 -97 -27.5 -168.5t-73 -118.5t-103.5 -70.5t-118 -23.5
q-58 0 -107.5 26t-83.5 79h-4l-23 -86h-116v1026h142v-386h4q40 41 92.5 65.5t115.5 25.5q61 0 115.5 -23.5t96 -69.5t66 -115t24.5 -161z" />
    <glyph glyph-name="c.superior" horiz-adv-x="687" 
d="M434 1244q52 0 100.5 -11t81.5 -30v-116q-46 18 -86.5 27t-81.5 9q-40 0 -81.5 -12.5t-75 -43t-54 -81.5t-20.5 -124q0 -54 15.5 -99.5t45.5 -78.5t74 -51t101 -18q44 0 88 9t86 27v-116q-13 -8 -33.5 -15.5t-45.5 -13t-53.5 -9t-56.5 -3.5q-74 0 -140 22.5t-115.5 68.5
t-78.5 114.5t-29 160.5q0 104 33 177t85 119t116 67t125 21z" />
    <glyph glyph-name="d.superior" horiz-adv-x="845" 
d="M216 864q0 -123 50.5 -186t136.5 -63q34 0 63 10t53 25t41.5 32t27.5 31v329q-36 36 -82 58.5t-99 22.5q-33 0 -66.5 -14t-61.5 -44.5t-45.5 -80t-17.5 -120.5zM74 860q0 82 23 152t64 121.5t98.5 81t127.5 29.5q57 0 108 -22t89 -63h4v380h142v-1026h-116l-20 80h-4
q-14 -18 -34 -35.5t-46.5 -31.5t-59 -23t-70.5 -9q-71 0 -127.5 28t-96.5 77.5t-61 116.5t-21 144z" />
    <glyph glyph-name="e.superior" horiz-adv-x="773" 
d="M401 1123q-40 0 -71.5 -15t-54 -39.5t-36 -55.5t-18.5 -63h338q-2 85 -43 129t-115 44zM466 615q114 0 207 36v-116q-38 -19 -99 -30t-125 -11q-76 0 -144 19t-119 62t-81 112t-30 168q0 95 26.5 167.5t72.5 121.5t106.5 74.5t128.5 25.5q63 0 116.5 -21.5t92 -66
t60 -112.5t21.5 -162v-22.5t-1 -26.5h-483q2 -59 20.5 -100.5t51.5 -67.5t78.5 -38t100.5 -12z" />
    <glyph glyph-name="f.superior" horiz-adv-x="503" 
d="M538 1426q-26 5 -51.5 7.5t-49.5 2.5q-29 0 -55 -6.5t-46 -22.5t-31.5 -44t-11.5 -69v-68h196v-117h-196v-596h-142v596h-116v117h116v65q0 73 22.5 124t60.5 82.5t87 45.5t103 14q39 0 69 -4t45 -9v-118z" />
    <glyph glyph-name="g.superior" horiz-adv-x="841" 
d="M217 864q0 -118 50.5 -183.5t136.5 -65.5q34 0 63 10t53 25t41.5 32t27.5 31v315q-32 39 -80 67t-103 28q-32 0 -65.5 -14.5t-61 -46t-45 -81t-17.5 -117.5zM731 509q0 -87 -30 -151t-82.5 -105.5t-125 -61.5t-157.5 -20q-68 0 -125.5 12t-90.5 30v118q51 -20 99.5 -29.5
t110.5 -9.5q126 0 192.5 57.5t66.5 167.5v73h-4q-14 -18 -34.5 -35.5t-45.5 -30.5t-56.5 -21.5t-69.5 -8.5q-71 0 -127.5 28t-95.5 77t-60 116t-21 144q0 82 22.5 152t64 122t100 81.5t129.5 29.5q55 0 107 -23.5t93 -74.5h4l20 80h116v-717z" />
    <glyph glyph-name="h.superior" horiz-adv-x="847" 
d="M256 1127h4q42 51 101.5 84t136.5 33q45 0 88 -13.5t76.5 -44.5t54 -82.5t20.5 -126.5v-464h-142v456q0 74 -34.5 112t-99.5 38q-60 -1 -111.5 -34t-92.5 -92v-480h-142v1026h141v-412z" />
    <glyph glyph-name="i.superior" horiz-adv-x="368" 
d="M113 513v713h142v-713h-142zM110 1410v147h148v-147h-148z" />
    <glyph glyph-name="j.superior" horiz-adv-x="379" 
d="M266 388q0 -104 -66 -160.5t-188 -56.5q-32 0 -63 5t-49 11v118q23 -6 48 -9.5t50 -3.5q69 0 97.5 29t28.5 89v816h142v-838zM121 1410v147h148v-147h-148z" />
    <glyph glyph-name="k.superior" horiz-adv-x="783" 
d="M586 1226h177l-343 -328l342 -385h-170l-332 376h-3v-376h-142v1026h142v-627h3z" />
    <glyph glyph-name="l.superior" horiz-adv-x="372" 
d="M115 513v1026h142v-1026h-142z" />
    <glyph glyph-name="m.superior" horiz-adv-x="1294" 
d="M718 513h-142v449q0 157 -125 157q-59 -1 -108.5 -34t-90.5 -92v-480h-142v713h122l17 -101h4q41 52 98 85t127 34q79 0 129 -33.5t78 -99.5h5q47 63 106.5 97.5t139.5 35.5q38 0 80.5 -10.5t80.5 -38t62.5 -79.5t24.5 -129v-474h-142v454q0 150 -125 152
q-58 0 -108 -33.5t-91 -92.5v-480z" />
    <glyph glyph-name="uni207F" unicode="&#x207f;" horiz-adv-x="842" 
d="M249 1125h4q42 50 99.5 83.5t138.5 35.5q47 0 90 -13.5t76.5 -44.5t54 -82.5t20.5 -126.5v-464h-142v456q0 74 -34.5 112t-99.5 38q-59 0 -111 -33.5t-93 -92.5v-480h-142v713h122z" />
    <glyph glyph-name="o.superior" horiz-adv-x="838" 
d="M621 869q0 64 -14.5 111.5t-41.5 79t-64 47.5t-82 16q-92 0 -147 -64t-55 -190q0 -64 14.5 -111.5t41.5 -79t64.5 -47.5t82.5 -16q90 0 145.5 63.5t55.5 190.5zM763 869q0 -83 -25.5 -152t-71.5 -118.5t-108.5 -77t-137.5 -27.5q-77 0 -140.5 27.5t-109 77t-70.5 118.5
t-25 152t25.5 152t71.5 118.5t109 77t138 27.5q77 0 140.5 -27.5t108.5 -77t70 -118.5t25 -152z" />
    <glyph glyph-name="p.superior" horiz-adv-x="841" 
d="M624 879q0 55 -11.5 100t-34.5 77t-57 49.5t-79 17.5q-32 0 -60 -8t-52 -21.5t-43.5 -30.5t-34.5 -35v-332q29 -36 77.5 -58.5t98.5 -22.5q52 0 89 20t61 55t35 83.5t11 105.5zM249 1140h4q35 47 92 75.5t119 28.5q61 0 115.5 -23.5t96 -69.5t66 -115t24.5 -161
q0 -97 -28 -168.5t-73.5 -118.5t-103.5 -70.5t-118 -23.5q-58 0 -108 23t-79 55h-4v-383h-142v1037h116z" />
    <glyph glyph-name="q.superior" horiz-adv-x="841" 
d="M217 864q0 -120 50.5 -184.5t136.5 -64.5q34 0 63 10t53 25t41.5 32t27.5 31v315q-32 39 -80 67t-103 28q-32 0 -65.5 -14.5t-61 -46t-45 -80.5t-17.5 -118zM595 1146l20 80h116v-1037h-142v401h-4q-13 -18 -33 -35t-46 -30.5t-57.5 -22t-69.5 -8.5q-71 0 -127.5 28
t-95.5 77t-60 116t-21 144q0 82 22.5 152.5t64 122t100 81t129.5 29.5q55 0 107.5 -23.5t92.5 -74.5h4z" />
    <glyph glyph-name="r.superior" horiz-adv-x="540" 
d="M520 1113h-12q-83 0 -148.5 -28.5t-107.5 -89.5v-482h-142v713h118l19 -114h4q17 28 41.5 52t54.5 42t66.5 28t77.5 10h12t17 -1v-130z" />
    <glyph glyph-name="s.superior" horiz-adv-x="659" 
d="M220 1036q0 -25 11 -41t30 -26.5t43.5 -17.5t52.5 -13q39 -9 79 -20.5t73 -35t54 -62.5t21 -103q0 -54 -21 -95.5t-59.5 -70t-93.5 -43t-123 -14.5q-76 0 -130.5 14t-76.5 27v119q45 -18 92 -28.5t98 -10.5q80 0 128.5 23t48.5 75q0 29 -14 47t-37 29t-53 18.5t-62 14.5
q-36 9 -71.5 21t-63.5 34t-45.5 57.5t-17.5 90.5q0 56 21 97t57 68t82.5 40.5t97.5 13.5q60 0 116 -11t98 -28v-121q-45 17 -96 28t-108 11q-64 0 -97.5 -21.5t-33.5 -65.5z" />
    <glyph glyph-name="t.superior" horiz-adv-x="564" 
d="M514 510q-14 -5 -48 -10.5t-76 -5.5q-115 0 -177 53.5t-62 161.5v400h-131v117h131v195h142v-195h211v-117h-211v-380q0 -58 26.5 -86t90.5 -28q29 0 56 4t48 9v-118z" />
    <glyph glyph-name="u.superior" horiz-adv-x="832" 
d="M414 494q-78 0 -136 23t-96.5 63t-57.5 94.5t-19 117.5v434h142v-415q0 -41 8.5 -76.5t28 -62t52 -42t80.5 -15.5q49 0 81.5 15.5t52 42t27.5 62t8 76.5v415h142v-434q0 -63 -19.5 -117.5t-58.5 -94.5t-97.5 -63t-137.5 -23z" />
    <glyph glyph-name="v.superior" horiz-adv-x="729" 
d="M306 820l56 -167h4l55 164l142 409h146l-272 -713h-145l-272 713h144z" />
    <glyph glyph-name="w.superior" horiz-adv-x="1117" 
d="M560 1075h-4l-37 -149l-112 -413h-153l-234 713h140l127 -412l42 -153h4l36 148l115 417h149l116 -420l35 -145h4l40 147l129 418h140l-234 -713h-156l-110 414z" />
    <glyph glyph-name="x.superior" horiz-adv-x="739" 
d="M557 1226h156l-261 -352l267 -361h-154l-194 269h-4l-193 -269h-154l268 365l-257 348h156l182 -256h4z" />
    <glyph glyph-name="y.superior" horiz-adv-x="758" 
d="M20 1226h150l202 -530h5l209 530h152l-435 -1037h-143l145 339z" />
    <glyph glyph-name="z.superior" horiz-adv-x="691" 
d="M443 1105v4h-381v117h553v-91l-386 -501v-4h412v-117h-591v80z" />
    <glyph glyph-name="ampersand" unicode="&#x26;" horiz-adv-x="1371" 
d="M1229 696q-2 -145 -49.5 -263t-126.5 -209l80.5 -83l66.5 -69l47.5 -48.5l23.5 -23.5h-197l-38.5 38.5l-86.5 88.5q-97 -74 -209 -113t-227 -39q-110 0 -188.5 30t-128.5 79t-73 111.5t-23 127.5q0 78 22.5 137t61 104.5t88.5 81t104 65.5q-40 38 -75.5 76t-62 79
t-41.5 86.5t-15 99.5q0 74 26.5 131.5t75.5 97.5t117 61t151 21q76 0 141.5 -19t114 -56.5t76.5 -92.5t28 -127q0 -75 -26 -131.5t-69 -101.5t-98 -80.5t-114 -67.5l74.5 -76.5l87 -89.5l93.5 -96.5l95 -98.5q51 67 81.5 158t32.5 212h160zM513 107q37 0 79.5 6.5t86.5 20.5
t88.5 36t85.5 53l-99.5 102l-102 104.5l-96.5 98.5l-83 85q-44 -25 -82 -53.5t-66.5 -61.5t-45 -73t-16.5 -90q0 -44 15 -85t46 -73t78.5 -51t111.5 -19zM344 1052q0 -37 11 -70t32.5 -65t52.5 -65l71 -72q48 25 91.5 52t76.5 59t52 72t19 91q0 47 -15 80t-42 55t-64.5 32
t-82.5 10q-94 0 -148 -46t-54 -133z" />
    <glyph glyph-name="ampersand.c2sc" horiz-adv-x="1115" 
d="M998 548q-3 -107 -39.5 -197.5t-97.5 -161.5l189 -189h-207l-12 12l-25.5 25.5l-29 29l-23.5 23.5q-78 -56 -170 -85.5t-189 -29.5q-84 0 -146.5 23.5t-104 62.5t-62.5 91t-21 109q0 58 18 103t48.5 80.5t70 63.5t82.5 52q-32 31 -59.5 60.5t-48 61t-32.5 67t-12 77.5
q0 57 23.5 102.5t65 77t98.5 48t125 16.5q64 0 120.5 -15t99 -44t67 -72.5t24.5 -99.5q0 -57 -20 -102t-53 -81t-75.5 -65.5t-88.5 -55.5l115.5 -114l133.5 -134q36 50 58.5 114.5t24.5 146.5h153zM403 107q59 0 125.5 18.5t128.5 60.5l-152.5 152l-124.5 124
q-34 -19 -63 -40t-51 -45t-34.5 -51.5t-12.5 -60.5q0 -36 13.5 -65.5t38 -50t58.5 -31.5t74 -11zM286 824q0 -26 10 -49.5t28 -47t42 -47l51 -49.5q36 19 67.5 38.5t55.5 42.5t37.5 51t13.5 62q0 25 -11.5 46t-32 36t-48.5 23t-61 8q-31 0 -59 -8t-48.5 -22.5t-32.5 -35.5
t-12 -48z" />
    <glyph glyph-name="grave" unicode="`" horiz-adv-x="700" 
d="M376 1473l123 -349h-130l-161 349h168zM0 950z" />
    <glyph glyph-name="glyph431" horiz-adv-x="700" 
d="M326 1656l146 -247h-139l-181 247h174zM1 1338z" />
    <glyph glyph-name="gravecomb" unicode="&#x300;" horiz-adv-x="0" 
d="M-553 1473l123 -349h-130l-161 349h168zM-929 950z" />
    <glyph glyph-name="glyph433" horiz-adv-x="0" 
d="M-604 1656l146 -247h-139l-181 247h174zM-929 1338z" />
    <glyph glyph-name="acute" unicode="&#xb4;" horiz-adv-x="700" 
d="M506 1473l-161 -349h-130l123 349h168zM0 950z" />
    <glyph glyph-name="glyph435" horiz-adv-x="700" 
d="M472 1656l-181 -247h-139l146 247h174zM2 1338z" />
    <glyph glyph-name="acutecomb" unicode="&#x301;" horiz-adv-x="0" 
d="M-294 1473l-161 -349h-130l123 349h168zM-800 950z" />
    <glyph glyph-name="glyph437" horiz-adv-x="0" 
d="M-294 1656l-181 -247h-139l146 247h174zM-764 1338z" />
    <glyph glyph-name="circumflex" unicode="&#x2c6;" horiz-adv-x="700" 
d="M428 1473l210 -349h-140l-147 246h-4l-146 -246h-140l210 349h157zM0 950z" />
    <glyph glyph-name="glyph439" horiz-adv-x="700" 
d="M430 1656l216 -247h-158l-137 151h-4l-136 -151h-158l216 247h161zM0 1338z" />
    <glyph glyph-name="uni0302" unicode="&#x302;" horiz-adv-x="0" 
d="M-431 1473l210 -349h-140l-147 246h-4l-146 -246h-140l210 349h157zM-859 950z" />
    <glyph glyph-name="glyph441" horiz-adv-x="0" 
d="M-464 1656l216 -247h-158l-137 151h-4l-136 -151h-158l216 247h161zM-894 1338z" />
    <glyph glyph-name="caron" unicode="&#x2c7;" horiz-adv-x="700" 
d="M272 1124l-210 349h140l147 -246h4l146 246h140l-210 -349h-157zM0 950z" />
    <glyph glyph-name="glyph443" horiz-adv-x="700" 
d="M271 1410l-216 247h154l138 -153h4l139 153h154l-216 -247h-157zM0 1338z" />
    <glyph glyph-name="uni030C" unicode="&#x30c;" horiz-adv-x="0" 
d="M-598 1124l-210 349h140l147 -246h4l146 246h140l-210 -349h-157zM-870 950z" />
    <glyph glyph-name="glyph445" horiz-adv-x="0" 
d="M-621 1410l-216 247h154l138 -153h4l139 153h154l-216 -247h-157zM-892 1338z" />
    <glyph glyph-name="uni0315" unicode="&#x315;" horiz-adv-x="106" 
d="M16 1245q0 39 -23.5 56.5t-60.5 17.5v129q16 1 31 1q90 0 144.5 -43t54.5 -123q0 -51 -19 -100t-60 -103h-143q32 46 54 87t22 78zM0 950z" />
    <glyph glyph-name="tilde" unicode="&#x2dc;" horiz-adv-x="700" 
d="M39 1178v23q0 34 7.5 67.5t27 61t52.5 44t81 16.5q41 0 80 -14.5t72 -32.5t64.5 -33t55.5 -15q31 0 45.5 22t14.5 65h122v-23q0 -34 -7.5 -67.5t-27 -61t-52.5 -44t-81 -16.5q-41 0 -80 14.5t-72 32.5t-64.5 33t-55.5 15q-31 0 -45.5 -22t-14.5 -65h-122zM0 950z" />
    <glyph glyph-name="glyph448" horiz-adv-x="700" 
d="M207 1641q41 0 80 -14.5t72 -32l62.5 -32t55.5 -14.5q34 0 47.5 23t13.5 62h125v-22q0 -33 -7 -66.5t-27.5 -62t-54 -45t-81.5 -16.5q-41 0 -80 14.5t-72 32l-62.5 32t-55.5 14.5q-34 0 -47.5 -23t-13.5 -62h-125v14q-1 35 6.5 72t28 65.5t54 44.5t81.5 16zM0 1338z" />
    <glyph glyph-name="tildecomb" unicode="&#x303;" horiz-adv-x="0" 
d="M-818 1178v23q0 34 7.5 67.5t27 61t52.5 44t81 16.5q41 0 80 -14.5t72 -32.5t64.5 -33t55.5 -15q31 0 45.5 22t14.5 65h122v-23q0 -34 -7.5 -67.5t-27 -61t-52.5 -44t-81 -16.5q-41 0 -80 14.5t-72 32.5t-64.5 33t-55.5 15q-31 0 -45.5 -22t-14.5 -65h-122zM-857 950z
" />
    <glyph glyph-name="glyph450" horiz-adv-x="0" 
d="M-683 1641q41 0 80 -14.5t72 -32l62.5 -32t55.5 -14.5q34 0 47.5 23t13.5 62h125v-22q0 -33 -7 -66.5t-27.5 -62t-54 -45t-81.5 -16.5q-41 0 -80 14.5t-72 32l-62.5 32t-55.5 14.5q-34 0 -47.5 -23t-13.5 -62h-125v14q-1 35 6.5 72t28 65.5t54 44.5t81.5 16zM-890 1338z
" />
    <glyph glyph-name="dieresis" unicode="&#xa8;" horiz-adv-x="700" 
d="M80 1171v167h159v-167h-159zM461 1171v167h159v-167h-159zM0 950z" />
    <glyph glyph-name="glyph452" horiz-adv-x="700" 
d="M78 1448v169h161v-169h-161zM461 1448v169h161v-169h-161zM0 1338z" />
    <glyph glyph-name="uni0308" unicode="&#x308;" horiz-adv-x="0" 
d="M-777 1171v167h159v-167h-159zM-396 1171v167h159v-167h-159zM-857 950z" />
    <glyph glyph-name="glyph454" horiz-adv-x="0" 
d="M-814 1448v169h161v-169h-161zM-431 1448v169h161v-169h-161zM-892 1338z" />
    <glyph glyph-name="macron" unicode="&#xaf;" horiz-adv-x="700" 
d="M80 1300h540v-129h-540v129zM0 950z" />
    <glyph glyph-name="macron" unicode="&#x2c9;" horiz-adv-x="700" 
d="M80 1300h540v-129h-540v129zM0 950z" />
    <glyph glyph-name="glyph456" horiz-adv-x="700" 
d="M80 1581h540v-133h-540v133zM0 1338z" />
    <glyph glyph-name="uni0304" unicode="&#x304;" horiz-adv-x="0" 
d="M-781 1300h540v-129h-540v129zM-861 950z" />
    <glyph glyph-name="glyph458" horiz-adv-x="0" 
d="M-822 1581h540v-133h-540v133zM-902 1338z" />
    <glyph glyph-name="breve" unicode="&#x2d8;" horiz-adv-x="700" 
d="M350 1257q74 0 117.5 42t57.5 133h131q-4 -64 -25.5 -118t-60 -93.5t-94 -62t-126.5 -22.5t-126.5 22.5t-94 62t-60 93.5t-25.5 118h131q14 -91 57.5 -133t117.5 -42zM0 950z" />
    <glyph glyph-name="glyph460" horiz-adv-x="700" 
d="M347 1530q28 0 56.5 7.5t52.5 24.5t41 43.5t23 64.5h133q-7 -64 -33 -112.5t-66.5 -81.5t-93.5 -50t-113 -17t-113 17t-93.5 50t-66.5 81.5t-33 112.5h133q6 -38 23 -64.5t41 -43.5t52.5 -24.5t56.5 -7.5zM0 1338z" />
    <glyph glyph-name="uni0306" unicode="&#x306;" horiz-adv-x="0" 
d="M-494 1257q74 0 117.5 42t57.5 133h131q-4 -64 -25.5 -118t-60 -93.5t-94 -62t-126.5 -22.5t-126.5 22.5t-94 62t-60 93.5t-25.5 118h131q14 -91 57.5 -133t117.5 -42zM-844 950z" />
    <glyph glyph-name="glyph462" horiz-adv-x="0" 
d="M-552 1530q28 0 56.5 7.5t52.5 24.5t41 43.5t23 64.5h133q-7 -64 -33 -112.5t-66.5 -81.5t-93.5 -50t-113 -17t-113 17t-93.5 50t-66.5 81.5t-33 112.5h133q6 -38 23 -64.5t41 -43.5t52.5 -24.5t56.5 -7.5zM-899 1338z" />
    <glyph glyph-name="ring" unicode="&#x2da;" horiz-adv-x="700" 
d="M350 1100q-48 0 -90 13.5t-72.5 38.5t-48.5 61t-18 82t18 82t48.5 61t72.5 38.5t90 13.5t90 -13.5t72.5 -38.5t48.5 -61t18 -82t-18 -82t-48.5 -61t-72.5 -38.5t-90 -13.5zM350 1392q-45 0 -75.5 -25t-30.5 -72t30.5 -72t75.5 -25t75.5 25t30.5 72t-30.5 72t-75.5 25z
M0 950z" />
    <glyph glyph-name="glyph464" horiz-adv-x="700" 
d="M350 1376q-48 0 -90 12.5t-72.5 36.5t-48.5 59t-18 79t18 79t48.5 59t72.5 36.5t90 12.5t90 -12.5t72.5 -36.5t48.5 -59t18 -79t-18 -79t-48.5 -59t-72.5 -36.5t-90 -12.5zM350 1652q-45 0 -75.5 -22.5t-30.5 -66.5t30.5 -66.5t75.5 -22.5t75.5 22.5t30.5 66.5
t-30.5 66.5t-75.5 22.5zM0 1338z" />
    <glyph glyph-name="uni030A" unicode="&#x30a;" horiz-adv-x="0" 
d="M-522 1100q-48 0 -90 13.5t-72.5 38.5t-48.5 61t-18 82t18 82t48.5 61t72.5 38.5t90 13.5t90 -13.5t72.5 -38.5t48.5 -61t18 -82t-18 -82t-48.5 -61t-72.5 -38.5t-90 -13.5zM-522 1392q-45 0 -75.5 -25t-30.5 -72t30.5 -72t75.5 -25t75.5 25t30.5 72t-30.5 72t-75.5 25z
M-872 950z" />
    <glyph glyph-name="glyph466" horiz-adv-x="0" 
d="M-540 1376q-48 0 -90 12.5t-72.5 36.5t-48.5 59t-18 79t18 79t48.5 59t72.5 36.5t90 12.5t90 -12.5t72.5 -36.5t48.5 -59t18 -79t-18 -79t-48.5 -59t-72.5 -36.5t-90 -12.5zM-540 1652q-45 0 -75.5 -22.5t-30.5 -66.5t30.5 -66.5t75.5 -22.5t75.5 22.5t30.5 66.5
t-30.5 66.5t-75.5 22.5zM-890 1338z" />
    <glyph glyph-name="hungarumlaut" unicode="&#x2dd;" horiz-adv-x="700" 
d="M346 1473l-157 -349h-129l123 349h163zM657 1473l-177 -349h-130l143 349h164zM0 950z" />
    <glyph glyph-name="glyph468" horiz-adv-x="700" 
d="M361 1656l-171 -247h-139l136 247h174zM668 1656l-191 -247h-139l156 247h174zM0 1338z" />
    <glyph glyph-name="uni030B" unicode="&#x30b;" horiz-adv-x="0" 
d="M-479 1473l-157 -349h-129l123 349h163zM-168 1473l-177 -349h-130l143 349h164zM-825 950z" />
    <glyph glyph-name="glyph470" horiz-adv-x="0" 
d="M-493 1656l-171 -247h-139l136 247h174zM-186 1656l-191 -247h-139l156 247h174zM-854 1338z" />
    <glyph glyph-name="dotaccent" unicode="&#x2d9;" horiz-adv-x="700" 
d="M268 1171v173h163v-173h-163zM0 950z" />
    <glyph glyph-name="glyph472" horiz-adv-x="700" 
d="M268 1448v173h163v-173h-163zM0 1338z" />
    <glyph glyph-name="uni0307" unicode="&#x307;" horiz-adv-x="0" 
d="M-608 1171v173h163v-173h-163zM-876 950z" />
    <glyph glyph-name="glyph474" horiz-adv-x="0" 
d="M-625 1448v173h163v-173h-163zM-893 1338z" />
    <glyph glyph-name="cedilla" unicode="&#xb8;" horiz-adv-x="700" 
d="M294 0h122l-35 -126q40 -6 73.5 -18.5t57.5 -32.5t37 -48.5t13 -65.5q0 -52 -23 -89.5t-61.5 -62t-88.5 -36t-104 -11.5q-43 0 -77.5 5.5t-55.5 13.5v113q20 -6 50.5 -11t68.5 -6q29 0 56 3.5t49.5 13t36 25.5t13.5 39q0 21 -14 35.5t-39.5 23.5t-62 13.5t-81.5 6.5z" />
    <glyph glyph-name="uni0327" unicode="&#x327;" horiz-adv-x="0" 
d="M-485 0h122l-35 -126q40 -6 73.5 -18.5t57.5 -32.5t37 -48.5t13 -65.5q0 -52 -23 -89.5t-61.5 -62t-88.5 -36t-104 -11.5q-43 0 -77.5 5.5t-55.5 13.5v113q20 -6 50.5 -11t68.5 -6q29 0 56 3.5t49.5 13t36 25.5t13.5 39q0 21 -14 35.5t-39.5 23.5t-62 13.5t-81.5 6.5z
" />
    <glyph glyph-name="ogonek" unicode="&#x2db;" horiz-adv-x="700" 
d="M577 29q-37 -26 -82 -61.5t-83.5 -76.5t-64.5 -84t-26 -84q0 -78 91 -78q30 0 61.5 5.5t68.5 17.5v-128q-29 -13 -70 -21.5t-89 -8.5q-98 0 -151.5 44.5t-53.5 130.5q0 53 23.5 102t60.5 93t82 81.5t88 67.5h145z" />
    <glyph glyph-name="uni0328" unicode="&#x328;" horiz-adv-x="0" 
d="M-160 29q-37 -26 -82 -61.5t-83.5 -76.5t-64.5 -84t-26 -84q0 -78 91 -78q30 0 61.5 5.5t68.5 17.5v-128q-29 -13 -70 -21.5t-89 -8.5q-98 0 -151.5 44.5t-53.5 130.5q0 53 23.5 102t60.5 93t82 81.5t88 67.5h145z" />
    <glyph glyph-name="uni0326" unicode="&#x326;" horiz-adv-x="700" 
d="M342 -325q0 39 -23.5 56.5t-60.5 17.5v129q15 1 28 1q93 0 147.5 -42.5t54.5 -123.5q0 -50 -19 -99.5t-60 -103.5h-143q34 47 55 89t21 76z" />
    <glyph glyph-name="uni0312" unicode="&#x312;" horiz-adv-x="0" 
d="M-522 1308q0 -39 23.5 -56.5t60.5 -17.5v-129q-14 -1 -28 -1q-92 0 -147 42t-55 124q0 51 19 100t60 103h143q-32 -46 -54 -87t-22 -78zM0 950z" />
    <glyph glyph-name="comma" unicode="," horiz-adv-x="540" 
d="M187 218h173l-189 -608h-151z" />
    <glyph glyph-name="semicolon" unicode=";" horiz-adv-x="546" 
d="M187 218h173l-189 -608h-151zM366 807v-195h-191v195h191z" />
    <glyph glyph-name="colon" unicode=":" horiz-adv-x="541" 
d="M175 0v195h191v-195h-191zM366 807v-195h-191v195h191z" />
    <glyph glyph-name="period" unicode="." horiz-adv-x="541" 
d="M175 0v195h191v-195h-191z" />
    <glyph glyph-name="ellipsis" unicode="&#x2026;" horiz-adv-x="1623" 
d="M175 0v195h191v-195h-191zM716 0v195h191v-195h-191zM1257 0v195h191v-195h-191z" />
    <glyph glyph-name="hyphen" unicode="-" horiz-adv-x="681" 
d="M120 571h441v-145h-441v145z" />
    <glyph glyph-name="hyphen" unicode="&#x2010;" horiz-adv-x="681" 
d="M120 571h441v-145h-441v145z" />
    <glyph glyph-name="hyphen" unicode="&#xad;" horiz-adv-x="681" 
d="M120 571h441v-145h-441v145z" />
    <glyph glyph-name="hyphen.case" horiz-adv-x="681" 
d="M120 752h441v-145h-441v145z" />
    <glyph glyph-name="exclam" unicode="!" horiz-adv-x="541" 
d="M175 0v195h191v-195h-191zM360 1338l-24 -907h-131l-24 907h179z" />
    <glyph glyph-name="exclamdown" unicode="&#xa1;" horiz-adv-x="541" 
d="M366 950v-195h-191v195h191zM336 519l24 -907h-179l24 907h131z" />
    <glyph glyph-name="exclamdown.case" horiz-adv-x="541" 
d="M366 1338v-195h-191v195h191zM336 907l24 -907h-179l24 907h131z" />
    <glyph glyph-name="question" unicode="?" horiz-adv-x="873" 
d="M223 0v195h191v-195h-191zM772 1049q0 -60 -18.5 -107.5t-49 -85t-68 -68l-75.5 -60.5q-33 -26 -64.5 -54t-55.5 -61t-38.5 -74.5t-14.5 -91.5v-16h-137q-2 29 -2 44q0 68 20 123t54.5 97t75 74l79.5 62q27 21 51 43t42.5 47t29 54.5t10.5 66.5q0 44 -18.5 79t-52 59
t-80 37t-103.5 13q-75 0 -147.5 -19t-129.5 -45v132q54 29 130.5 47t153.5 18q95 0 170.5 -22.5t128 -64t81 -99t28.5 -128.5z" />
    <glyph glyph-name="questiondown" unicode="&#xbf;" horiz-adv-x="873" 
d="M650 950v-195h-191v195h191zM101 -99q0 56 16.5 101.5t43.5 81.5t61.5 65.5l70.5 57.5l70.5 57t62 64t43.5 78t16 97v16h137q2 -26 2 -44q0 -74 -21.5 -129t-56.5 -96t-76.5 -73.5l-82.5 -63.5q-25 -20 -48 -41.5t-40 -46t-27 -53t-10 -64.5q0 -44 18.5 -79t52 -59
t80 -37t103.5 -13q77 0 148.5 19t128.5 45v-132q-54 -29 -130.5 -47t-153.5 -18q-94 0 -170 22.5t-128.5 64t-81 99t-28.5 128.5z" />
    <glyph glyph-name="questiondown.case" horiz-adv-x="873" 
d="M650 1338v-195h-191v195h191zM101 289q0 56 16.5 101.5t43.5 81.5t61.5 65.5l70.5 57.5l70.5 57t62 64t43.5 78t16 97v16h137q2 -26 2 -44q0 -74 -21.5 -129t-56.5 -96t-76.5 -73.5l-82.5 -63.5q-25 -20 -48 -41.5t-40 -46t-27 -53t-10 -64.5q0 -44 18.5 -79t52 -59
t80 -37t103.5 -13q77 0 148.5 19t128.5 45v-132q-54 -29 -130.5 -47t-153.5 -18q-94 0 -170 22.5t-128.5 64t-81 99t-28.5 128.5z" />
    <glyph glyph-name="quoteleft" unicode="&#x2018;" horiz-adv-x="449" 
d="M60 1338h143l176 -494h-173z" />
    <glyph glyph-name="quoteright" unicode="&#x2019;" horiz-adv-x="449" 
d="M216 1338h173l-176 -494h-143z" />
    <glyph glyph-name="quoteleft.c2sc" horiz-adv-x="449" 
d="M60 1053h143l176 -494h-173z" />
    <glyph glyph-name="quoteright.c2sc" horiz-adv-x="449" 
d="M216 1053h173l-176 -494h-143z" />
    <glyph glyph-name="quotedblleft" unicode="&#x201c;" horiz-adv-x="809" 
d="M80 1338h143l156 -494h-173zM419 1338h145l175 -494h-175z" />
    <glyph glyph-name="quotedblright" unicode="&#x201d;" horiz-adv-x="809" 
d="M216 1338h173l-176 -494h-143zM574 1338h175l-205 -494h-145z" />
    <glyph glyph-name="quotedblleft.c2sc" horiz-adv-x="809" 
d="M80 1053h143l156 -494h-173zM419 1053h145l175 -494h-175z" />
    <glyph glyph-name="quotedblright.c2sc" horiz-adv-x="809" 
d="M216 1053h173l-176 -494h-143zM574 1053h175l-205 -494h-145z" />
    <glyph glyph-name="quotesinglbase" unicode="&#x201a;" horiz-adv-x="449" 
d="M169 226h173l-176 -494h-143z" />
    <glyph glyph-name="quotedblbase" unicode="&#x201e;" horiz-adv-x="809" 
d="M169 226h173l-176 -494h-143zM527 226h175l-205 -494h-145z" />
    <glyph glyph-name="guilsinglleft" unicode="&#x2039;" horiz-adv-x="600" 
d="M110 474l265 376h145l-225 -376l225 -376h-145z" />
    <glyph glyph-name="guilsinglright" unicode="&#x203a;" horiz-adv-x="600" 
d="M225 98h-145l225 376l-225 376h145l265 -376z" />
    <glyph glyph-name="guilsinglleft.case" horiz-adv-x="600" 
d="M110 680l265 376h145l-225 -376l225 -376h-145z" />
    <glyph glyph-name="guilsinglright.case" horiz-adv-x="600" 
d="M225 304h-145l225 376l-225 376h145l265 -376z" />
    <glyph glyph-name="guillemotleft" unicode="&#xab;" horiz-adv-x="997" 
d="M110 474l293 376h151l-259 -376l259 -376h-151zM507 474l265 376h145l-225 -376l225 -376h-145z" />
    <glyph glyph-name="guillemotright" unicode="&#xbb;" horiz-adv-x="997" 
d="M594 98h-151l259 376l-259 376h151l293 -376zM225 98h-145l225 376l-225 376h145l265 -376z" />
    <glyph glyph-name="guillemotleft.case" horiz-adv-x="997" 
d="M110 680l293 376h151l-259 -376l259 -376h-151zM507 680l265 376h145l-225 -376l225 -376h-145z" />
    <glyph glyph-name="guillemotright.case" horiz-adv-x="997" 
d="M594 304h-151l259 376l-259 376h151l293 -376zM225 304h-145l225 376l-225 376h145l265 -376z" />
    <glyph glyph-name="slash" unicode="/" horiz-adv-x="563" 
d="M18 -249l380 1587h148l-380 -1587h-148z" />
    <glyph glyph-name="bar" unicode="|" horiz-adv-x="465" 
d="M305 -465h-145v1913h145v-1913z" />
    <glyph glyph-name="endash" unicode="&#x2013;" horiz-adv-x="1000" 
d="M0 558h1000v-125h-1000v125z" />
    <glyph glyph-name="endash.case" horiz-adv-x="1000" 
d="M0 747h1000v-125h-1000v125z" />
    <glyph glyph-name="emdash" unicode="&#x2014;" horiz-adv-x="1700" 
d="M0 558h1700v-125h-1700v125z" />
    <glyph glyph-name="emdash.case" horiz-adv-x="1700" 
d="M0 747h1700v-125h-1700v125z" />
    <glyph glyph-name="afii00208" unicode="&#x2015;" horiz-adv-x="1700" 
d="M0 558h1700v-125h-1700v125z" />
    <glyph glyph-name="afii00208.case" horiz-adv-x="1700" 
d="M0 747h1700v-125h-1700v125z" />
    <glyph glyph-name="bullet" unicode="&#x2022;" horiz-adv-x="908" 
d="M140 667q0 67 24 124.5t66 99.5t99.5 66t124.5 24t124.5 -24t99.5 -66t66 -99.5t24 -124.5t-24 -124.5t-66 -99.5t-99.5 -66t-124.5 -24t-124.5 24t-99.5 66t-66 99.5t-24 124.5z" />
    <glyph glyph-name="periodcentered" unicode="&#xb7;" horiz-adv-x="541" 
d="M175 394v195h191v-195h-191z" />
    <glyph glyph-name="periodcentered" unicode="&#x2219;" horiz-adv-x="541" 
d="M175 394v195h191v-195h-191z" />
    <glyph glyph-name="periodcentered.case" horiz-adv-x="541" 
d="M175 588v195h191v-195h-191z" />
    <glyph glyph-name="parenleft" unicode="(" horiz-adv-x="614" 
d="M265 519q0 -134 23 -248t61 -209t88.5 -171.5t104.5 -135.5l-85 -80q-28 24 -65 64.5t-75.5 97t-75.5 128t-66 157t-47 185.5t-18 212q0 113 18 212.5t47 185t66 157t75.5 128t75.5 97t65 64.5l85 -80q-54 -59 -104.5 -135.5t-88.5 -171.5t-61 -209t-23 -248z" />
    <glyph glyph-name="parenright" unicode=")" horiz-adv-x="614" 
d="M349 519q0 134 -23 248t-61 209t-88.5 171.5t-104.5 135.5l85 80q28 -24 65 -64.5t75.5 -97t75.5 -128t66 -157t47 -185t18 -212.5q0 -112 -18 -212t-47 -185.5t-66 -157t-75.5 -128t-75.5 -97t-65 -64.5l-85 80q54 59 104.5 135.5t88.5 171.5t61 209t23 248z" />
    <glyph glyph-name="parenleft.case" horiz-adv-x="614" 
d="M265 670q0 -134 23 -248t61 -209t88.5 -171.5t104.5 -135.5l-85 -80q-28 24 -65 64.5t-75.5 97t-75.5 128t-66 157t-47 185.5t-18 212q0 113 18 212.5t47 185t66 157t75.5 128t75.5 97t65 64.5l85 -80q-54 -59 -104.5 -135.5t-88.5 -171.5t-61 -209t-23 -248z" />
    <glyph glyph-name="parenright.case" horiz-adv-x="614" 
d="M349 670q0 134 -23 248t-61 209t-88.5 171.5t-104.5 135.5l85 80q28 -24 65 -64.5t75.5 -97t75.5 -128t66 -157t47 -185t18 -212.5q0 -112 -18 -212t-47 -185.5t-66 -157t-75.5 -128t-75.5 -97t-65 -64.5l-85 80q54 59 104.5 135.5t88.5 171.5t61 209t23 248z" />
    <glyph glyph-name="bracketleft" unicode="[" horiz-adv-x="646" 
d="M160 1338h426v-123h-281v-1392h281v-123h-426v1638z" />
    <glyph glyph-name="bracketright" unicode="]" horiz-adv-x="646" 
d="M486 -300h-426v123h281v1392h-281v123h426v-1638z" />
    <glyph glyph-name="bracketleft.case" horiz-adv-x="646" 
d="M160 1488h426v-123h-281v-1392h281v-123h-426v1638z" />
    <glyph glyph-name="bracketright.case" horiz-adv-x="646" 
d="M486 -150h-426v123h281v1392h-281v123h426v-1638z" />
    <glyph glyph-name="braceleft" unicode="{" horiz-adv-x="615" 
d="M120 580q30 0 61 3.5t55.5 17t40.5 40.5t16 74q0 54 -18 99.5t-42 87.5q-23 41 -41 84t-18 95q0 37 14 82t52.5 84t107.5 65t178 26h34v-123h-12q-110 0 -164 -36t-54 -101q0 -43 14.5 -79.5t34.5 -73.5q21 -38 36.5 -82.5t15.5 -103.5q0 -54 -16 -94t-38 -66
t-45.5 -40.5t-37.5 -17.5v-4q14 -3 37.5 -17.5t45.5 -40.5t38 -66t16 -94q0 -56 -13.5 -96.5t-31.5 -75.5q-21 -40 -38.5 -80t-17.5 -87q0 -65 54.5 -101t163.5 -36h12v-123h-34q-109 0 -178 26t-107.5 65t-52.5 83.5t-14 80.5q0 32 6 58.5t16 50t22 46l25 45.5
q21 37 35.5 78t14.5 90q0 47 -16 74t-40.5 40.5t-55.5 17t-61 3.5v122z" />
    <glyph glyph-name="braceright" unicode="}" horiz-adv-x="615" 
d="M495 458q-30 0 -61 -3.5t-55.5 -17t-40.5 -40.5t-16 -74q0 -49 14.5 -90t35.5 -78l25 -45.5t22 -46t16 -50t6 -58.5q0 -36 -14 -80.5t-52.5 -83.5t-107.5 -65t-178 -26h-34v123h12q109 0 163.5 36t54.5 101q0 47 -17.5 87t-38.5 80q-18 35 -31.5 75.5t-13.5 96.5
q0 54 16 94t38 66t45.5 40.5t37.5 17.5v4q-14 3 -37.5 17.5t-45.5 40.5t-38 66t-16 94q0 59 15.5 103.5t36.5 82.5q20 37 34.5 73.5t14.5 79.5q0 65 -54 101t-164 36h-12v123h34q109 0 178 -26t107.5 -65t52.5 -84t14 -82q0 -52 -18 -95t-41 -84q-24 -42 -42 -87.5
t-18 -99.5q0 -47 16 -74t40.5 -40.5t55.5 -17t61 -3.5v-122z" />
    <glyph glyph-name="braceleft.case" horiz-adv-x="615" 
d="M120 730q30 0 61 3.5t55.5 17t40.5 40.5t16 74q0 54 -18 99.5t-42 87.5q-23 41 -41 84t-18 95q0 37 14 82t52.5 84t107.5 65t178 26h34v-123h-12q-110 0 -164 -36t-54 -101q0 -43 14.5 -79.5t34.5 -73.5q21 -38 36.5 -82.5t15.5 -103.5q0 -54 -16 -94t-38 -66
t-45.5 -40.5t-37.5 -17.5v-4q14 -3 37.5 -17.5t45.5 -40.5t38 -66t16 -94q0 -56 -13.5 -96.5t-31.5 -75.5q-21 -40 -38.5 -80t-17.5 -87q0 -65 54.5 -101t163.5 -36h12v-123h-34q-109 0 -178 26t-107.5 65t-52.5 83.5t-14 80.5q0 32 6 58.5t16 50t22 46l25 45.5
q21 37 35.5 78t14.5 90q0 47 -16 74t-40.5 40.5t-55.5 17t-61 3.5v122z" />
    <glyph glyph-name="braceright.case" horiz-adv-x="615" 
d="M495 609q-30 0 -61 -3.5t-55.5 -17t-40.5 -40.5t-16 -74q0 -49 14.5 -90t35.5 -78l25 -45.5t22 -46t16 -50t6 -58.5q0 -36 -14 -80.5t-52.5 -83.5t-107.5 -65t-178 -26h-34v123h12q109 0 163.5 36t54.5 101q0 47 -17.5 87t-38.5 80q-18 35 -31.5 75.5t-13.5 96.5
q0 54 16 94t38 66t45.5 40.5t37.5 17.5v4q-14 3 -37.5 17.5t-45.5 40.5t-38 66t-16 94q0 59 15.5 103.5t36.5 82.5q20 37 34.5 73.5t14.5 79.5q0 65 -54 101t-164 36h-12v123h34q109 0 178 -26t107.5 -65t52.5 -84t14 -82q0 -52 -18 -95t-41 -84q-24 -42 -42 -87.5
t-18 -99.5q0 -47 16 -74t40.5 -40.5t55.5 -17t61 -3.5v-122z" />
    <glyph glyph-name="asterisk" unicode="*" horiz-adv-x="1101" 
d="M553 849h-5l-82 -199l-112 -154l-117 85l112 154l154 147l-2 5l-206 21l-175 57l45 138l175 -57l178 -104l4 4l-44 202v190h145v-190l-44 -202l4 -4l178 104l175 57l45 -138l-175 -57l-206 -21l-2 -5l154 -147l112 -154l-117 -85l-112 154z" />
    <glyph glyph-name="dagger" unicode="&#x2020;" horiz-adv-x="951" 
d="M550 1148l-46 -202l4 -4l166 45h157v-137h-157l-166 45l-4 -4l46 -202l-44 -560h-61l-44 560l46 202l-4 4l-166 -45h-157v137h157l166 -45l4 4l-46 202v190h149v-190z" />
    <glyph glyph-name="daggerdbl" unicode="&#x2021;" horiz-adv-x="951" 
d="M401 689l46 202l-4 4l-166 -45h-157v137h157l166 -45l4 4l-46 202v190h149v-190l-46 -202l4 -4l166 45h157v-137h-157l-166 45l-4 -4l46 -202v-40l-46 -202l4 -4l166 45h157v-137h-157l-166 45l-4 -4l46 -202v-190h-149v190l46 202l-4 4l-166 -45h-157v137h157l166 -45
l4 4l-46 202v40z" />
    <glyph glyph-name="section" unicode="&#xa7;" horiz-adv-x="873" 
d="M249 1101q-14 -50 -20.5 -96t-6.5 -91q0 -70 14 -135.5t37 -127t53.5 -120t63.5 -115.5l82.5 -140.5t73.5 -139t49.5 -136t17.5 -130.5q0 -8 -1 -21h12q14 46 20.5 94t6.5 93q0 69 -13.5 133.5t-36 125t-52.5 118.5t-62 114l-83.5 142.5t-74.5 141t-51 137t-18 129.5
q0 12 1 24h-12zM361 1086q0 -45 22 -96.5t56.5 -110t77.5 -123.5t85 -137q33 -57 63.5 -119t54 -128.5t37 -139t13.5 -150.5q0 -146 -36.5 -242t-95 -152t-132 -78.5t-147.5 -22.5q-80 0 -142.5 15t-116.5 38v132q59 -23 119 -38t123 -15q83 0 126.5 35t43.5 110
q0 47 -23 100t-59 112.5l-80.5 127t-87.5 142.5q-32 56 -61 116t-50.5 125.5t-34.5 135.5t-13 145q0 146 37 242t95 152t129.5 78.5t139.5 22.5q79 0 146.5 -15t122.5 -38v-132q-60 23 -121.5 38t-126.5 15q-85 0 -124.5 -39t-39.5 -106z" />
    <glyph glyph-name="paragraph" unicode="&#xb6;" horiz-adv-x="1184" 
d="M498 -387v708q-91 18 -165 62t-127 109t-82 149t-29 183q0 114 38.5 208.5t108 162.5t165.5 105.5t217 37.5h390v-1725h-155v1588h-206v-1588h-155z" />
    <glyph glyph-name="Alpha" unicode="&#x391;" horiz-adv-x="1301" 
d="M35 0l545 1338h141l545 -1338h-177l-160 403h-559l-160 -403h-175zM649 1130q-89 -250 -171 -454l-50 -126h443l-50 126q-82 208 -168 454h-4z" />
    <glyph glyph-name="Beta" unicode="&#x392;" horiz-adv-x="1215" 
d="M830 692q62 -9 111.5 -33t85 -61.5t54.5 -89t19 -117.5q0 -47 -14 -98.5t-46.5 -100t-85 -89.5t-130.5 -67q-60 -20 -133 -28t-175 -8h-346v1338h334q46 0 83.5 -1.5t69 -4.5t58.5 -7.5t51 -10.5q63 -17 114.5 -46.5t87.5 -70.5t55.5 -93t19.5 -113q0 -49 -11.5 -94
t-37 -83t-66 -68t-98.5 -50v-4zM581 759q48 0 83 4.5t63 13.5q75 25 109.5 78t34.5 125q0 74 -36 121t-113 70q-38 11 -88 15.5t-118 4.5h-183v-432h248zM333 612v-465h197q70 0 130 6.5t102 20.5q46 15 78 38.5t51.5 52t28 60.5t8.5 65q0 38 -9 71.5t-29.5 60t-54 46.5
t-83.5 31q-30 7 -68.5 10t-95.5 3h-255z" />
    <glyph glyph-name="Gamma" unicode="&#x393;" horiz-adv-x="1062" 
d="M170 0v1338h852v-147h-689v-1191h-163z" />
    <glyph glyph-name="Delta" unicode="&#x394;" horiz-adv-x="1286" 
d="M561 1338h163l502 -1236v-102h-1166v102zM253 147h781l-238 607l-149 391h-6l-148 -388z" />
    <glyph glyph-name="Epsilon" unicode="&#x395;" horiz-adv-x="1129" 
d="M333 147h686v-147h-849v1338h812v-147h-649v-432h577v-147h-577v-465z" />
    <glyph glyph-name="Zeta" unicode="&#x396;" horiz-adv-x="1199" 
d="M1090 1338v-102l-776 -1089h785v-147h-999v102l778 1089h-760v147h972z" />
    <glyph glyph-name="Eta" unicode="&#x397;" horiz-adv-x="1367" 
d="M333 759h701v579h163v-1338h-163v612h-701v-612h-163v1338h163v-579z" />
    <glyph glyph-name="Theta" unicode="&#x398;" horiz-adv-x="1496" 
d="M1048 612h-600v147h600v-147zM1204 668q0 135 -35 238t-96.5 172t-145 104.5t-179.5 35.5t-179.5 -35.5t-145 -104.5t-96.5 -172t-35 -238t35.5 -237.5t97 -171.5t145 -104t180.5 -35q96 0 178.5 35t144 104t96.5 171.5t35 237.5zM1376 668q0 -152 -44 -279t-126 -219
t-197.5 -143.5t-258.5 -51.5q-148 0 -265 51.5t-198 143.5t-124 219t-43 279q0 153 44.5 280.5t126 219.5t197.5 143.5t260 51.5q147 0 263.5 -51.5t197.5 -143.5t124 -219.5t43 -280.5z" />
    <glyph glyph-name="Iota" unicode="&#x399;" horiz-adv-x="503" 
d="M170 0v1338h163v-1338h-163z" />
    <glyph glyph-name="Kappa" unicode="&#x39a;" horiz-adv-x="1239" 
d="M170 0v1338h163v-661h2l615 661h201l-624 -666l672 -672h-212l-652 655h-2v-655h-163z" />
    <glyph glyph-name="Lambda" unicode="&#x39b;" horiz-adv-x="1285" 
d="M642 1117l-166 -435l-268 -682h-173l535 1338h143l537 -1338h-173l-268 682q-85 215 -163 435h-4z" />
    <glyph glyph-name="Mu" unicode="&#x39c;" horiz-adv-x="1683" 
d="M879 0h-75l-337 799q-70 165 -140 359h-8q14 -279 14 -511v-647h-163v1338h235l315 -757q54 -130 119 -313h5q72 203 119 313l315 757h235v-1338h-163v647q0 227 14 511h-8q-74 -205 -140 -359z" />
    <glyph glyph-name="Nu" unicode="&#x39d;" horiz-adv-x="1426" 
d="M857 592l243 -364h6q-13 195 -13 398v712h163v-1338h-162l-525 746q-136 195 -243 364h-6q13 -183 13 -427v-683h-163v1338h162z" />
    <glyph glyph-name="Xi" unicode="&#x39e;" horiz-adv-x="1168" 
d="M207 759h754v-147h-754v147zM100 147h968v-147h-968v147zM135 1338h898v-147h-898v147z" />
    <glyph glyph-name="Omicron" unicode="&#x39f;" horiz-adv-x="1496" 
d="M1204 668q0 135 -35 238t-96.5 172t-145 104.5t-179.5 35.5t-179.5 -35.5t-145 -104.5t-96.5 -172t-35 -238t35.5 -237.5t97 -171.5t145 -104t180.5 -35q96 0 178.5 35t144 104t96.5 171.5t35 237.5zM1376 668q0 -152 -44 -279t-126 -219t-197.5 -143.5t-258.5 -51.5
q-148 0 -265 51.5t-198 143.5t-124 219t-43 279q0 153 44.5 280.5t126 219.5t197.5 143.5t260 51.5q147 0 263.5 -51.5t197.5 -143.5t124 -219.5t43 -280.5z" />
    <glyph glyph-name="Pi" unicode="&#x3a0;" horiz-adv-x="1357" 
d="M1187 1338v-1338h-163v1191h-691v-1191h-163v1338h1017z" />
    <glyph glyph-name="Rho" unicode="&#x3a1;" horiz-adv-x="1168" 
d="M333 0h-163v1338h371q83 0 153.5 -10t129.5 -31q120 -43 182 -128.5t62 -210.5q0 -102 -40.5 -179.5t-117.5 -129.5t-187.5 -78.5t-250.5 -26.5q-67 0 -139 6v-550zM333 699q33 -4 69 -6t68 -2q115 0 196 18t132 52.5t74 84t23 112.5q0 78 -37.5 128t-106.5 76
q-43 16 -99 22.5t-130 6.5h-189v-492z" />
    <glyph glyph-name="Sigma" unicode="&#x3a3;" horiz-adv-x="1203" 
d="M503 314l-159 -167v-4q143 4 246 4h503v-147h-993v106l552 598v6l-515 528v100h948v-147h-482q-107 0 -206 4v-4l151 -152l315 -330z" />
    <glyph glyph-name="Tau" unicode="&#x3a4;" horiz-adv-x="1137" 
d="M650 0h-163v1191h-447v147h1057v-147h-447v-1191z" />
    <glyph glyph-name="Upsilon" unicode="&#x3a5;" horiz-adv-x="1212" 
d="M607 678q23 80 57.5 155.5t80.5 154t102 164.5l123 186h192l-111.5 -157.5l-109.5 -158t-99 -161.5t-80.5 -170t-54.5 -182t-20 -198v-311h-163v311q0 155 -43 290.5t-111.5 259.5t-152.5 241l-167 236h194l121 -183.5t101 -165t80 -155.5t58 -156h3z" />
    <glyph glyph-name="Phi" unicode="&#x3a6;" horiz-adv-x="1557" 
d="M698 -67v151q-139 11 -248.5 59t-185 126t-115 182.5t-39.5 227.5q0 124 40.5 228.5t117 183t185.5 126.5t245 58v150h163v-150q139 -10 248 -58t184 -126t114.5 -183t39.5 -229q0 -123 -40.5 -227.5t-116.5 -182.5t-184.5 -126t-244.5 -59v-151h-163zM280 680
q0 -110 32.5 -192t89 -137.5t132.5 -86t164 -37.5v905q-88 -6 -164 -36.5t-132.5 -86.5t-89 -137.5t-32.5 -191.5zM1278 680q0 110 -32.5 191.5t-89 137t-132.5 85.5t-163 37v-904q87 6 163 36.5t132.5 86t89 138t32.5 192.5z" />
    <glyph glyph-name="Chi" unicode="&#x3a7;" horiz-adv-x="1236" 
d="M624 796l370 542h181l-454 -659l475 -679h-183l-392 567h-4l-392 -567h-185l479 683l-450 655h179l372 -542h4z" />
    <glyph glyph-name="Psi" unicode="&#x3a8;" horiz-adv-x="1467" 
d="M815 0h-163v427q-163 7 -268.5 55.5t-166 145.5t-84 246t-23.5 357q0 38 2 107h165q-1 -62 -1 -95q0 -192 17.5 -319t60.5 -203.5t115.5 -110t182.5 -38.5v766h163v-766q110 5 182.5 38.5t115.5 110t60.5 203.5t17.5 319q0 44 -1 95h165q2 -52 2 -107q0 -208 -23.5 -357
t-84 -246t-165.5 -145.5t-269 -55.5v-427z" />
    <glyph glyph-name="Omega" unicode="&#x3a9;" horiz-adv-x="1526" 
d="M763 1363q144 0 258.5 -48.5t194.5 -133.5t122.5 -201t42.5 -250q0 -100 -24.5 -186t-65 -158t-92.5 -131t-107 -104v-4h294v-147h-475v112l110.5 129t95 134t67 156.5t25.5 195.5q0 128 -35.5 220.5t-96.5 152.5t-142 89t-172 29t-172 -28.5t-142 -88.5t-96.5 -152
t-35.5 -219q0 -111 25.5 -197t67 -157.5t95 -134.5l110.5 -129v-112h-475v147h290v4q-59 48 -111 107t-90.5 130.5t-61 156.5t-22.5 185q0 134 42.5 250t122.5 201t194.5 133.5t258.5 48.5z" />
    <glyph glyph-name="Alphatonos" unicode="&#x386;" horiz-adv-x="1301" 
d="M334 1338l-106 -379h-138l94 379h150zM35 0l545 1338h141l545 -1338h-177l-160 403h-559l-160 -403h-175zM649 1130q-89 -250 -171 -454l-50 -126h443l-50 126q-82 208 -168 454h-4z" />
    <glyph glyph-name="Epsilontonos" unicode="&#x388;" horiz-adv-x="1295" 
d="M244 1338l-106 -379h-138l94 379h150zM499 147h686v-147h-849v1338h812v-147h-649v-432h577v-147h-577v-465z" />
    <glyph glyph-name="Etatonos" unicode="&#x389;" horiz-adv-x="1533" 
d="M244 1338l-106 -379h-138l94 379h150zM499 759h701v579h163v-1338h-163v612h-701v-612h-163v1338h163v-579z" />
    <glyph glyph-name="Iotatonos" unicode="&#x38a;" horiz-adv-x="669" 
d="M244 1338l-106 -379h-138l94 379h150zM336 0v1338h163v-1338h-163z" />
    <glyph glyph-name="Iotadieresis" unicode="&#x3aa;" horiz-adv-x="503" 
d="M170 0v1338h163v-1338h-163zM-18 1448v169h161v-169h-161zM365 1448v169h161v-169h-161zM-96 1338z" />
    <glyph glyph-name="Omicrontonos" unicode="&#x38c;" horiz-adv-x="1617" 
d="M244 1338l-106 -379h-138l94 379h150zM1325 668q0 135 -35 238t-96.5 172t-145 104.5t-179.5 35.5t-179.5 -35.5t-145 -104.5t-96.5 -172t-35 -238t35.5 -237.5t97 -171.5t145 -104t180.5 -35q96 0 178.5 35t144 104t96.5 171.5t35 237.5zM1497 668q0 -152 -44 -279
t-126 -219t-197.5 -143.5t-258.5 -51.5q-148 0 -265 51.5t-198 143.5t-124 219t-43 279q0 153 44.5 280.5t126 219.5t197.5 143.5t260 51.5q147 0 263.5 -51.5t197.5 -143.5t124 -219.5t43 -280.5z" />
    <glyph glyph-name="Upsilontonos" unicode="&#x38e;" horiz-adv-x="1467" 
d="M244 1338l-106 -379h-138l94 379h150zM862 678q23 80 57.5 155.5t80.5 154t102 164.5l123 186h192l-111.5 -157.5l-109.5 -158t-99 -161.5t-80.5 -170t-54.5 -182t-20 -198v-311h-163v311q0 155 -43 290.5t-111.5 259.5t-152.5 241l-167 236h194l121 -183.5t101 -165
t80 -155.5t58 -156h3z" />
    <glyph glyph-name="Upsilondieresis" unicode="&#x3ab;" horiz-adv-x="1212" 
d="M607 678q23 80 57.5 155.5t80.5 154t102 164.5l123 186h192l-111.5 -157.5l-109.5 -158t-99 -161.5t-80.5 -170t-54.5 -182t-20 -198v-311h-163v311q0 155 -43 290.5t-111.5 259.5t-152.5 241l-167 236h194l121 -183.5t101 -165t80 -155.5t58 -156h3zM331 1448v169h161
v-169h-161zM714 1448v169h161v-169h-161zM253 1338z" />
    <glyph glyph-name="Omegatonos" unicode="&#x38f;" horiz-adv-x="1627" 
d="M244 1338l-106 -379h-138l94 379h150zM874 1363q144 0 258.5 -48.5t194.5 -133.5t122.5 -201t42.5 -250q0 -100 -24.5 -186t-65 -158t-92.5 -131t-107 -104v-4h294v-147h-475v112l110.5 129t95 134t67 156.5t25.5 195.5q0 128 -35.5 220.5t-96.5 152.5t-142 89t-172 29
t-172 -28.5t-142 -88.5t-96.5 -152t-35.5 -219q0 -111 25.5 -197t67 -157.5t95 -134.5l110.5 -129v-112h-475v147h290v4q-59 48 -111 107t-90.5 130.5t-61 156.5t-22.5 185q0 134 42.5 250t122.5 201t194.5 133.5t258.5 48.5z" />
    <glyph glyph-name="alpha" unicode="&#x3b1;" horiz-adv-x="1149" 
d="M1013 -15q-49 0 -88.5 19t-68 51.5t-46.5 73.5t-27 86h-5q-19 -41 -44.5 -83t-63 -77.5t-88.5 -57.5t-119 -22q-73 0 -139.5 30t-117.5 90t-81 151t-30 213q0 139 36 237t91.5 160t122.5 90.5t130 28.5q65 0 116 -20.5t91.5 -55.5t71 -82.5t53.5 -100.5h4q8 28 19 60
l22 63.5l22 60.5l19 50h147l-51.5 -126.5t-45.5 -119t-38 -116.5t-29 -120q0 -99 12 -165.5t33.5 -106.5t51.5 -57.5t66 -17.5q8 0 26 1.5t29 4.5v-133q-18 -4 -39 -6.5t-42 -2.5zM735 515q-12 59 -33.5 117t-53 105t-73.5 76t-95 29q-47 0 -87.5 -25.5t-70 -73.5
t-46.5 -117.5t-17 -157.5q0 -60 11.5 -123.5t36.5 -116.5t66.5 -86.5t101.5 -34.5q60 1 107.5 38.5t79.5 98t50.5 132.5t22.5 139z" />
    <glyph glyph-name="beta" unicode="&#x3b2;" horiz-adv-x="1128" 
d="M752 774q59 -16 108 -46.5t84 -75.5t54.5 -105.5t19.5 -137.5q0 -92 -28 -171.5t-83 -138t-136 -91.5t-187 -33q-81 0 -147 23.5t-109 64.5h-3v-528h-155v1505q0 101 18 167t52 115.5t81.5 83t105.5 50.5t124 17q83 0 154 -24.5t124 -71.5t83 -117t30 -160
q0 -55 -11 -105t-34 -92t-59 -74t-86 -51v-4zM449 835q45 -3 83 -3q72 0 119.5 22.5t76 60t40 86t11.5 99.5t-14.5 95t-43 76.5t-72 51t-101.5 18.5q-44 0 -84.5 -15.5t-71 -49.5t-49 -87.5t-18.5 -128.5v-854q49 -50 111.5 -74.5t135.5 -24.5t126.5 24t88.5 64.5t52 94
t17 112.5q0 84 -28.5 140t-73 89t-99.5 47t-108 14q-15 0 -40.5 -0.5t-57.5 -2.5v146z" />
    <glyph glyph-name="beta.salt" horiz-adv-x="1068" 
d="M740 811q113 -56 170.5 -157.5t57.5 -232.5q0 -103 -30 -185.5t-86.5 -140.5t-136 -89t-178.5 -31q-122 0 -204 45.5t-131.5 126t-70.5 190.5t-21 239q0 117 15.5 228.5t46.5 211t76 183.5t103.5 145t131 95t156.5 34q67 0 118 -21t85 -59t51 -89.5t17 -113.5
q0 -55 -13 -106t-36 -98t-54 -89.5t-67 -80.5v-5zM806 413q0 60 -14.5 106.5t-39 82t-57 61t-68.5 42.5q-80 -66 -170 -122t-186 -105q2 -75 18 -143.5t47.5 -118.5t82.5 -79.5t126 -29.5q61 0 109.5 23t82 63.5t51.5 97t18 122.5zM267 627q108 58 196.5 122.5t151.5 136
t97.5 149.5t34.5 162q0 29 -7.5 55t-22.5 45t-38.5 30t-55.5 11q-69 0 -132.5 -56t-112.5 -153t-80 -226t-35 -276h4z" />
    <glyph glyph-name="gamma" unicode="&#x3b3;" horiz-adv-x="992" 
d="M520 -82q3 -106 3 -163v-220h-182q23 173 23 287q0 151 -28.5 304.5t-75 299.5t-104 279.5t-116.5 244.5h172q39 -73 80 -169t78.5 -203.5t67.5 -221t45 -223.5h4q46 88 87.5 180t78.5 192.5t68 210.5t55 234h166q-24 -144 -69.5 -286t-104 -275t-123.5 -252.5
t-125 -218.5z" />
    <glyph glyph-name="delta" unicode="&#x3b4;" horiz-adv-x="1090" 
d="M512 931q-42 35 -81.5 72.5t-71.5 77.5t-51.5 83.5t-19.5 90.5q0 52 21 92.5t60 68.5t95 42.5t126 14.5q52 0 105 -7t103.5 -19t97.5 -27.5t87 -32.5v-142q-97 42 -193.5 69.5t-187.5 27.5q-70 0 -114.5 -20.5t-44.5 -67.5q0 -35 26 -70.5t67.5 -74.5t94.5 -83t107 -95
q49 -46 95 -99.5t82.5 -115.5t58 -134.5t21.5 -154.5q0 -99 -33 -182t-93.5 -143t-145 -93.5t-188.5 -33.5q-99 0 -180.5 30t-139 84.5t-89 132t-31.5 172.5q0 101 34.5 186t92.5 152.5t133.5 117t156.5 77.5v4zM833 432q0 70 -16.5 127.5t-46 106.5t-67.5 91t-83 82
q-72 -24 -138 -63.5t-115.5 -94t-79.5 -124t-30 -155.5q0 -65 20 -119.5t56 -93.5t87 -60.5t114 -21.5q68 0 123 21.5t94 62.5t60.5 102t21.5 139z" />
    <glyph glyph-name="epsilon" unicode="&#x3b5;" horiz-adv-x="941" 
d="M709 421q-42 3 -89.5 5.5t-110.5 2.5q-125 0 -186 -40t-61 -114q0 -36 16 -67t48.5 -53.5t82 -35t115.5 -12.5q104 0 190.5 22t146.5 51v-131q-51 -29 -140.5 -51.5t-210.5 -22.5q-103 0 -180 21.5t-128 60t-76.5 91t-25.5 115.5q0 50 16.5 89t43.5 68t62 47.5t71 26.5v4
q-30 9 -59 26t-52 43t-36.5 62t-13.5 82q0 59 28 108t80 83.5t126 53.5t166 19q85 0 161 -12t138 -30v-131q-72 18 -141.5 29t-141.5 11q-57 0 -104 -11.5t-80.5 -31.5t-51.5 -47.5t-18 -60.5q0 -29 10.5 -54t35.5 -43t65 -28.5t98 -10.5q68 0 118 1.5t88 5.5v-141z" />
    <glyph glyph-name="zeta" unicode="&#x3b6;" horiz-adv-x="921" 
d="M722 1341q-264 -54 -513 -56v138q373 0 682 49v-122q-120 -75 -234 -167.5t-203.5 -199.5t-143.5 -230.5t-54 -261.5q0 -73 22 -123t59 -84.5t85.5 -56t101.5 -37.5l92 -26t86.5 -26t79.5 -33t64.5 -47t43.5 -66.5t16 -92.5q0 -84 -28.5 -157t-75.5 -143h-166
q56 80 81 145.5t25 122.5q0 48 -26.5 79t-71.5 51t-102 34.5t-117 32.5q-61 18 -120.5 45.5t-106 74t-75 117.5t-28.5 175q0 139 50 268t135.5 238t199.5 198.5t242 152.5v8z" />
    <glyph glyph-name="eta" unicode="&#x3b7;" horiz-adv-x="1145" 
d="M333 818q26 33 58 61.5t71 50t84.5 33.5t97.5 12q34 0 73 -6t77 -20.5t72.5 -39t61 -62t42 -90t15.5 -121.5v-1101h-155v1076q0 62 -17 105.5t-46 71.5t-68 41t-83 13q-82 -1 -152.5 -45t-124.5 -122v-675h-155v704q0 32 -1.5 57t-9 42.5t-23 26.5t-42.5 9q-17 0 -32 -3
t-26 -7v124q17 5 43.5 8.5t46.5 3.5q48 0 81.5 -10t55.5 -28.5t35 -46.5t18 -62h3z" />
    <glyph glyph-name="theta" unicode="&#x3b8;" horiz-adv-x="1112" 
d="M1007 734q0 -190 -30.5 -332t-88 -237t-141 -142.5t-190.5 -47.5q-109 0 -193.5 44t-142 135t-87 230.5t-29.5 329.5t30.5 332t88 237t141.5 142.5t190 47.5q110 0 194 -44t141.5 -135t87 -230.5t29.5 -329.5zM556 107q135 0 206.5 144t77.5 428h-569q5 -287 77 -429.5
t208 -142.5zM556 1341q-130 0 -201 -133.5t-82 -395.5h566q-18 529 -283 529z" />
    <glyph glyph-name="theta.salt" horiz-adv-x="1090" 
d="M522 107q92 0 150 40t91 115.5t44.5 184t11.5 244.5q-149 6 -271 40t-206.5 92t-129.5 138.5t-45 180.5q0 69 21.5 129.5t63.5 105t104 70.5t143 26q106 0 195 -44t153.5 -137t101 -239.5t36.5 -352.5q0 -179 -25.5 -314.5t-81 -227t-144 -137.5t-214.5 -46
q-98 0 -166 28t-110 80.5t-61 127t-19 167.5v125q0 19 -1.5 35t-7 28t-16.5 18.5t-31 6.5q-28 0 -58 -10v129q47 13 97 13t82 -15t51.5 -40.5t27 -60t7.5 -77.5v-114q0 -70 8.5 -127t31.5 -97.5t63 -62.5t104 -22zM322 1152q0 -61 27 -115.5t85.5 -97.5t152.5 -71t227 -36
q-12 143 -40.5 240.5t-70 157t-93 85t-110.5 25.5q-38 0 -70.5 -13t-56.5 -37t-37.5 -59t-13.5 -79z" />
    <glyph glyph-name="iota" unicode="&#x3b9;" horiz-adv-x="535" 
d="M305 234q0 -36 4 -59t14 -36t26.5 -17.5t41.5 -4.5q20 0 47.5 5t41.5 10v-129q-23 -7 -59 -12.5t-72 -5.5q-56 0 -94 13.5t-61.5 40t-33.5 65t-10 88.5v758h155v-716z" />
    <glyph glyph-name="kappa" unicode="&#x3ba;" horiz-adv-x="1066" 
d="M150 0v950h155v-444l409 366q53 48 115 75t147 27v-138q-31 0 -59 -8t-53.5 -21t-48 -30.5t-43.5 -35.5l-217 -189l471 -552h-201l-380 456l-140 -122v-334h-155z" />
    <glyph glyph-name="lambda" unicode="&#x3bb;" horiz-adv-x="996" 
d="M202 1473q71 0 123 -25.5t91 -72.5t70.5 -115t62.5 -152l402 -1108h-170l-179 514q-45 130 -72 221h-4q-34 -93 -89 -220l-224 -515h-173l416 925q-37 107 -67 185t-61.5 129t-68 76t-86.5 25q-26 0 -54 -6t-44 -11v126q22 9 58 16.5t69 7.5z" />
    <glyph glyph-name="mu" unicode="&#x3bc;" horiz-adv-x="1180" 
d="M846 144q-52 -94 -132 -131.5t-180 -37.5q-72 0 -130 26t-90 71h-4l4 -362l1 -175h-155v1415h155v-589q0 -66 15.5 -113.5t44.5 -77.5t70.5 -44.5t93.5 -14.5q66 0 119 21t90.5 63.5t57.5 107t20 151.5v496h155v-638q0 -60 6 -99t18 -61.5t30.5 -31.5t43.5 -9
q6 0 20.5 1.5t25.5 4.5v-123q-17 -4 -39 -6.5t-39 -2.5q-46 0 -79.5 11.5t-57 32t-38 50t-22.5 65.5h-4z" />
    <glyph glyph-name="nu" unicode="&#x3bd;" horiz-adv-x="968" 
d="M883 950q-1 -157 -31.5 -285t-82 -240.5t-119.5 -215.5l-143 -209h-124l-76 242l-82 244.5l-86 238.5t-89 225h167q36 -86 71.5 -181t68 -193.5t62 -197.5t53.5 -194h4q44 60 87 142t77.5 179t55.5 204.5t21 218.5v22h166z" />
    <glyph glyph-name="xi" unicode="&#x3be;" horiz-adv-x="893" 
d="M421 742q-53 8 -97.5 24.5t-77 44t-50.5 68.5t-18 98q0 72 31.5 130t88.5 104t135.5 81t172.5 61l-2 6q-301 -44 -429 -46v135q379 0 677 24v-124q-114 -30 -208 -64.5t-161.5 -77.5t-105 -95.5t-37.5 -117.5q0 -60 36.5 -96.5t93 -54.5t129 -23.5t137.5 -5.5q13 0 52 1
v-123h-26q-53 0 -113 -7.5t-114 -23t-104 -41t-86.5 -59.5t-57.5 -77t-21 -94q0 -58 24 -94t63.5 -58t91 -35t105.5 -24q40 -8 80 -17.5t76.5 -23t67.5 -32.5t54.5 -47.5t36.5 -67.5t13 -92q0 -76 -28.5 -152.5t-75.5 -146.5h-164q57 82 80.5 150.5t23.5 125.5
q0 46 -21.5 75.5t-59.5 48.5t-85.5 30.5t-99.5 22.5q-61 13 -122.5 30.5t-110.5 51t-79.5 88.5t-30.5 142q0 81 26.5 141.5t70.5 105.5t101 76t118 51v4z" />
    <glyph glyph-name="omicron" unicode="&#x3bf;" horiz-adv-x="1092" 
d="M835 474q0 88 -21.5 156.5t-60 116t-91.5 72t-116 24.5t-116 -24.5t-91.5 -72t-60 -116t-21.5 -156.5q0 -87 21.5 -155.5t60.5 -115.5t92 -71.5t116 -24.5t115.5 24.5t91 71.5t60 115.5t21.5 155.5zM997 474q0 -112 -32 -204t-90.5 -157.5t-141.5 -101.5t-186 -36
q-106 0 -189.5 36t-142 101.5t-89.5 157.5t-31 204q0 113 32 205t90.5 158t142 102t186.5 36q105 0 189 -36t142 -102t89 -158t31 -205z" />
    <glyph glyph-name="pi" unicode="&#x3c0;" horiz-adv-x="1178" 
d="M399 817v-817h-154v817h-190v133h1068v-133h-182v-545q0 -39 1.5 -68.5t9.5 -48.5t25.5 -28.5t49.5 -9.5q12 0 27.5 1.5t26.5 4.5v-129q-17 -4 -40 -6.5t-52 -2.5q-58 0 -97 14t-62.5 41t-33.5 65.5t-10 86.5v625h-387z" />
    <glyph glyph-name="rho" unicode="&#x3c1;" horiz-adv-x="1104" 
d="M852 484q0 86 -20 153t-56.5 112.5t-85.5 69t-108 23.5q-54 0 -102 -21.5t-85 -71.5t-58.5 -132t-21.5 -204v-186q40 -54 104.5 -87t145.5 -33q51 0 102 20t92.5 65t67 118t25.5 174zM160 425q0 115 19 201t51.5 147t74 100t88 62t93 31.5t87.5 8.5q110 0 193 -39
t137.5 -105.5t82.5 -156.5t28 -192q0 -94 -19 -168t-51.5 -130t-76 -96t-92 -65t-100 -36.5t-99.5 -11.5t-88.5 9.5t-73.5 25t-58 35t-43 38.5h-4l4 -93.5t2 -104.5v-350h-155v890z" />
    </font>
</defs>
</svg>
